{"glyphs":{"0":{"ha":903,"x_min":122,"x_max":943,"o":"m 350 -6 q 181 44 240 -6 q 122 193 122 94 q 126 253 122 222 l 208 768 q 310 965 229 896 q 515 1033 392 1033 l 725 1033 q 888 981 833 1033 q 943 832 943 929 q 938 768 943 815 l 856 253 q 758 60 836 126 q 558 -6 681 -6 l 350 -6 m 539 150 q 688 278 668 150 l 763 751 q 765 786 765 764 q 661 879 765 879 l 524 879 q 425 847 463 879 q 378 751 388 814 l 303 278 q 300 246 300 256 q 414 150 300 150 l 539 150 z "},"1":{"ha":513,"x_min":181,"x_max":576,"o":"m 379 868 l 181 825 l 197 936 l 422 1025 l 576 1025 l 414 0 l 242 0 l 379 868 z "},"2":{"ha":818,"x_min":68,"x_max":839,"o":"m 89 139 l 489 488 q 623 636 579 565 q 667 767 667 707 q 634 844 667 817 q 525 871 601 871 l 233 871 l 256 1006 q 413 1026 342 1018 q 564 1033 485 1033 q 774 974 708 1033 q 839 814 839 915 q 619 410 839 604 l 331 156 l 788 156 l 763 0 l 68 0 l 89 139 z "},"3":{"ha":807,"x_min":58,"x_max":843,"o":"m 439 -8 q 58 17 222 -8 l 78 146 l 400 146 q 540 173 492 146 q 600 268 588 200 q 611 339 611 324 q 568 417 611 390 q 457 446 525 443 l 222 456 l 242 578 l 493 590 q 656 701 638 597 q 664 774 664 757 q 508 879 664 879 l 221 879 l 242 1008 q 588 1033 433 1033 q 779 987 715 1033 q 843 838 843 940 q 826 706 843 804 q 768 580 814 626 q 661 517 722 533 q 747 460 711 503 q 782 349 782 417 q 768 240 782 325 q 663 56 750 119 q 439 -8 576 -8 z "},"4":{"ha":847,"x_min":83,"x_max":879,"o":"m 565 233 l 104 233 l 83 318 l 547 1025 l 724 1025 l 297 379 l 589 379 l 625 606 l 676 715 l 814 715 l 761 379 l 879 379 l 860 261 l 738 233 l 700 1 l 529 1 l 565 233 z "},"5":{"ha":856,"x_min":113,"x_max":908,"o":"m 446 -7 q 113 13 313 -7 l 135 147 l 478 147 q 601 185 556 147 q 657 282 647 224 l 669 368 q 672 401 672 390 q 561 494 672 494 l 471 494 q 388 473 418 494 q 342 404 357 451 l 178 404 l 304 1025 l 908 1025 l 883 871 l 444 871 l 386 588 q 447 626 410 611 q 528 642 483 642 l 643 642 q 797 590 744 642 q 850 451 850 538 q 847 399 850 435 l 822 247 q 706 56 803 118 q 446 -7 610 -7 z "},"6":{"ha":851,"x_min":140,"x_max":879,"o":"m 378 -6 q 199 59 258 -6 q 140 289 140 124 q 258 828 140 624 q 624 1033 375 1033 q 879 1014 767 1033 l 857 879 l 613 879 q 437 804 506 879 q 344 583 368 729 q 599 604 436 604 q 784 562 724 604 q 844 433 844 519 q 839 376 844 415 l 815 231 q 720 51 796 108 q 531 -6 644 -6 l 378 -6 m 518 149 q 606 175 572 149 q 650 263 640 201 l 663 344 q 665 378 665 369 q 633 441 665 424 q 529 458 600 458 l 325 458 q 311 308 311 357 q 342 184 311 219 q 436 149 372 149 l 518 149 z "},"7":{"ha":764,"x_min":175,"x_max":878,"o":"m 642 854 l 178 854 l 206 1025 l 843 1025 l 878 949 l 376 0 l 175 0 l 642 854 z "},"8":{"ha":879,"x_min":121,"x_max":903,"o":"m 346 -6 q 121 156 121 -6 q 125 207 121 182 l 149 354 q 200 464 158 418 q 294 521 242 510 q 218 643 218 560 q 224 701 218 663 l 242 821 q 511 1033 276 1033 l 717 1033 q 856 997 810 1033 q 903 879 903 961 q 897 819 903 864 l 879 701 q 839 600 871 651 q 757 538 807 549 q 826 491 804 526 q 849 406 849 456 q 846 360 849 388 l 821 211 q 732 44 803 93 q 550 -6 661 -6 l 346 -6 m 594 597 q 676 626 649 597 q 711 703 704 656 l 722 779 q 726 814 726 799 q 706 871 726 854 q 644 888 686 888 l 525 888 q 441 863 469 888 q 403 779 413 839 l 392 703 q 389 672 389 678 q 478 597 389 597 l 594 597 m 526 142 q 617 167 588 142 q 654 242 647 192 l 671 346 q 674 372 674 365 q 649 431 674 413 q 572 450 625 450 l 454 450 q 368 424 408 450 q 319 346 328 397 l 303 242 q 300 217 300 222 q 406 142 300 142 l 526 142 z "},"9":{"ha":851,"x_min":133,"x_max":872,"o":"m 635 1032 q 813 967 754 1032 q 872 738 872 903 q 755 198 872 403 q 389 -7 638 -7 q 133 13 246 -7 l 156 147 l 400 147 q 576 222 507 147 q 668 443 644 297 q 414 422 576 422 q 228 465 289 422 q 168 593 168 507 q 174 650 168 611 l 197 796 q 292 975 217 918 q 482 1032 368 1032 l 635 1032 m 494 878 q 406 851 440 878 q 363 764 372 825 l 350 682 q 347 649 347 657 q 380 585 347 603 q 483 568 413 568 l 688 568 q 701 718 701 669 q 671 842 701 807 q 576 878 640 878 l 494 878 z "},"\u0000":{"ha":0,"x_min":0,"x_max":0,"o":""},"\r":{"ha":338,"x_min":0,"x_max":0,"o":""}," ":{"ha":338,"x_min":0,"x_max":0,"o":""},"A":{"ha":957,"x_min":38,"x_max":921,"o":"m 538 1025 l 754 1025 l 921 0 l 743 0 l 704 242 l 332 242 l 215 0 l 38 0 l 538 1025 m 688 396 l 621 876 l 397 396 l 688 396 z "},"Á":{"ha":957,"x_min":38,"x_max":921,"o":"m 538 1025 l 754 1025 l 921 0 l 743 0 l 704 242 l 332 242 l 215 0 l 38 0 l 538 1025 m 688 396 l 621 876 l 397 396 l 688 396 m 731 1292 l 879 1292 l 692 1099 l 583 1099 l 731 1292 z "},"Ă":{"ha":957,"x_min":38,"x_max":921,"o":"m 538 1025 l 754 1025 l 921 0 l 743 0 l 704 242 l 332 242 l 215 0 l 38 0 l 538 1025 m 688 396 l 621 876 l 397 396 l 688 396 m 643 1090 q 525 1128 568 1090 q 482 1243 482 1165 q 488 1296 482 1257 l 568 1296 q 565 1263 565 1271 q 590 1192 565 1215 q 654 1169 615 1169 q 739 1199 704 1169 q 785 1296 774 1229 l 867 1296 q 792 1140 850 1190 q 643 1090 733 1090 z "},"Ắ":{"ha":957,"x_min":38,"x_max":921,"o":"m 538 1025 l 754 1025 l 921 0 l 743 0 l 704 242 l 332 242 l 215 0 l 38 0 l 538 1025 m 688 396 l 621 876 l 397 396 l 688 396 m 744 1456 l 893 1456 l 706 1263 l 597 1263 l 744 1456 m 632 1075 q 510 1106 554 1075 q 465 1203 465 1138 q 468 1238 465 1213 l 549 1238 q 547 1219 547 1231 q 574 1164 547 1182 q 640 1146 600 1146 q 722 1166 686 1146 q 767 1238 758 1186 l 849 1238 q 779 1115 836 1154 q 632 1075 722 1075 z "},"Ặ":{"ha":957,"x_min":38,"x_max":921,"o":"m 538 1025 l 754 1025 l 921 0 l 743 0 l 704 242 l 332 242 l 215 0 l 38 0 l 538 1025 m 688 396 l 621 876 l 397 396 l 688 396 m 643 1090 q 525 1128 568 1090 q 482 1243 482 1165 q 488 1296 482 1257 l 568 1296 q 565 1263 565 1271 q 590 1192 565 1215 q 654 1169 615 1169 q 739 1199 704 1169 q 785 1296 774 1229 l 867 1296 q 792 1140 850 1190 q 643 1090 733 1090 m 378 -306 q 362 -300 368 -306 q 356 -285 356 -294 l 356 -279 l 375 -154 q 406 -126 379 -126 l 485 -126 q 507 -147 507 -126 l 507 -154 l 488 -279 q 457 -306 483 -306 l 378 -306 z "},"Ằ":{"ha":957,"x_min":38,"x_max":921,"o":"m 538 1025 l 754 1025 l 921 0 l 743 0 l 704 242 l 332 242 l 215 0 l 38 0 l 538 1025 m 688 396 l 621 876 l 397 396 l 688 396 m 489 1456 l 629 1456 l 724 1263 l 622 1263 l 489 1456 m 632 1075 q 510 1106 554 1075 q 465 1203 465 1138 q 468 1238 465 1213 l 549 1238 q 547 1219 547 1231 q 574 1164 547 1182 q 640 1146 600 1146 q 767 1238 751 1146 l 849 1238 q 779 1115 836 1154 q 632 1075 722 1075 z "},"Ẳ":{"ha":957,"x_min":38,"x_max":921,"o":"m 538 1025 l 754 1025 l 921 0 l 743 0 l 704 242 l 332 242 l 215 0 l 38 0 l 538 1025 m 688 396 l 621 876 l 397 396 l 688 396 m 631 1279 q 704 1356 704 1301 q 658 1392 704 1392 q 610 1383 643 1392 l 621 1451 q 693 1463 657 1463 q 799 1371 799 1463 q 618 1203 799 1251 l 631 1279 m 632 1075 q 510 1106 554 1075 q 465 1203 465 1138 q 468 1238 465 1213 l 549 1238 q 547 1219 547 1231 q 574 1164 547 1182 q 640 1146 600 1146 q 767 1238 751 1146 l 849 1238 q 779 1115 836 1154 q 632 1075 722 1075 z "},"Ẵ":{"ha":957,"x_min":38,"x_max":925,"o":"m 538 1025 l 754 1025 l 921 0 l 743 0 l 704 242 l 332 242 l 215 0 l 38 0 l 538 1025 m 688 396 l 621 876 l 397 396 l 688 396 m 444 1288 q 501 1391 461 1363 q 600 1419 542 1419 q 645 1413 625 1419 q 697 1394 665 1407 q 737 1378 721 1383 q 769 1374 753 1374 q 817 1387 799 1374 q 839 1425 836 1400 l 925 1425 q 871 1321 908 1351 q 769 1290 833 1290 q 672 1315 731 1290 q 600 1336 625 1336 q 555 1323 574 1336 q 531 1288 536 1310 l 444 1288 m 638 1075 q 515 1106 560 1075 q 471 1201 471 1138 q 475 1238 471 1219 l 556 1238 q 554 1218 554 1231 q 581 1163 554 1181 q 647 1146 607 1146 q 772 1238 757 1146 l 856 1238 q 785 1115 842 1154 q 638 1075 728 1075 z "},"Â":{"ha":957,"x_min":38,"x_max":921,"o":"m 538 1025 l 754 1025 l 921 0 l 743 0 l 704 242 l 332 242 l 215 0 l 38 0 l 538 1025 m 688 396 l 621 876 l 397 396 l 688 396 m 613 1292 l 731 1292 l 843 1099 l 742 1099 l 657 1214 l 526 1099 l 425 1099 l 613 1292 z "},"Ấ":{"ha":957,"x_min":38,"x_max":1040,"o":"m 538 1025 l 754 1025 l 921 0 l 743 0 l 704 242 l 332 242 l 215 0 l 38 0 l 538 1025 m 688 396 l 621 876 l 397 396 l 688 396 m 907 1389 l 1040 1389 l 888 1213 l 794 1213 l 907 1389 m 617 1244 l 735 1244 l 856 1099 l 754 1099 l 661 1167 l 538 1099 l 436 1099 l 617 1244 z "},"Ậ":{"ha":957,"x_min":38,"x_max":921,"o":"m 538 1025 l 754 1025 l 921 0 l 743 0 l 704 242 l 332 242 l 215 0 l 38 0 l 538 1025 m 688 396 l 621 876 l 397 396 l 688 396 m 613 1292 l 731 1292 l 843 1099 l 742 1099 l 657 1214 l 526 1099 l 425 1099 l 613 1292 m 378 -306 q 362 -300 368 -306 q 356 -285 356 -294 l 356 -279 l 375 -154 q 406 -126 379 -126 l 485 -126 q 507 -147 507 -126 l 507 -154 l 488 -279 q 457 -306 483 -306 l 378 -306 z "},"Ầ":{"ha":957,"x_min":38,"x_max":921,"o":"m 538 1025 l 754 1025 l 921 0 l 743 0 l 704 242 l 332 242 l 215 0 l 38 0 l 538 1025 m 688 396 l 621 876 l 397 396 l 688 396 m 353 1389 l 486 1389 l 542 1213 l 449 1213 l 353 1389 m 611 1244 l 731 1244 l 850 1099 l 750 1099 l 657 1167 l 533 1099 l 432 1099 l 611 1244 z "},"Ẩ":{"ha":957,"x_min":38,"x_max":981,"o":"m 538 1025 l 754 1025 l 921 0 l 743 0 l 704 242 l 332 242 l 215 0 l 38 0 l 538 1025 m 688 396 l 621 876 l 397 396 l 688 396 m 832 1242 q 894 1307 894 1265 q 857 1335 894 1335 q 808 1326 832 1335 l 819 1396 q 889 1406 850 1406 q 981 1328 981 1406 q 821 1174 981 1217 l 832 1242 m 618 1244 l 736 1244 l 857 1099 l 756 1099 l 663 1167 l 540 1099 l 439 1099 l 618 1244 z "},"Ẫ":{"ha":957,"x_min":38,"x_max":928,"o":"m 538 1025 l 754 1025 l 921 0 l 743 0 l 704 242 l 332 242 l 215 0 l 38 0 l 538 1025 m 688 396 l 621 876 l 397 396 l 688 396 m 447 1304 q 503 1407 464 1379 q 603 1435 543 1435 q 648 1428 628 1435 q 700 1410 668 1422 q 740 1394 724 1399 q 772 1389 756 1389 q 819 1403 800 1389 q 842 1442 838 1417 l 928 1442 q 874 1337 911 1368 q 772 1306 836 1306 q 728 1312 749 1306 q 674 1331 707 1318 q 601 1351 626 1351 q 556 1339 575 1351 q 533 1304 538 1326 l 447 1304 m 619 1244 l 738 1244 l 857 1099 l 756 1099 l 663 1167 l 539 1099 l 438 1099 l 619 1244 z "},"Ȁ":{"ha":957,"x_min":38,"x_max":921,"o":"m 538 1025 l 754 1025 l 921 0 l 743 0 l 704 242 l 332 242 l 215 0 l 38 0 l 538 1025 m 688 396 l 621 876 l 397 396 l 688 396 m 356 1292 l 496 1292 l 590 1099 l 489 1099 l 356 1292 m 588 1292 l 728 1292 l 822 1099 l 721 1099 l 588 1292 z "},"Ä":{"ha":957,"x_min":38,"x_max":921,"o":"m 538 1025 l 754 1025 l 921 0 l 743 0 l 704 242 l 332 242 l 215 0 l 38 0 l 538 1025 m 688 396 l 621 876 l 397 396 l 688 396 m 457 1115 q 441 1121 447 1115 q 435 1136 435 1126 q 456 1267 435 1132 q 486 1294 460 1294 l 565 1294 q 588 1274 588 1294 l 567 1142 q 536 1115 565 1115 l 457 1115 m 738 1115 q 722 1121 728 1115 q 715 1136 715 1126 l 736 1267 q 765 1294 740 1294 l 846 1294 q 868 1274 868 1294 q 847 1142 868 1279 q 817 1115 843 1115 l 738 1115 z "},"Ạ":{"ha":957,"x_min":38,"x_max":921,"o":"m 538 1025 l 754 1025 l 921 0 l 743 0 l 704 242 l 332 242 l 215 0 l 38 0 l 538 1025 m 688 396 l 621 876 l 397 396 l 688 396 m 378 -306 q 362 -300 368 -306 q 356 -285 356 -294 l 356 -279 l 375 -154 q 406 -126 379 -126 l 485 -126 q 507 -147 507 -126 l 507 -154 l 488 -279 q 457 -306 483 -306 l 378 -306 z "},"À":{"ha":957,"x_min":38,"x_max":921,"o":"m 538 1025 l 754 1025 l 921 0 l 743 0 l 704 242 l 332 242 l 215 0 l 38 0 l 538 1025 m 688 396 l 621 876 l 397 396 l 688 396 m 492 1292 l 632 1292 l 726 1099 l 625 1099 l 492 1292 z "},"Ả":{"ha":957,"x_min":38,"x_max":921,"o":"m 538 1025 l 754 1025 l 921 0 l 743 0 l 704 242 l 332 242 l 215 0 l 38 0 l 538 1025 m 688 396 l 621 876 l 397 396 l 688 396 m 622 1142 q 696 1218 696 1164 q 650 1254 696 1254 q 601 1246 635 1254 l 613 1314 q 685 1325 649 1325 q 790 1233 790 1325 q 610 1065 790 1114 l 622 1142 z "},"Ȃ":{"ha":957,"x_min":38,"x_max":921,"o":"m 538 1025 l 754 1025 l 921 0 l 743 0 l 704 242 l 332 242 l 215 0 l 38 0 l 538 1025 m 688 396 l 621 876 l 397 396 l 688 396 m 461 1093 q 536 1249 478 1199 q 685 1299 594 1299 q 803 1261 760 1299 q 846 1146 846 1224 q 840 1093 846 1132 l 760 1093 q 763 1126 763 1118 q 738 1197 763 1175 q 672 1219 713 1219 q 589 1190 624 1219 q 543 1093 554 1160 l 461 1093 z "},"Ā":{"ha":957,"x_min":38,"x_max":921,"o":"m 538 1025 l 754 1025 l 921 0 l 743 0 l 704 242 l 332 242 l 215 0 l 38 0 l 538 1025 m 688 396 l 621 876 l 397 396 l 688 396 m 476 1235 l 860 1235 l 843 1133 l 460 1133 l 476 1235 z "},"Ą":{"ha":957,"x_min":38,"x_max":921,"o":"m 538 1025 l 754 1025 l 921 0 l 743 0 l 704 242 l 332 242 l 215 0 l 38 0 l 538 1025 m 688 396 l 621 876 l 397 396 l 688 396 m 751 -264 q 655 -235 688 -264 q 622 -160 622 -206 q 653 -69 622 -111 q 742 0 683 -28 l 806 0 q 737 -57 760 -25 q 714 -114 714 -89 q 735 -161 714 -144 q 796 -178 757 -178 l 807 -178 l 793 -260 q 751 -264 778 -264 z "},"Å":{"ha":957,"x_min":38,"x_max":921,"o":"m 538 1025 l 754 1025 l 921 0 l 743 0 l 704 242 l 332 242 l 215 0 l 38 0 l 538 1025 m 688 396 l 621 876 l 397 396 l 688 396 m 650 1067 q 539 1097 578 1067 q 500 1199 500 1128 q 551 1325 500 1274 q 690 1376 601 1376 q 838 1246 838 1376 q 788 1117 838 1168 q 650 1067 739 1067 m 657 1132 q 731 1163 706 1132 q 756 1242 756 1194 q 683 1311 756 1311 q 608 1279 633 1311 q 582 1201 582 1247 q 657 1132 582 1132 z "},"Ǻ":{"ha":957,"x_min":38,"x_max":921,"o":"m 650 1067 q 539 1097 578 1067 q 500 1199 500 1128 q 541 1315 500 1265 q 656 1374 582 1364 l 771 1525 l 919 1525 l 764 1365 q 838 1246 838 1339 q 788 1117 838 1168 q 650 1067 739 1067 m 683 1311 q 608 1279 633 1311 q 582 1201 582 1247 q 657 1132 582 1132 q 731 1163 706 1132 q 756 1242 756 1194 q 683 1311 756 1311 m 921 0 l 743 0 l 704 242 l 332 242 l 215 0 l 38 0 l 538 1025 l 754 1025 l 921 0 m 688 396 l 621 876 l 397 396 l 688 396 z "},"Ã":{"ha":957,"x_min":38,"x_max":939,"o":"m 538 1025 l 754 1025 l 921 0 l 743 0 l 704 242 l 332 242 l 215 0 l 38 0 l 538 1025 m 688 396 l 621 876 l 397 396 l 688 396 m 410 1111 q 472 1235 428 1197 q 576 1274 517 1274 q 632 1265 607 1274 q 693 1238 657 1256 q 740 1215 722 1222 q 776 1208 758 1208 q 827 1226 807 1208 q 853 1279 847 1244 l 939 1279 q 879 1153 919 1194 q 775 1113 839 1113 q 722 1122 747 1113 q 657 1149 697 1131 q 609 1171 628 1164 q 572 1178 590 1178 q 523 1160 544 1178 q 496 1111 501 1142 l 410 1111 z "},"Æ":{"ha":1339,"x_min":22,"x_max":1440,"o":"m 882 -7 q 730 23 782 -7 q 678 131 678 53 l 679 153 l 690 240 l 378 240 l 193 0 l 22 0 l 593 789 q 793 973 688 921 q 1038 1025 899 1025 q 1440 1010 1208 1025 l 1417 867 l 1053 867 q 975 854 1000 867 q 942 819 950 842 q 926 744 935 796 l 901 588 l 1308 578 l 1286 443 l 876 433 l 849 257 q 846 229 846 238 q 876 169 846 183 q 956 154 906 154 l 1304 154 l 1282 13 q 1063 -1 1190 4 q 882 -7 935 -7 m 714 388 l 781 808 l 479 388 l 714 388 z "},"Ǽ":{"ha":1339,"x_min":22,"x_max":1440,"o":"m 882 -7 q 730 23 782 -7 q 678 131 678 53 l 679 153 l 690 240 l 378 240 l 193 0 l 22 0 l 593 789 q 793 973 688 921 q 1038 1025 899 1025 q 1440 1010 1208 1025 l 1417 867 l 1053 867 q 975 854 1000 867 q 942 819 950 842 q 926 744 935 796 l 901 588 l 1308 578 l 1286 443 l 876 433 l 849 257 q 846 229 846 238 q 876 169 846 183 q 956 154 906 154 l 1304 154 l 1282 13 q 1063 -1 1190 4 q 882 -7 935 -7 m 714 388 l 781 808 l 479 388 l 714 388 m 981 1292 l 1129 1292 l 942 1099 l 833 1099 l 981 1292 z "},"B":{"ha":872,"x_min":92,"x_max":894,"o":"m 253 1025 l 636 1025 q 835 972 776 1025 q 894 819 894 919 q 889 749 894 782 q 826 608 876 665 q 700 535 775 551 q 850 329 850 493 q 842 246 850 286 q 731 59 819 118 q 485 0 642 0 l 92 0 l 253 1025 m 574 593 q 718 718 690 593 q 725 775 725 756 q 694 848 725 825 q 601 871 663 871 l 401 871 l 357 593 l 574 593 m 507 154 q 629 190 589 154 q 685 301 669 225 q 688 346 688 318 q 653 431 688 401 q 554 461 619 461 l 336 461 l 288 154 l 507 154 z "},"Ḃ":{"ha":872,"x_min":92,"x_max":894,"o":"m 253 1025 l 636 1025 q 835 972 776 1025 q 894 819 894 919 q 889 749 894 782 q 826 608 876 665 q 700 535 775 551 q 850 329 850 493 q 842 246 850 286 q 731 59 819 118 q 485 0 642 0 l 92 0 l 253 1025 m 574 593 q 718 718 690 593 q 725 775 725 756 q 694 848 725 825 q 601 871 663 871 l 401 871 l 357 593 l 574 593 m 507 154 q 629 190 589 154 q 685 301 669 225 q 688 346 688 318 q 653 431 688 401 q 554 461 619 461 l 336 461 l 288 154 l 507 154 m 519 1125 q 503 1131 510 1125 q 497 1146 497 1136 l 497 1151 l 517 1276 q 547 1304 521 1304 l 626 1304 q 649 1283 649 1304 l 649 1276 l 629 1151 q 599 1125 625 1125 l 519 1125 z "},"C":{"ha":821,"x_min":136,"x_max":907,"o":"m 457 -8 q 136 331 136 -8 q 154 542 136 429 q 293 912 193 790 q 582 1033 393 1033 q 907 982 753 1033 l 885 847 q 611 879 740 879 q 475 847 529 879 q 385 735 421 815 q 325 508 349 654 q 307 329 307 404 q 351 189 307 232 q 503 146 396 146 q 651 150 592 146 q 776 164 711 154 l 754 29 q 457 -8 636 -8 z "},"Ć":{"ha":821,"x_min":136,"x_max":907,"o":"m 457 -8 q 136 331 136 -8 q 154 542 136 429 q 293 912 193 790 q 582 1033 393 1033 q 907 982 753 1033 l 885 847 q 611 879 740 879 q 475 847 529 879 q 385 735 421 815 q 325 508 349 654 q 307 329 307 404 q 351 189 307 232 q 503 146 396 146 q 651 150 592 146 q 776 164 711 154 l 754 29 q 457 -8 636 -8 m 697 1292 l 846 1292 l 658 1099 l 550 1099 l 697 1292 z "},"Č":{"ha":821,"x_min":136,"x_max":907,"o":"m 457 -8 q 136 331 136 -8 q 154 542 136 429 q 293 912 193 790 q 582 1033 393 1033 q 907 982 753 1033 l 885 847 q 611 879 740 879 q 475 847 529 879 q 385 735 421 815 q 325 508 349 654 q 307 329 307 404 q 351 189 307 232 q 503 146 396 146 q 651 150 592 146 q 776 164 711 154 l 754 29 q 457 -8 636 -8 m 461 1292 l 561 1292 l 647 1176 l 778 1292 l 879 1292 l 692 1099 l 572 1099 l 461 1292 z "},"Ç":{"ha":821,"x_min":136,"x_max":907,"o":"m 611 879 q 475 847 529 879 q 385 735 421 815 q 325 508 349 654 q 307 329 307 404 q 351 189 307 232 q 503 146 396 146 q 651 150 592 146 q 776 164 711 154 l 754 29 q 479 -8 642 -6 l 422 -79 q 507 -158 507 -86 q 465 -241 507 -206 q 346 -276 424 -276 l 286 -276 l 297 -206 l 325 -203 q 378 -179 360 -199 q 397 -140 397 -160 q 332 -94 397 -101 l 403 -6 q 136 331 136 22 q 154 542 136 429 q 293 912 193 790 q 582 1033 393 1033 q 907 982 753 1033 l 885 847 q 611 879 740 879 z "},"Ḉ":{"ha":821,"x_min":136,"x_max":907,"o":"m 658 1099 l 550 1099 l 697 1292 l 846 1292 l 658 1099 m 611 879 q 475 847 529 879 q 385 735 421 815 q 325 508 349 654 q 307 329 307 404 q 351 189 307 232 q 503 146 396 146 q 651 150 592 146 q 776 164 711 154 l 754 29 q 479 -8 642 -6 l 422 -79 q 507 -158 507 -86 q 465 -241 507 -206 q 346 -276 424 -276 l 286 -276 l 297 -206 l 325 -203 q 378 -179 360 -199 q 397 -140 397 -160 q 332 -94 397 -101 l 403 -6 q 136 331 136 22 q 154 542 136 429 q 293 912 193 790 q 582 1033 393 1033 q 907 982 753 1033 l 885 847 q 611 879 740 879 z "},"Ĉ":{"ha":821,"x_min":136,"x_max":907,"o":"m 457 -8 q 136 331 136 -8 q 154 542 136 429 q 293 912 193 790 q 582 1033 393 1033 q 907 982 753 1033 l 885 847 q 611 879 740 879 q 475 847 529 879 q 385 735 421 815 q 325 508 349 654 q 307 329 307 404 q 351 189 307 232 q 503 146 396 146 q 651 150 592 146 q 776 164 711 154 l 754 29 q 457 -8 636 -8 m 579 1292 l 697 1292 l 810 1099 l 708 1099 l 624 1214 l 493 1099 l 392 1099 l 579 1292 z "},"Ċ":{"ha":821,"x_min":136,"x_max":907,"o":"m 457 -8 q 136 331 136 -8 q 154 542 136 429 q 293 912 193 790 q 582 1033 393 1033 q 907 982 753 1033 l 885 847 q 611 879 740 879 q 475 847 529 879 q 385 735 421 815 q 325 508 349 654 q 307 329 307 404 q 351 189 307 232 q 503 146 396 146 q 651 150 592 146 q 776 164 711 154 l 754 29 q 457 -8 636 -8 m 576 1125 q 560 1131 567 1125 q 554 1146 554 1136 l 554 1151 l 574 1276 q 604 1304 578 1304 l 683 1304 q 706 1283 706 1304 l 706 1276 l 686 1151 q 656 1125 682 1125 l 576 1125 z "},"D":{"ha":947,"x_min":90,"x_max":971,"o":"m 253 1025 l 635 1025 q 896 935 821 1025 q 971 668 971 846 q 956 485 971 581 q 800 120 917 240 q 472 0 683 0 l 90 0 l 253 1025 m 489 154 q 686 247 617 154 q 783 514 756 339 q 799 663 799 613 q 753 822 799 774 q 593 871 707 871 l 400 871 l 288 154 l 489 154 z "},"Ð":{"ha":947,"x_min":79,"x_max":971,"o":"m 635 1025 q 896 935 821 1025 q 971 668 971 846 q 956 485 971 581 q 800 120 917 240 q 472 0 683 0 l 90 0 l 164 461 l 79 461 l 99 575 l 182 575 l 253 1025 l 635 1025 m 783 514 q 799 663 799 613 q 753 822 799 774 q 593 871 707 871 l 400 871 l 354 575 l 549 575 l 529 461 l 336 461 l 288 154 l 489 154 q 686 247 617 154 q 783 514 756 339 z "},"Ď":{"ha":947,"x_min":90,"x_max":971,"o":"m 253 1025 l 635 1025 q 896 935 821 1025 q 971 668 971 846 q 956 485 971 581 q 800 120 917 240 q 472 0 683 0 l 90 0 l 253 1025 m 489 154 q 686 247 617 154 q 783 514 756 339 q 799 663 799 613 q 753 822 799 774 q 593 871 707 871 l 400 871 l 288 154 l 489 154 m 447 1292 l 547 1292 l 633 1176 l 764 1292 l 865 1292 l 678 1099 l 558 1099 l 447 1292 z "},"Đ":{"ha":947,"x_min":79,"x_max":971,"o":"m 635 1025 q 896 935 821 1025 q 971 668 971 846 q 956 485 971 581 q 800 120 917 240 q 472 0 683 0 l 90 0 l 164 461 l 79 461 l 99 575 l 182 575 l 253 1025 l 635 1025 m 783 514 q 799 663 799 613 q 753 822 799 774 q 593 871 707 871 l 400 871 l 354 575 l 549 575 l 529 461 l 336 461 l 288 154 l 489 154 q 686 247 617 154 q 783 514 756 339 z "},"Ḋ":{"ha":947,"x_min":90,"x_max":971,"o":"m 253 1025 l 635 1025 q 896 935 821 1025 q 971 668 971 846 q 956 485 971 581 q 800 120 917 240 q 472 0 683 0 l 90 0 l 253 1025 m 489 154 q 686 247 617 154 q 783 514 756 339 q 799 663 799 613 q 753 822 799 774 q 593 871 707 871 l 400 871 l 288 154 l 489 154 m 563 1125 q 547 1131 553 1125 q 540 1146 540 1136 l 540 1151 l 560 1276 q 590 1304 564 1304 l 669 1304 q 692 1283 692 1304 l 692 1276 l 672 1151 q 642 1125 668 1125 l 563 1125 z "},"Ḍ":{"ha":947,"x_min":90,"x_max":971,"o":"m 253 1025 l 635 1025 q 896 935 821 1025 q 971 668 971 846 q 956 485 971 581 q 800 120 917 240 q 472 0 683 0 l 90 0 l 253 1025 m 489 154 q 686 247 617 154 q 783 514 756 339 q 799 663 799 613 q 753 822 799 774 q 593 871 707 871 l 400 871 l 288 154 l 489 154 m 331 -306 q 315 -300 321 -306 q 308 -285 308 -294 l 308 -279 l 328 -154 q 358 -126 332 -126 l 438 -126 q 460 -147 460 -126 l 460 -154 l 440 -279 q 410 -306 436 -306 l 331 -306 z "},"Ḏ":{"ha":947,"x_min":90,"x_max":971,"o":"m 253 1025 l 635 1025 q 896 935 821 1025 q 971 668 971 846 q 956 485 971 581 q 800 120 917 240 q 472 0 683 0 l 90 0 l 253 1025 m 489 154 q 686 247 617 154 q 783 514 756 339 q 799 663 799 613 q 753 822 799 774 q 593 871 707 871 l 400 871 l 288 154 l 489 154 m 193 -182 l 576 -182 l 560 -283 l 176 -283 l 193 -182 z "},"E":{"ha":817,"x_min":119,"x_max":896,"o":"m 329 -8 q 181 30 243 -8 q 119 165 119 68 q 124 214 119 188 l 218 801 q 304 972 236 919 q 474 1025 372 1025 q 896 1010 631 1025 l 874 867 l 501 867 q 420 841 449 867 q 382 758 392 815 l 356 590 l 763 579 l 742 444 l 331 435 l 304 257 q 301 228 301 235 q 325 170 301 188 q 396 153 349 153 l 763 153 l 739 10 q 329 -8 478 -7 z "},"É":{"ha":817,"x_min":119,"x_max":896,"o":"m 329 -8 q 181 30 243 -8 q 119 165 119 68 q 124 214 119 188 l 218 801 q 304 972 236 919 q 474 1025 372 1025 q 896 1010 631 1025 l 874 867 l 501 867 q 420 841 449 867 q 382 758 392 815 l 356 590 l 763 579 l 742 444 l 331 435 l 304 257 q 301 228 301 235 q 325 170 301 188 q 396 153 349 153 l 763 153 l 739 10 q 329 -8 478 -7 m 674 1292 l 822 1292 l 635 1099 l 526 1099 l 674 1292 z "},"Ĕ":{"ha":817,"x_min":119,"x_max":896,"o":"m 329 -8 q 181 30 243 -8 q 119 165 119 68 q 124 214 119 188 l 218 801 q 304 972 236 919 q 474 1025 372 1025 q 896 1010 631 1025 l 874 867 l 501 867 q 420 841 449 867 q 382 758 392 815 l 356 590 l 763 579 l 742 444 l 331 435 l 304 257 q 301 228 301 235 q 325 170 301 188 q 396 153 349 153 l 763 153 l 739 10 q 329 -8 478 -7 m 586 1090 q 468 1128 511 1090 q 425 1243 425 1165 q 431 1296 425 1257 l 511 1296 q 508 1263 508 1271 q 533 1192 508 1215 q 597 1169 558 1169 q 682 1199 647 1169 q 728 1296 717 1229 l 810 1296 q 735 1140 793 1190 q 586 1090 676 1090 z "},"Ě":{"ha":817,"x_min":119,"x_max":896,"o":"m 329 -8 q 181 30 243 -8 q 119 165 119 68 q 124 214 119 188 l 218 801 q 304 972 236 919 q 474 1025 372 1025 q 896 1010 631 1025 l 874 867 l 501 867 q 420 841 449 867 q 382 758 392 815 l 356 590 l 763 579 l 742 444 l 331 435 l 304 257 q 301 228 301 235 q 325 170 301 188 q 396 153 349 153 l 763 153 l 739 10 q 329 -8 478 -7 m 438 1292 l 538 1292 l 624 1176 l 754 1292 l 856 1292 l 668 1099 l 549 1099 l 438 1292 z "},"Ḝ":{"ha":817,"x_min":119,"x_max":896,"o":"m 586 1090 q 468 1128 511 1090 q 425 1243 425 1165 q 431 1296 425 1257 l 511 1296 q 508 1263 508 1271 q 533 1192 508 1215 q 597 1169 558 1169 q 682 1199 647 1169 q 728 1296 717 1229 l 810 1296 q 735 1140 793 1190 q 586 1090 676 1090 m 501 867 q 420 841 449 867 q 382 758 392 815 l 356 590 l 763 579 l 742 444 l 331 435 l 304 257 q 301 228 301 235 q 325 170 301 188 q 396 153 349 153 l 763 153 l 739 10 l 675 6 q 447 -6 531 -3 l 388 -79 q 472 -158 472 -86 q 431 -241 472 -206 q 311 -276 389 -276 l 251 -276 l 263 -206 l 290 -203 q 344 -179 325 -199 q 363 -140 363 -160 q 297 -94 363 -101 l 367 -8 l 329 -8 q 181 30 243 -8 q 119 165 119 68 q 124 214 119 188 l 218 801 q 304 972 236 919 q 474 1025 372 1025 q 896 1010 631 1025 l 874 867 l 501 867 z "},"Ê":{"ha":817,"x_min":119,"x_max":896,"o":"m 329 -8 q 181 30 243 -8 q 119 165 119 68 q 124 214 119 188 l 218 801 q 304 972 236 919 q 474 1025 372 1025 q 896 1010 631 1025 l 874 867 l 501 867 q 420 841 449 867 q 382 758 392 815 l 356 590 l 763 579 l 742 444 l 331 435 l 304 257 q 301 228 301 235 q 325 170 301 188 q 396 153 349 153 l 763 153 l 739 10 q 329 -8 478 -7 m 556 1292 l 674 1292 l 786 1099 l 685 1099 l 600 1214 l 469 1099 l 368 1099 l 556 1292 z "},"Ế":{"ha":817,"x_min":119,"x_max":982,"o":"m 329 -8 q 181 30 243 -8 q 119 165 119 68 q 124 214 119 188 l 218 801 q 304 972 236 919 q 474 1025 372 1025 q 896 1010 631 1025 l 874 867 l 501 867 q 420 841 449 867 q 382 758 392 815 l 356 590 l 763 579 l 742 444 l 331 435 l 304 257 q 301 228 301 235 q 325 170 301 188 q 396 153 349 153 l 763 153 l 739 10 q 329 -8 478 -7 m 849 1389 l 982 1389 l 829 1213 l 736 1213 l 849 1389 m 558 1244 l 676 1244 l 797 1099 l 696 1099 l 603 1167 l 479 1099 l 378 1099 l 558 1244 z "},"Ệ":{"ha":817,"x_min":119,"x_max":896,"o":"m 329 -8 q 181 30 243 -8 q 119 165 119 68 q 124 214 119 188 l 218 801 q 304 972 236 919 q 474 1025 372 1025 q 896 1010 631 1025 l 874 867 l 501 867 q 420 841 449 867 q 382 758 392 815 l 356 590 l 763 579 l 742 444 l 331 435 l 304 257 q 301 228 301 235 q 325 170 301 188 q 396 153 349 153 l 763 153 l 739 10 q 329 -8 478 -7 m 556 1292 l 674 1292 l 786 1099 l 685 1099 l 600 1214 l 469 1099 l 368 1099 l 556 1292 m 321 -306 q 305 -300 311 -306 q 299 -285 299 -294 l 299 -279 l 318 -154 q 349 -126 322 -126 l 428 -126 q 450 -147 450 -126 l 450 -154 l 431 -279 q 400 -306 426 -306 l 321 -306 z "},"Ề":{"ha":817,"x_min":119,"x_max":896,"o":"m 329 -8 q 181 30 243 -8 q 119 165 119 68 q 124 214 119 188 l 218 801 q 304 972 236 919 q 474 1025 372 1025 q 896 1010 631 1025 l 874 867 l 501 867 q 420 841 449 867 q 382 758 392 815 l 356 590 l 763 579 l 742 444 l 331 435 l 304 257 q 301 228 301 235 q 325 170 301 188 q 396 153 349 153 l 763 153 l 739 10 q 329 -8 478 -7 m 294 1389 l 428 1389 l 483 1213 l 390 1213 l 294 1389 m 553 1244 l 672 1244 l 792 1099 l 692 1099 l 599 1167 l 475 1099 l 374 1099 l 553 1244 z "},"Ể":{"ha":817,"x_min":119,"x_max":922,"o":"m 329 -8 q 181 30 243 -8 q 119 165 119 68 q 124 214 119 188 l 218 801 q 304 972 236 919 q 474 1025 372 1025 q 896 1010 631 1025 l 874 867 l 501 867 q 420 841 449 867 q 382 758 392 815 l 356 590 l 763 579 l 742 444 l 331 435 l 304 257 q 301 228 301 235 q 325 170 301 188 q 396 153 349 153 l 763 153 l 739 10 q 329 -8 478 -7 m 774 1242 q 836 1307 836 1265 q 799 1335 836 1335 q 750 1326 774 1335 l 761 1396 q 831 1406 792 1406 q 922 1328 922 1406 q 763 1174 922 1217 l 774 1242 m 560 1244 l 678 1244 l 799 1099 l 697 1099 l 604 1167 l 482 1099 l 381 1099 l 560 1244 z "},"Ễ":{"ha":817,"x_min":119,"x_max":896,"o":"m 329 -8 q 181 30 243 -8 q 119 165 119 68 q 124 214 119 188 l 218 801 q 304 972 236 919 q 474 1025 372 1025 q 896 1010 631 1025 l 874 867 l 501 867 q 420 841 449 867 q 382 758 392 815 l 356 590 l 763 579 l 742 444 l 331 435 l 304 257 q 301 228 301 235 q 325 170 301 188 q 396 153 349 153 l 763 153 l 739 10 q 329 -8 478 -7 m 389 1304 q 445 1407 406 1379 q 544 1435 485 1435 q 590 1428 569 1435 q 642 1410 610 1422 q 681 1394 665 1399 q 714 1389 697 1389 q 760 1403 742 1389 q 783 1442 779 1417 l 869 1442 q 815 1337 853 1368 q 714 1306 778 1306 q 669 1312 690 1306 q 615 1331 649 1318 q 543 1351 568 1351 q 498 1339 517 1351 q 475 1304 479 1326 l 389 1304 m 561 1244 l 679 1244 l 799 1099 l 697 1099 l 604 1167 l 481 1099 l 379 1099 l 561 1244 z "},"Ȅ":{"ha":817,"x_min":119,"x_max":896,"o":"m 329 -8 q 181 30 243 -8 q 119 165 119 68 q 124 214 119 188 l 218 801 q 304 972 236 919 q 474 1025 372 1025 q 896 1010 631 1025 l 874 867 l 501 867 q 420 841 449 867 q 382 758 392 815 l 356 590 l 763 579 l 742 444 l 331 435 l 304 257 q 301 228 301 235 q 325 170 301 188 q 396 153 349 153 l 763 153 l 739 10 q 329 -8 478 -7 m 299 1292 l 439 1292 l 533 1099 l 432 1099 l 299 1292 m 531 1292 l 671 1292 l 765 1099 l 664 1099 l 531 1292 z "},"Ë":{"ha":817,"x_min":119,"x_max":896,"o":"m 329 -8 q 181 30 243 -8 q 119 165 119 68 q 124 214 119 188 l 218 801 q 304 972 236 919 q 474 1025 372 1025 q 896 1010 631 1025 l 874 867 l 501 867 q 420 841 449 867 q 382 758 392 815 l 356 590 l 763 579 l 742 444 l 331 435 l 304 257 q 301 228 301 235 q 325 170 301 188 q 396 153 349 153 l 763 153 l 739 10 q 329 -8 478 -7 m 400 1115 q 384 1121 390 1115 q 378 1136 378 1126 q 399 1267 378 1132 q 429 1294 403 1294 l 508 1294 q 531 1274 531 1294 l 510 1142 q 479 1115 508 1115 l 400 1115 m 681 1115 q 665 1121 671 1115 q 658 1136 658 1126 l 679 1267 q 708 1294 683 1294 l 789 1294 q 811 1274 811 1294 q 790 1142 811 1279 q 760 1115 786 1115 l 681 1115 z "},"Ė":{"ha":817,"x_min":119,"x_max":896,"o":"m 329 -8 q 181 30 243 -8 q 119 165 119 68 q 124 214 119 188 l 218 801 q 304 972 236 919 q 474 1025 372 1025 q 896 1010 631 1025 l 874 867 l 501 867 q 420 841 449 867 q 382 758 392 815 l 356 590 l 763 579 l 742 444 l 331 435 l 304 257 q 301 228 301 235 q 325 170 301 188 q 396 153 349 153 l 763 153 l 739 10 q 329 -8 478 -7 m 553 1125 q 537 1131 543 1125 q 531 1146 531 1136 l 531 1151 l 550 1276 q 581 1304 554 1304 l 660 1304 q 682 1283 682 1304 l 682 1276 l 663 1151 q 632 1125 658 1125 l 553 1125 z "},"Ẹ":{"ha":817,"x_min":119,"x_max":896,"o":"m 329 -8 q 181 30 243 -8 q 119 165 119 68 q 124 214 119 188 l 218 801 q 304 972 236 919 q 474 1025 372 1025 q 896 1010 631 1025 l 874 867 l 501 867 q 420 841 449 867 q 382 758 392 815 l 356 590 l 763 579 l 742 444 l 331 435 l 304 257 q 301 228 301 235 q 325 170 301 188 q 396 153 349 153 l 763 153 l 739 10 q 329 -8 478 -7 m 321 -306 q 305 -300 311 -306 q 299 -285 299 -294 l 299 -279 l 318 -154 q 349 -126 322 -126 l 428 -126 q 450 -147 450 -126 l 450 -154 l 431 -279 q 400 -306 426 -306 l 321 -306 z "},"È":{"ha":817,"x_min":119,"x_max":896,"o":"m 329 -8 q 181 30 243 -8 q 119 165 119 68 q 124 214 119 188 l 218 801 q 304 972 236 919 q 474 1025 372 1025 q 896 1010 631 1025 l 874 867 l 501 867 q 420 841 449 867 q 382 758 392 815 l 356 590 l 763 579 l 742 444 l 331 435 l 304 257 q 301 228 301 235 q 325 170 301 188 q 396 153 349 153 l 763 153 l 739 10 q 329 -8 478 -7 m 435 1292 l 575 1292 l 669 1099 l 568 1099 l 435 1292 z "},"Ẻ":{"ha":817,"x_min":119,"x_max":896,"o":"m 329 -8 q 181 30 243 -8 q 119 165 119 68 q 124 214 119 188 l 218 801 q 304 972 236 919 q 474 1025 372 1025 q 896 1010 631 1025 l 874 867 l 501 867 q 420 841 449 867 q 382 758 392 815 l 356 590 l 763 579 l 742 444 l 331 435 l 304 257 q 301 228 301 235 q 325 170 301 188 q 396 153 349 153 l 763 153 l 739 10 q 329 -8 478 -7 m 565 1142 q 639 1218 639 1164 q 593 1254 639 1254 q 544 1246 578 1254 l 556 1314 q 628 1325 592 1325 q 733 1233 733 1325 q 553 1065 733 1114 l 565 1142 z "},"Ȇ":{"ha":817,"x_min":119,"x_max":896,"o":"m 329 -8 q 181 30 243 -8 q 119 165 119 68 q 124 214 119 188 l 218 801 q 304 972 236 919 q 474 1025 372 1025 q 896 1010 631 1025 l 874 867 l 501 867 q 420 841 449 867 q 382 758 392 815 l 356 590 l 763 579 l 742 444 l 331 435 l 304 257 q 301 228 301 235 q 325 170 301 188 q 396 153 349 153 l 763 153 l 739 10 q 329 -8 478 -7 m 404 1093 q 479 1249 421 1199 q 628 1299 538 1299 q 746 1261 703 1299 q 789 1146 789 1224 q 783 1093 789 1132 l 703 1093 q 706 1126 706 1118 q 681 1197 706 1175 q 615 1219 656 1219 q 532 1190 567 1219 q 486 1093 497 1160 l 404 1093 z "},"Ē":{"ha":817,"x_min":119,"x_max":896,"o":"m 329 -8 q 181 30 243 -8 q 119 165 119 68 q 124 214 119 188 l 218 801 q 304 972 236 919 q 474 1025 372 1025 q 896 1010 631 1025 l 874 867 l 501 867 q 420 841 449 867 q 382 758 392 815 l 356 590 l 763 579 l 742 444 l 331 435 l 304 257 q 301 228 301 235 q 325 170 301 188 q 396 153 349 153 l 763 153 l 739 10 q 329 -8 478 -7 m 419 1235 l 803 1235 l 786 1133 l 403 1133 l 419 1235 z "},"Ḗ":{"ha":817,"x_min":119,"x_max":896,"o":"m 329 -8 q 181 30 243 -8 q 119 165 119 68 q 124 214 119 188 l 218 801 q 304 972 236 919 q 474 1025 372 1025 q 896 1010 631 1025 l 874 867 l 501 867 q 420 841 449 867 q 382 758 392 815 l 356 590 l 763 579 l 742 444 l 331 435 l 304 257 q 301 228 301 235 q 325 170 301 188 q 396 153 349 153 l 763 153 l 739 10 q 329 -8 478 -7 m 419 1235 l 803 1235 l 786 1133 l 403 1133 l 419 1235 m 693 1492 l 842 1492 l 654 1299 l 546 1299 l 693 1492 z "},"Ḕ":{"ha":817,"x_min":119,"x_max":896,"o":"m 329 -8 q 181 30 243 -8 q 119 165 119 68 q 124 214 119 188 l 218 801 q 304 972 236 919 q 474 1025 372 1025 q 896 1010 631 1025 l 874 867 l 501 867 q 420 841 449 867 q 382 758 392 815 l 356 590 l 763 579 l 742 444 l 331 435 l 304 257 q 301 228 301 235 q 325 170 301 188 q 396 153 349 153 l 763 153 l 739 10 q 329 -8 478 -7 m 419 1235 l 803 1235 l 786 1133 l 403 1133 l 419 1235 m 426 1492 l 567 1492 l 661 1299 l 560 1299 l 426 1492 z "},"Ę":{"ha":817,"x_min":119,"x_max":896,"o":"m 501 867 q 420 841 449 867 q 382 758 392 815 l 356 590 l 763 579 l 742 444 l 331 435 l 304 257 q 301 228 301 235 q 325 170 301 188 q 396 153 349 153 l 763 153 l 739 10 q 670 -47 693 -15 q 647 -104 647 -79 q 669 -151 647 -135 q 729 -168 690 -168 l 740 -168 l 726 -250 q 685 -254 713 -254 q 588 -225 621 -254 q 556 -150 556 -196 q 584 -63 556 -104 q 665 6 613 -22 q 329 -8 478 -7 q 181 30 243 -8 q 119 165 119 68 q 124 214 119 188 l 218 801 q 304 972 236 919 q 474 1025 372 1025 q 896 1010 631 1025 l 874 867 l 501 867 z "},"Ẽ":{"ha":817,"x_min":119,"x_max":896,"o":"m 329 -8 q 181 30 243 -8 q 119 165 119 68 q 124 214 119 188 l 218 801 q 304 972 236 919 q 474 1025 372 1025 q 896 1010 631 1025 l 874 867 l 501 867 q 420 841 449 867 q 382 758 392 815 l 356 590 l 763 579 l 742 444 l 331 435 l 304 257 q 301 228 301 235 q 325 170 301 188 q 396 153 349 153 l 763 153 l 739 10 q 329 -8 478 -7 m 353 1111 q 415 1235 371 1197 q 519 1274 460 1274 q 575 1265 550 1274 q 636 1238 600 1256 q 683 1215 665 1222 q 719 1208 701 1208 q 770 1226 750 1208 q 796 1279 790 1244 l 882 1279 q 822 1153 863 1194 q 718 1113 782 1113 q 665 1122 690 1113 q 600 1149 640 1131 q 552 1171 571 1164 q 515 1178 533 1178 q 466 1160 488 1178 q 439 1111 444 1142 l 353 1111 z "},"F":{"ha":778,"x_min":90,"x_max":894,"o":"m 218 801 q 471 1025 254 1025 q 894 1010 647 1025 l 872 867 l 499 867 q 419 841 446 867 q 382 760 392 815 l 351 565 l 760 554 l 738 419 l 328 410 l 263 0 l 90 0 l 218 801 z "},"Ḟ":{"ha":778,"x_min":90,"x_max":894,"o":"m 218 801 q 471 1025 254 1025 q 894 1010 647 1025 l 872 867 l 499 867 q 419 841 446 867 q 382 760 392 815 l 351 565 l 760 554 l 738 419 l 328 410 l 263 0 l 90 0 l 218 801 m 554 1125 q 538 1131 544 1125 q 532 1146 532 1136 l 532 1151 l 551 1276 q 582 1304 556 1304 l 661 1304 q 683 1283 683 1304 l 683 1276 l 664 1151 q 633 1125 660 1125 l 554 1125 z "},"G":{"ha":908,"x_min":133,"x_max":942,"o":"m 399 -8 q 194 68 256 -8 q 133 313 133 144 q 156 550 133 407 q 301 913 194 790 q 597 1035 408 1035 q 790 1023 710 1035 q 942 989 869 1011 l 921 856 q 615 882 786 882 q 466 844 522 882 q 378 726 410 806 q 325 511 346 647 q 307 324 307 399 q 343 192 307 235 q 458 150 379 150 q 582 163 511 150 q 690 189 653 176 l 728 426 l 521 426 l 542 561 q 775 572 642 572 q 915 569 851 572 l 825 0 l 697 0 l 683 71 q 549 19 638 46 q 399 -8 461 -8 z "},"Ğ":{"ha":908,"x_min":133,"x_max":942,"o":"m 399 -8 q 194 68 256 -8 q 133 313 133 144 q 156 550 133 407 q 301 913 194 790 q 597 1035 408 1035 q 790 1023 710 1035 q 942 989 869 1011 l 921 856 q 615 882 786 882 q 466 844 522 882 q 378 726 410 806 q 325 511 346 647 q 307 324 307 399 q 343 192 307 235 q 458 150 379 150 q 582 163 511 150 q 690 189 653 176 l 728 426 l 521 426 l 542 561 q 775 572 642 572 q 915 569 851 572 l 825 0 l 697 0 l 683 71 q 549 19 638 46 q 399 -8 461 -8 m 614 1090 q 496 1128 539 1090 q 453 1243 453 1165 q 458 1296 453 1257 l 539 1296 q 536 1263 536 1271 q 561 1192 536 1215 q 625 1169 586 1169 q 710 1199 675 1169 q 756 1296 744 1229 l 838 1296 q 763 1140 821 1190 q 614 1090 704 1090 z "},"Ǧ":{"ha":908,"x_min":133,"x_max":942,"o":"m 399 -8 q 194 68 256 -8 q 133 313 133 144 q 156 550 133 407 q 301 913 194 790 q 597 1035 408 1035 q 790 1023 710 1035 q 942 989 869 1011 l 921 856 q 615 882 786 882 q 466 844 522 882 q 378 726 410 806 q 325 511 346 647 q 307 324 307 399 q 343 192 307 235 q 458 150 379 150 q 582 163 511 150 q 690 189 653 176 l 728 426 l 521 426 l 542 561 q 775 572 642 572 q 915 569 851 572 l 825 0 l 697 0 l 683 71 q 549 19 638 46 q 399 -8 461 -8 m 465 1292 l 565 1292 l 651 1176 l 782 1292 l 883 1292 l 696 1099 l 576 1099 l 465 1292 z "},"Ĝ":{"ha":908,"x_min":133,"x_max":942,"o":"m 399 -8 q 194 68 256 -8 q 133 313 133 144 q 156 550 133 407 q 301 913 194 790 q 597 1035 408 1035 q 790 1023 710 1035 q 942 989 869 1011 l 921 856 q 615 882 786 882 q 466 844 522 882 q 378 726 410 806 q 325 511 346 647 q 307 324 307 399 q 343 192 307 235 q 458 150 379 150 q 582 163 511 150 q 690 189 653 176 l 728 426 l 521 426 l 542 561 q 775 572 642 572 q 915 569 851 572 l 825 0 l 697 0 l 683 71 q 549 19 638 46 q 399 -8 461 -8 m 583 1292 l 701 1292 l 814 1099 l 713 1099 l 628 1214 l 497 1099 l 396 1099 l 583 1292 z "},"Ģ":{"ha":908,"x_min":133,"x_max":942,"o":"m 399 -8 q 194 68 256 -8 q 133 313 133 144 q 156 550 133 407 q 301 913 194 790 q 597 1035 408 1035 q 790 1023 710 1035 q 942 989 869 1011 l 921 856 q 615 882 786 882 q 466 844 522 882 q 378 726 410 806 q 325 511 346 647 q 307 324 307 399 q 343 192 307 235 q 458 150 379 150 q 582 163 511 150 q 690 189 653 176 l 728 426 l 521 426 l 542 561 q 775 572 642 572 q 915 569 851 572 l 825 0 l 697 0 l 683 71 q 549 19 638 46 q 399 -8 461 -8 m 279 -222 l 319 -214 q 370 -197 353 -207 q 399 -165 388 -187 q 417 -96 410 -142 l 522 -96 q 465 -249 506 -204 q 332 -293 424 -293 l 267 -293 l 279 -222 z "},"Ġ":{"ha":908,"x_min":133,"x_max":942,"o":"m 399 -8 q 194 68 256 -8 q 133 313 133 144 q 156 550 133 407 q 301 913 194 790 q 597 1035 408 1035 q 790 1023 710 1035 q 942 989 869 1011 l 921 856 q 615 882 786 882 q 466 844 522 882 q 378 726 410 806 q 325 511 346 647 q 307 324 307 399 q 343 192 307 235 q 458 150 379 150 q 582 163 511 150 q 690 189 653 176 l 728 426 l 521 426 l 542 561 q 775 572 642 572 q 915 569 851 572 l 825 0 l 697 0 l 683 71 q 549 19 638 46 q 399 -8 461 -8 m 581 1125 q 565 1131 571 1125 q 558 1146 558 1136 l 558 1151 l 578 1276 q 608 1304 582 1304 l 688 1304 q 710 1283 710 1304 l 710 1276 l 690 1151 q 660 1125 686 1125 l 581 1125 z "},"Ḡ":{"ha":908,"x_min":133,"x_max":942,"o":"m 399 -8 q 194 68 256 -8 q 133 313 133 144 q 156 550 133 407 q 301 913 194 790 q 597 1035 408 1035 q 790 1023 710 1035 q 942 989 869 1011 l 921 856 q 615 882 786 882 q 466 844 522 882 q 378 726 410 806 q 325 511 346 647 q 307 324 307 399 q 343 192 307 235 q 458 150 379 150 q 582 163 511 150 q 690 189 653 176 l 728 426 l 521 426 l 542 561 q 775 572 642 572 q 915 569 851 572 l 825 0 l 697 0 l 683 71 q 549 19 638 46 q 399 -8 461 -8 m 447 1235 l 831 1235 l 814 1133 l 431 1133 l 447 1235 z "},"H":{"ha":947,"x_min":90,"x_max":1028,"o":"m 253 1025 l 425 1025 l 354 582 l 785 582 l 856 1025 l 1028 1025 l 865 0 l 693 0 l 761 428 l 331 428 l 263 0 l 90 0 l 253 1025 z "},"Ħ":{"ha":947,"x_min":90,"x_max":1074,"o":"m 1060 722 l 979 722 l 865 0 l 693 0 l 761 428 l 331 428 l 263 0 l 90 0 l 204 722 l 125 722 l 139 813 l 219 813 l 253 1025 l 425 1025 l 392 813 l 822 813 l 856 1025 l 1028 1025 l 994 813 l 1074 813 l 1060 722 m 807 722 l 376 722 l 354 582 l 785 582 l 807 722 z "},"Ḫ":{"ha":947,"x_min":90,"x_max":1028,"o":"m 253 1025 l 425 1025 l 354 582 l 785 582 l 856 1025 l 1028 1025 l 865 0 l 693 0 l 761 428 l 331 428 l 263 0 l 90 0 l 253 1025 m 414 -312 q 295 -275 338 -312 q 253 -160 253 -237 q 254 -131 253 -144 q 257 -107 256 -118 l 338 -107 q 335 -140 335 -132 q 360 -211 335 -189 q 425 -233 385 -233 q 556 -107 535 -233 l 638 -107 q 563 -262 621 -212 q 414 -312 504 -312 z "},"Ĥ":{"ha":947,"x_min":90,"x_max":1028,"o":"m 253 1025 l 425 1025 l 354 582 l 785 582 l 856 1025 l 1028 1025 l 865 0 l 693 0 l 761 428 l 331 428 l 263 0 l 90 0 l 253 1025 m 610 1292 l 728 1292 l 840 1099 l 739 1099 l 654 1214 l 524 1099 l 422 1099 l 610 1292 z "},"Ḥ":{"ha":947,"x_min":90,"x_max":1028,"o":"m 253 1025 l 425 1025 l 354 582 l 785 582 l 856 1025 l 1028 1025 l 865 0 l 693 0 l 761 428 l 331 428 l 263 0 l 90 0 l 253 1025 m 375 -306 q 359 -300 365 -306 q 353 -285 353 -294 l 353 -279 l 372 -154 q 403 -126 376 -126 l 482 -126 q 504 -147 504 -126 l 504 -154 l 485 -279 q 454 -306 481 -306 l 375 -306 z "},"I":{"ha":354,"x_min":90,"x_max":425,"o":"m 253 1025 l 425 1025 l 263 0 l 90 0 l 253 1025 z "},"Í":{"ha":354,"x_min":90,"x_max":579,"o":"m 253 1025 l 425 1025 l 263 0 l 90 0 l 253 1025 m 431 1292 l 579 1292 l 392 1099 l 283 1099 l 431 1292 z "},"Ĭ":{"ha":354,"x_min":90,"x_max":567,"o":"m 253 1025 l 425 1025 l 263 0 l 90 0 l 253 1025 m 343 1090 q 225 1128 268 1090 q 182 1243 182 1165 q 188 1296 182 1257 l 268 1296 q 265 1263 265 1271 q 290 1192 265 1215 q 354 1169 315 1169 q 439 1199 404 1169 q 485 1296 474 1229 l 567 1296 q 492 1140 550 1190 q 343 1090 433 1090 z "},"Î":{"ha":354,"x_min":90,"x_max":543,"o":"m 253 1025 l 425 1025 l 263 0 l 90 0 l 253 1025 m 313 1292 l 431 1292 l 543 1099 l 442 1099 l 357 1214 l 226 1099 l 125 1099 l 313 1292 z "},"Ȉ":{"ha":354,"x_min":56,"x_max":522,"o":"m 253 1025 l 425 1025 l 263 0 l 90 0 l 253 1025 m 56 1292 l 196 1292 l 290 1099 l 189 1099 l 56 1292 m 288 1292 l 428 1292 l 522 1099 l 421 1099 l 288 1292 z "},"Ï":{"ha":354,"x_min":90,"x_max":568,"o":"m 253 1025 l 425 1025 l 263 0 l 90 0 l 253 1025 m 157 1115 q 141 1121 147 1115 q 135 1136 135 1126 q 156 1267 135 1132 q 186 1294 160 1294 l 265 1294 q 288 1274 288 1294 l 267 1142 q 236 1115 265 1115 l 157 1115 m 438 1115 q 422 1121 428 1115 q 415 1136 415 1126 l 436 1267 q 465 1294 440 1294 l 546 1294 q 568 1274 568 1294 q 547 1142 568 1279 q 517 1115 543 1115 l 438 1115 z "},"Ḯ":{"ha":354,"x_min":90,"x_max":601,"o":"m 253 1025 l 425 1025 l 263 0 l 90 0 l 253 1025 m 157 1115 q 141 1121 147 1115 q 135 1136 135 1126 q 156 1267 135 1132 q 186 1294 160 1294 l 265 1294 q 288 1274 288 1294 l 267 1142 q 236 1115 265 1115 l 157 1115 m 438 1115 q 422 1121 428 1115 q 415 1136 415 1126 l 436 1267 q 465 1294 440 1294 l 546 1294 q 568 1274 568 1294 q 547 1142 568 1279 q 517 1115 543 1115 l 438 1115 m 453 1531 l 601 1531 l 414 1338 l 306 1338 l 453 1531 z "},"İ":{"ha":354,"x_min":90,"x_max":439,"o":"m 253 1025 l 425 1025 l 263 0 l 90 0 l 253 1025 m 310 1125 q 294 1131 300 1125 q 288 1146 288 1136 l 288 1151 l 307 1276 q 338 1304 311 1304 l 417 1304 q 439 1283 439 1304 l 439 1276 l 419 1151 q 389 1125 415 1125 l 310 1125 z "},"Ị":{"ha":354,"x_min":56,"x_max":425,"o":"m 253 1025 l 425 1025 l 263 0 l 90 0 l 253 1025 m 78 -306 q 62 -300 68 -306 q 56 -285 56 -294 l 56 -279 l 75 -154 q 106 -126 79 -126 l 185 -126 q 207 -147 207 -126 l 207 -154 l 188 -279 q 157 -306 183 -306 l 78 -306 z "},"Ì":{"ha":354,"x_min":90,"x_max":426,"o":"m 253 1025 l 425 1025 l 263 0 l 90 0 l 253 1025 m 192 1292 l 332 1292 l 426 1099 l 325 1099 l 192 1292 z "},"Ỉ":{"ha":354,"x_min":90,"x_max":490,"o":"m 253 1025 l 425 1025 l 263 0 l 90 0 l 253 1025 m 322 1142 q 396 1218 396 1164 q 350 1254 396 1254 q 301 1246 335 1254 l 313 1314 q 385 1325 349 1325 q 490 1233 490 1325 q 310 1065 490 1114 l 322 1142 z "},"Ȋ":{"ha":354,"x_min":90,"x_max":546,"o":"m 253 1025 l 425 1025 l 263 0 l 90 0 l 253 1025 m 161 1093 q 236 1249 178 1199 q 385 1299 294 1299 q 503 1261 460 1299 q 546 1146 546 1224 q 540 1093 546 1132 l 460 1093 q 463 1126 463 1118 q 438 1197 463 1175 q 372 1219 413 1219 q 289 1190 324 1219 q 243 1093 254 1160 l 161 1093 z "},"Ī":{"ha":354,"x_min":90,"x_max":560,"o":"m 253 1025 l 425 1025 l 263 0 l 90 0 l 253 1025 m 176 1235 l 560 1235 l 543 1133 l 160 1133 l 176 1235 z "},"Į":{"ha":354,"x_min":79,"x_max":425,"o":"m 253 1025 l 425 1025 l 263 0 l 90 0 l 253 1025 m 208 -264 q 112 -235 144 -264 q 79 -160 79 -206 q 110 -69 79 -111 q 199 0 140 -28 l 263 0 q 194 -57 217 -25 q 171 -114 171 -89 q 192 -161 171 -144 q 253 -178 214 -178 l 264 -178 l 250 -260 q 208 -264 235 -264 z "},"Ĩ":{"ha":354,"x_min":90,"x_max":639,"o":"m 253 1025 l 425 1025 l 263 0 l 90 0 l 253 1025 m 110 1111 q 172 1235 128 1197 q 276 1274 217 1274 q 332 1265 307 1274 q 393 1238 357 1256 q 440 1215 422 1222 q 476 1208 458 1208 q 527 1226 507 1208 q 553 1279 547 1244 l 639 1279 q 579 1153 619 1194 q 475 1113 539 1113 q 422 1122 447 1113 q 357 1149 397 1131 q 309 1171 328 1164 q 272 1178 290 1178 q 223 1160 244 1178 q 196 1111 201 1142 l 110 1111 z "},"J":{"ha":524,"x_min":46,"x_max":613,"o":"m 203 -8 q 115 1 158 -8 q 46 24 72 10 l 68 158 q 175 149 115 149 q 276 181 240 149 q 322 283 311 214 l 440 1025 l 613 1025 l 489 249 q 399 51 467 111 q 203 -8 332 -8 z "},"Ĵ":{"ha":524,"x_min":46,"x_max":731,"o":"m 203 -8 q 115 1 158 -8 q 46 24 72 10 l 68 158 q 175 149 115 149 q 276 181 240 149 q 322 283 311 214 l 440 1025 l 613 1025 l 489 249 q 399 51 467 111 q 203 -8 332 -8 m 500 1292 l 618 1292 l 731 1099 l 629 1099 l 544 1214 l 414 1099 l 313 1099 l 500 1292 z "},"K":{"ha":869,"x_min":90,"x_max":989,"o":"m 253 1025 l 425 1025 l 357 592 l 507 592 l 813 1025 l 989 1025 l 635 511 l 849 0 l 676 0 l 493 438 l 332 438 l 263 0 l 90 0 l 253 1025 z "},"Ķ":{"ha":869,"x_min":90,"x_max":989,"o":"m 253 1025 l 425 1025 l 357 592 l 507 592 l 813 1025 l 989 1025 l 635 511 l 849 0 l 676 0 l 493 438 l 332 438 l 263 0 l 90 0 l 253 1025 m 258 -222 l 299 -214 q 349 -197 332 -207 q 378 -165 367 -187 q 396 -96 389 -142 l 501 -96 q 444 -249 485 -204 q 311 -293 403 -293 l 246 -293 l 258 -222 z "},"L":{"ha":735,"x_min":124,"x_max":728,"o":"m 319 0 q 124 175 124 0 q 128 235 124 204 l 253 1025 l 425 1025 l 304 257 q 301 226 301 246 q 324 171 301 188 q 390 154 347 154 l 728 154 l 704 0 l 319 0 z "},"Ĺ":{"ha":735,"x_min":124,"x_max":728,"o":"m 319 0 q 124 175 124 0 q 128 235 124 204 l 253 1025 l 425 1025 l 304 257 q 301 226 301 246 q 324 171 301 188 q 390 154 347 154 l 728 154 l 704 0 l 319 0 m 436 1292 l 585 1292 l 397 1099 l 289 1099 l 436 1292 z "},"Ľ":{"ha":735,"x_min":124,"x_max":728,"o":"m 319 0 q 124 175 124 0 q 128 235 124 204 l 253 1025 l 425 1025 l 304 257 q 301 226 301 246 q 324 171 301 188 q 390 154 347 154 l 728 154 l 704 0 l 319 0 m 542 942 l 557 1035 l 714 1035 l 700 942 l 657 742 l 525 742 l 542 942 z "},"Ļ":{"ha":735,"x_min":124,"x_max":728,"o":"m 319 0 q 124 175 124 0 q 128 235 124 204 l 253 1025 l 425 1025 l 304 257 q 301 226 301 246 q 324 171 301 188 q 390 154 347 154 l 728 154 l 704 0 l 319 0 m 215 -222 l 256 -214 q 306 -197 289 -207 q 335 -165 324 -187 q 353 -96 346 -142 l 458 -96 q 401 -249 442 -204 q 268 -293 360 -293 l 203 -293 l 215 -222 z "},"Ŀ":{"ha":735,"x_min":124,"x_max":728,"o":"m 319 0 q 124 175 124 0 q 128 235 124 204 l 253 1025 l 425 1025 l 304 257 q 301 226 301 246 q 324 171 301 188 q 390 154 347 154 l 728 154 l 704 0 l 319 0 m 571 526 q 553 534 560 526 q 549 553 547 542 l 564 654 q 596 682 568 682 l 694 682 q 717 654 721 682 l 700 553 q 669 526 696 526 l 571 526 z "},"Ḷ":{"ha":735,"x_min":124,"x_max":728,"o":"m 319 0 q 124 175 124 0 q 128 235 124 204 l 253 1025 l 425 1025 l 304 257 q 301 226 301 246 q 324 171 301 188 q 390 154 347 154 l 728 154 l 704 0 l 319 0 m 285 -306 q 269 -300 275 -306 q 263 -285 263 -294 l 263 -279 l 282 -154 q 313 -126 286 -126 l 392 -126 q 414 -147 414 -126 l 414 -154 l 394 -279 q 364 -306 390 -306 l 285 -306 z "},"Ḻ":{"ha":735,"x_min":124,"x_max":728,"o":"m 319 0 q 124 175 124 0 q 128 235 124 204 l 253 1025 l 425 1025 l 304 257 q 301 226 301 246 q 324 171 301 188 q 390 154 347 154 l 728 154 l 704 0 l 319 0 m 147 -182 l 531 -182 l 514 -283 l 131 -283 l 147 -182 z "},"Ł":{"ha":735,"x_min":65,"x_max":728,"o":"m 728 154 l 704 0 l 319 0 q 124 175 124 0 q 128 235 124 204 l 164 467 l 65 426 l 81 521 l 179 561 l 253 1025 l 425 1025 l 360 614 l 560 696 l 544 601 l 346 519 l 304 257 q 301 226 301 246 q 324 171 301 188 q 390 154 347 154 l 728 154 z "},"M":{"ha":1181,"x_min":65,"x_max":1179,"o":"m 350 1025 l 511 1025 l 636 208 l 1019 1025 l 1179 1025 l 1138 0 l 971 0 l 1003 717 l 682 0 l 521 0 l 428 711 l 236 0 l 65 0 l 350 1025 z "},"Ṁ":{"ha":1181,"x_min":65,"x_max":1179,"o":"m 350 1025 l 511 1025 l 636 208 l 1019 1025 l 1179 1025 l 1138 0 l 971 0 l 1003 717 l 682 0 l 521 0 l 428 711 l 236 0 l 65 0 l 350 1025 m 718 1125 q 702 1131 708 1125 q 696 1146 696 1136 l 696 1151 l 715 1276 q 746 1304 719 1304 l 825 1304 q 847 1283 847 1304 l 847 1276 l 828 1151 q 797 1125 824 1125 l 718 1125 z "},"Ṃ":{"ha":1181,"x_min":65,"x_max":1179,"o":"m 350 1025 l 511 1025 l 636 208 l 1019 1025 l 1179 1025 l 1138 0 l 971 0 l 1003 717 l 682 0 l 521 0 l 428 711 l 236 0 l 65 0 l 350 1025 m 486 -306 q 470 -300 476 -306 q 464 -285 464 -294 l 464 -279 l 483 -154 q 514 -126 488 -126 l 593 -126 q 615 -147 615 -126 l 615 -154 l 596 -279 q 565 -306 592 -306 l 486 -306 z "},"N":{"ha":950,"x_min":90,"x_max":1031,"o":"m 253 1025 l 392 1025 l 742 292 l 858 1025 l 1031 1025 l 868 0 l 729 0 l 379 735 l 263 0 l 90 0 l 253 1025 z "},"Ń":{"ha":950,"x_min":90,"x_max":1031,"o":"m 253 1025 l 392 1025 l 742 292 l 858 1025 l 1031 1025 l 868 0 l 729 0 l 379 735 l 263 0 l 90 0 l 253 1025 m 711 1292 l 860 1292 l 672 1099 l 564 1099 l 711 1292 z "},"Ň":{"ha":950,"x_min":90,"x_max":1031,"o":"m 253 1025 l 392 1025 l 742 292 l 858 1025 l 1031 1025 l 868 0 l 729 0 l 379 735 l 263 0 l 90 0 l 253 1025 m 475 1292 l 575 1292 l 661 1176 l 792 1292 l 893 1292 l 706 1099 l 586 1099 l 475 1292 z "},"Ņ":{"ha":950,"x_min":90,"x_max":1031,"o":"m 253 1025 l 392 1025 l 742 292 l 858 1025 l 1031 1025 l 868 0 l 729 0 l 379 735 l 263 0 l 90 0 l 253 1025 m 289 -222 l 329 -214 q 380 -197 363 -207 q 408 -165 397 -187 q 426 -96 419 -142 l 532 -96 q 474 -249 515 -204 q 342 -293 433 -293 l 276 -293 l 289 -222 z "},"Ṅ":{"ha":950,"x_min":90,"x_max":1031,"o":"m 253 1025 l 392 1025 l 742 292 l 858 1025 l 1031 1025 l 868 0 l 729 0 l 379 735 l 263 0 l 90 0 l 253 1025 m 358 -306 q 342 -300 349 -306 q 336 -285 336 -294 l 336 -279 l 356 -154 q 386 -126 360 -126 l 465 -126 q 488 -147 488 -126 l 488 -154 l 468 -279 q 438 -306 464 -306 l 358 -306 z "},"Ṇ":{"ha":950,"x_min":90,"x_max":1031,"o":"m 253 1025 l 392 1025 l 742 292 l 858 1025 l 1031 1025 l 868 0 l 729 0 l 379 735 l 263 0 l 90 0 l 253 1025 m 358 -306 q 342 -300 349 -306 q 336 -285 336 -294 l 336 -279 l 356 -154 q 386 -126 360 -126 l 465 -126 q 488 -147 488 -126 l 488 -154 l 468 -279 q 438 -306 464 -306 l 358 -306 z "},"Ŋ":{"ha":950,"x_min":90,"x_max":1031,"o":"m 868 0 l 867 0 l 854 -85 q 761 -276 835 -214 q 550 -337 688 -337 q 464 -329 507 -337 q 389 -308 421 -321 l 411 -172 q 542 -183 489 -183 q 640 -155 604 -183 q 686 -60 675 -126 l 704 53 l 379 735 l 263 0 l 90 0 l 253 1025 l 392 1025 l 742 292 l 858 1025 l 1031 1025 l 868 0 z "},"Ṉ":{"ha":950,"x_min":90,"x_max":1031,"o":"m 253 1025 l 392 1025 l 742 292 l 858 1025 l 1031 1025 l 868 0 l 729 0 l 379 735 l 263 0 l 90 0 l 253 1025 m 232 -182 l 615 -182 l 599 -283 l 215 -283 l 232 -182 z "},"Ñ":{"ha":950,"x_min":90,"x_max":1031,"o":"m 253 1025 l 392 1025 l 742 292 l 858 1025 l 1031 1025 l 868 0 l 729 0 l 379 735 l 263 0 l 90 0 l 253 1025 m 390 1111 q 453 1235 408 1197 q 557 1274 497 1274 q 613 1265 588 1274 q 674 1238 638 1256 q 721 1215 703 1222 q 757 1208 739 1208 q 808 1226 788 1208 q 833 1279 828 1244 l 919 1279 q 860 1153 900 1194 q 756 1113 819 1113 q 703 1122 728 1113 q 638 1149 678 1131 q 590 1171 608 1164 q 553 1178 571 1178 q 503 1160 525 1178 q 476 1111 482 1142 l 390 1111 z "},"O":{"ha":963,"x_min":132,"x_max":990,"o":"m 478 -8 q 290 17 364 -8 q 174 113 215 43 q 132 310 132 183 q 153 536 132 397 q 243 839 183 732 q 399 990 303 946 q 646 1033 494 1033 q 831 1006 757 1033 q 948 906 906 978 q 990 701 990 833 q 969 476 990 604 q 878 174 938 278 q 726 31 819 69 q 478 -8 632 -8 m 506 147 q 653 179 597 147 q 742 287 708 211 q 799 501 776 363 q 818 700 818 625 q 797 811 818 772 q 733 865 775 850 q 621 879 690 879 q 474 849 529 879 q 384 740 419 819 q 325 511 349 661 q 304 317 304 383 q 325 212 304 249 q 389 161 346 175 q 506 147 432 147 z "},"Ó":{"ha":963,"x_min":132,"x_max":990,"o":"m 478 -8 q 290 17 364 -8 q 174 113 215 43 q 132 310 132 183 q 153 536 132 397 q 243 839 183 732 q 399 990 303 946 q 646 1033 494 1033 q 831 1006 757 1033 q 948 906 906 978 q 990 701 990 833 q 969 476 990 604 q 878 174 938 278 q 726 31 819 69 q 478 -8 632 -8 m 506 147 q 653 179 597 147 q 742 287 708 211 q 799 501 776 363 q 818 700 818 625 q 797 811 818 772 q 733 865 775 850 q 621 879 690 879 q 474 849 529 879 q 384 740 419 819 q 325 511 349 661 q 304 317 304 383 q 325 212 304 249 q 389 161 346 175 q 506 147 432 147 m 739 1292 l 888 1292 l 700 1099 l 592 1099 l 739 1292 z "},"Ŏ":{"ha":963,"x_min":132,"x_max":990,"o":"m 478 -8 q 290 17 364 -8 q 174 113 215 43 q 132 310 132 183 q 153 536 132 397 q 243 839 183 732 q 399 990 303 946 q 646 1033 494 1033 q 831 1006 757 1033 q 948 906 906 978 q 990 701 990 833 q 969 476 990 604 q 878 174 938 278 q 726 31 819 69 q 478 -8 632 -8 m 506 147 q 653 179 597 147 q 742 287 708 211 q 799 501 776 363 q 818 700 818 625 q 797 811 818 772 q 733 865 775 850 q 621 879 690 879 q 474 849 529 879 q 384 740 419 819 q 325 511 349 661 q 304 317 304 383 q 325 212 304 249 q 389 161 346 175 q 506 147 432 147 m 651 1090 q 533 1128 576 1090 q 490 1243 490 1165 q 496 1296 490 1257 l 576 1296 q 574 1263 574 1271 q 599 1192 574 1215 q 663 1169 624 1169 q 747 1199 713 1169 q 793 1296 782 1229 l 875 1296 q 800 1140 858 1190 q 651 1090 742 1090 z "},"Ô":{"ha":963,"x_min":132,"x_max":990,"o":"m 478 -8 q 290 17 364 -8 q 174 113 215 43 q 132 310 132 183 q 153 536 132 397 q 243 839 183 732 q 399 990 303 946 q 646 1033 494 1033 q 831 1006 757 1033 q 948 906 906 978 q 990 701 990 833 q 969 476 990 604 q 878 174 938 278 q 726 31 819 69 q 478 -8 632 -8 m 506 147 q 653 179 597 147 q 742 287 708 211 q 799 501 776 363 q 818 700 818 625 q 797 811 818 772 q 733 865 775 850 q 621 879 690 879 q 474 849 529 879 q 384 740 419 819 q 325 511 349 661 q 304 317 304 383 q 325 212 304 249 q 389 161 346 175 q 506 147 432 147 m 621 1292 l 739 1292 l 851 1099 l 750 1099 l 665 1214 l 535 1099 l 433 1099 l 621 1292 z "},"Ố":{"ha":963,"x_min":132,"x_max":1047,"o":"m 478 -8 q 290 17 364 -8 q 174 113 215 43 q 132 310 132 183 q 153 536 132 397 q 243 839 183 732 q 399 990 303 946 q 646 1033 494 1033 q 831 1006 757 1033 q 948 906 906 978 q 990 701 990 833 q 969 476 990 604 q 878 174 938 278 q 726 31 819 69 q 478 -8 632 -8 m 506 147 q 653 179 597 147 q 742 287 708 211 q 799 501 776 363 q 818 700 818 625 q 797 811 818 772 q 733 865 775 850 q 621 879 690 879 q 474 849 529 879 q 384 740 419 819 q 325 511 349 661 q 304 317 304 383 q 325 212 304 249 q 389 161 346 175 q 506 147 432 147 m 914 1389 l 1047 1389 l 894 1213 l 801 1213 l 914 1389 m 624 1244 l 742 1244 l 863 1099 l 761 1099 l 668 1167 l 544 1099 l 443 1099 l 624 1244 z "},"Ộ":{"ha":963,"x_min":132,"x_max":990,"o":"m 478 -8 q 290 17 364 -8 q 174 113 215 43 q 132 310 132 183 q 153 536 132 397 q 243 839 183 732 q 399 990 303 946 q 646 1033 494 1033 q 831 1006 757 1033 q 948 906 906 978 q 990 701 990 833 q 969 476 990 604 q 878 174 938 278 q 726 31 819 69 q 478 -8 632 -8 m 506 147 q 653 179 597 147 q 742 287 708 211 q 799 501 776 363 q 818 700 818 625 q 797 811 818 772 q 733 865 775 850 q 621 879 690 879 q 474 849 529 879 q 384 740 419 819 q 325 511 349 661 q 304 317 304 383 q 325 212 304 249 q 389 161 346 175 q 506 147 432 147 m 621 1292 l 739 1292 l 851 1099 l 750 1099 l 665 1214 l 535 1099 l 433 1099 l 621 1292 m 386 -306 q 370 -300 376 -306 q 364 -285 364 -294 l 364 -279 l 383 -154 q 414 -126 388 -126 l 493 -126 q 515 -147 515 -126 l 515 -154 l 496 -279 q 465 -306 492 -306 l 386 -306 z "},"Ồ":{"ha":963,"x_min":132,"x_max":990,"o":"m 478 -8 q 290 17 364 -8 q 174 113 215 43 q 132 310 132 183 q 153 536 132 397 q 243 839 183 732 q 399 990 303 946 q 646 1033 494 1033 q 831 1006 757 1033 q 948 906 906 978 q 990 701 990 833 q 969 476 990 604 q 878 174 938 278 q 726 31 819 69 q 478 -8 632 -8 m 506 147 q 653 179 597 147 q 742 287 708 211 q 799 501 776 363 q 818 700 818 625 q 797 811 818 772 q 733 865 775 850 q 621 879 690 879 q 474 849 529 879 q 384 740 419 819 q 325 511 349 661 q 304 317 304 383 q 325 212 304 249 q 389 161 346 175 q 506 147 432 147 m 360 1389 l 493 1389 l 549 1213 l 456 1213 l 360 1389 m 618 1244 l 738 1244 l 857 1099 l 757 1099 l 664 1167 l 540 1099 l 439 1099 l 618 1244 z "},"Ổ":{"ha":963,"x_min":132,"x_max":990,"o":"m 478 -8 q 290 17 364 -8 q 174 113 215 43 q 132 310 132 183 q 153 536 132 397 q 243 839 183 732 q 399 990 303 946 q 646 1033 494 1033 q 831 1006 757 1033 q 948 906 906 978 q 990 701 990 833 q 969 476 990 604 q 878 174 938 278 q 726 31 819 69 q 478 -8 632 -8 m 506 147 q 653 179 597 147 q 742 287 708 211 q 799 501 776 363 q 818 700 818 625 q 797 811 818 772 q 733 865 775 850 q 621 879 690 879 q 474 849 529 879 q 384 740 419 819 q 325 511 349 661 q 304 317 304 383 q 325 212 304 249 q 389 161 346 175 q 506 147 432 147 m 839 1242 q 901 1307 901 1265 q 864 1335 901 1335 q 815 1326 839 1335 l 826 1396 q 896 1406 857 1406 q 988 1328 988 1406 q 828 1174 988 1217 l 839 1242 m 625 1244 l 743 1244 l 864 1099 l 763 1099 l 669 1167 l 547 1099 l 446 1099 l 625 1244 z "},"Ỗ":{"ha":963,"x_min":132,"x_max":990,"o":"m 478 -8 q 290 17 364 -8 q 174 113 215 43 q 132 310 132 183 q 153 536 132 397 q 243 839 183 732 q 399 990 303 946 q 646 1033 494 1033 q 831 1006 757 1033 q 948 906 906 978 q 990 701 990 833 q 969 476 990 604 q 878 174 938 278 q 726 31 819 69 q 478 -8 632 -8 m 506 147 q 653 179 597 147 q 742 287 708 211 q 799 501 776 363 q 818 700 818 625 q 797 811 818 772 q 733 865 775 850 q 621 879 690 879 q 474 849 529 879 q 384 740 419 819 q 325 511 349 661 q 304 317 304 383 q 325 212 304 249 q 389 161 346 175 q 506 147 432 147 m 454 1304 q 510 1407 471 1379 q 610 1435 550 1435 q 655 1428 635 1435 q 707 1410 675 1422 q 747 1394 731 1399 q 779 1389 763 1389 q 826 1403 807 1389 q 849 1442 844 1417 l 935 1442 q 881 1337 918 1368 q 779 1306 843 1306 q 735 1312 756 1306 q 681 1331 714 1318 q 608 1351 633 1351 q 563 1339 582 1351 q 540 1304 544 1326 l 454 1304 m 626 1244 l 744 1244 l 864 1099 l 763 1099 l 669 1167 l 546 1099 l 444 1099 l 626 1244 z "},"Ȍ":{"ha":963,"x_min":132,"x_max":990,"o":"m 478 -8 q 290 17 364 -8 q 174 113 215 43 q 132 310 132 183 q 153 536 132 397 q 243 839 183 732 q 399 990 303 946 q 646 1033 494 1033 q 831 1006 757 1033 q 948 906 906 978 q 990 701 990 833 q 969 476 990 604 q 878 174 938 278 q 726 31 819 69 q 478 -8 632 -8 m 506 147 q 653 179 597 147 q 742 287 708 211 q 799 501 776 363 q 818 700 818 625 q 797 811 818 772 q 733 865 775 850 q 621 879 690 879 q 474 849 529 879 q 384 740 419 819 q 325 511 349 661 q 304 317 304 383 q 325 212 304 249 q 389 161 346 175 q 506 147 432 147 m 364 1292 l 504 1292 l 599 1099 l 497 1099 l 364 1292 m 596 1292 l 736 1292 l 831 1099 l 729 1099 l 596 1292 z "},"Ö":{"ha":963,"x_min":132,"x_max":990,"o":"m 478 -8 q 290 17 364 -8 q 174 113 215 43 q 132 310 132 183 q 153 536 132 397 q 243 839 183 732 q 399 990 303 946 q 646 1033 494 1033 q 831 1006 757 1033 q 948 906 906 978 q 990 701 990 833 q 969 476 990 604 q 878 174 938 278 q 726 31 819 69 q 478 -8 632 -8 m 506 147 q 653 179 597 147 q 742 287 708 211 q 799 501 776 363 q 818 700 818 625 q 797 811 818 772 q 733 865 775 850 q 621 879 690 879 q 474 849 529 879 q 384 740 419 819 q 325 511 349 661 q 304 317 304 383 q 325 212 304 249 q 389 161 346 175 q 506 147 432 147 m 465 1115 q 449 1121 456 1115 q 443 1136 443 1126 q 464 1267 443 1132 q 494 1294 468 1294 l 574 1294 q 596 1274 596 1294 l 575 1142 q 544 1115 574 1115 l 465 1115 m 746 1115 q 730 1121 736 1115 q 724 1136 724 1126 l 744 1267 q 774 1294 749 1294 l 854 1294 q 876 1274 876 1294 q 856 1142 876 1279 q 825 1115 851 1115 l 746 1115 z "},"Ȫ":{"ha":963,"x_min":132,"x_max":990,"o":"m 478 -8 q 290 17 364 -8 q 174 113 215 43 q 132 310 132 183 q 153 536 132 397 q 243 839 183 732 q 399 990 303 946 q 646 1033 494 1033 q 831 1006 757 1033 q 948 906 906 978 q 990 701 990 833 q 969 476 990 604 q 878 174 938 278 q 726 31 819 69 q 478 -8 632 -8 m 506 147 q 653 179 597 147 q 742 287 708 211 q 799 501 776 363 q 818 700 818 625 q 797 811 818 772 q 733 865 775 850 q 621 879 690 879 q 474 849 529 879 q 384 740 419 819 q 325 511 349 661 q 304 317 304 383 q 325 212 304 249 q 389 161 346 175 q 506 147 432 147 m 471 1115 q 455 1121 461 1115 q 449 1136 449 1126 q 469 1267 449 1132 q 500 1294 474 1294 l 579 1294 q 601 1274 601 1294 l 581 1142 q 550 1115 579 1115 l 471 1115 m 751 1115 q 735 1121 742 1115 q 729 1136 729 1126 l 750 1267 q 779 1294 754 1294 l 860 1294 q 882 1274 882 1294 q 861 1142 882 1279 q 831 1115 857 1115 l 751 1115 m 510 1464 l 893 1464 l 876 1363 l 493 1363 l 510 1464 z "},"Ȱ":{"ha":963,"x_min":132,"x_max":990,"o":"m 478 -8 q 290 17 364 -8 q 174 113 215 43 q 132 310 132 183 q 153 536 132 397 q 243 839 183 732 q 399 990 303 946 q 646 1033 494 1033 q 831 1006 757 1033 q 948 906 906 978 q 990 701 990 833 q 969 476 990 604 q 878 174 938 278 q 726 31 819 69 q 478 -8 632 -8 m 506 147 q 653 179 597 147 q 742 287 708 211 q 799 501 776 363 q 818 700 818 625 q 797 811 818 772 q 733 865 775 850 q 621 879 690 879 q 474 849 529 879 q 384 740 419 819 q 325 511 349 661 q 304 317 304 383 q 325 212 304 249 q 389 161 346 175 q 506 147 432 147 m 618 1125 q 602 1131 608 1125 q 596 1146 596 1136 l 596 1151 l 615 1276 q 646 1304 619 1304 l 725 1304 q 747 1283 747 1304 l 747 1276 l 728 1151 q 697 1125 724 1125 l 618 1125 m 517 1483 l 900 1483 l 883 1382 l 500 1382 l 517 1483 z "},"Ọ":{"ha":963,"x_min":132,"x_max":990,"o":"m 478 -8 q 290 17 364 -8 q 174 113 215 43 q 132 310 132 183 q 153 536 132 397 q 243 839 183 732 q 399 990 303 946 q 646 1033 494 1033 q 831 1006 757 1033 q 948 906 906 978 q 990 701 990 833 q 969 476 990 604 q 878 174 938 278 q 726 31 819 69 q 478 -8 632 -8 m 506 147 q 653 179 597 147 q 742 287 708 211 q 799 501 776 363 q 818 700 818 625 q 797 811 818 772 q 733 865 775 850 q 621 879 690 879 q 474 849 529 879 q 384 740 419 819 q 325 511 349 661 q 304 317 304 383 q 325 212 304 249 q 389 161 346 175 q 506 147 432 147 m 386 -306 q 370 -300 376 -306 q 364 -285 364 -294 l 364 -279 l 383 -154 q 414 -126 388 -126 l 493 -126 q 515 -147 515 -126 l 515 -154 l 496 -279 q 465 -306 492 -306 l 386 -306 z "},"Ò":{"ha":963,"x_min":132,"x_max":990,"o":"m 478 -8 q 290 17 364 -8 q 174 113 215 43 q 132 310 132 183 q 153 536 132 397 q 243 839 183 732 q 399 990 303 946 q 646 1033 494 1033 q 831 1006 757 1033 q 948 906 906 978 q 990 701 990 833 q 969 476 990 604 q 878 174 938 278 q 726 31 819 69 q 478 -8 632 -8 m 506 147 q 653 179 597 147 q 742 287 708 211 q 799 501 776 363 q 818 700 818 625 q 797 811 818 772 q 733 865 775 850 q 621 879 690 879 q 474 849 529 879 q 384 740 419 819 q 325 511 349 661 q 304 317 304 383 q 325 212 304 249 q 389 161 346 175 q 506 147 432 147 m 500 1292 l 640 1292 l 735 1099 l 633 1099 l 500 1292 z "},"Ỏ":{"ha":963,"x_min":132,"x_max":990,"o":"m 478 -8 q 290 17 364 -8 q 174 113 215 43 q 132 310 132 183 q 153 536 132 397 q 243 839 183 732 q 399 990 303 946 q 646 1033 494 1033 q 831 1006 757 1033 q 948 906 906 978 q 990 701 990 833 q 969 476 990 604 q 878 174 938 278 q 726 31 819 69 q 478 -8 632 -8 m 506 147 q 653 179 597 147 q 742 287 708 211 q 799 501 776 363 q 818 700 818 625 q 797 811 818 772 q 733 865 775 850 q 621 879 690 879 q 474 849 529 879 q 384 740 419 819 q 325 511 349 661 q 304 317 304 383 q 325 212 304 249 q 389 161 346 175 q 506 147 432 147 m 631 1142 q 704 1218 704 1164 q 658 1254 704 1254 q 610 1246 643 1254 l 621 1314 q 693 1325 657 1325 q 799 1233 799 1325 q 618 1065 799 1114 l 631 1142 z "},"Ơ":{"ha":967,"x_min":132,"x_max":1100,"o":"m 1100 1181 q 1038 1017 1083 1078 q 925 939 992 957 q 990 701 990 861 q 969 476 990 604 q 878 174 938 278 q 726 31 819 69 q 478 -8 632 -8 q 290 17 364 -8 q 174 113 215 43 q 132 310 132 183 q 153 536 132 397 q 243 839 183 732 q 399 990 303 946 q 646 1033 494 1033 q 760 1025 707 1033 l 851 1025 q 935 1061 903 1025 q 979 1181 967 1097 l 1100 1181 m 799 501 q 818 700 818 625 q 797 811 818 772 q 733 865 775 850 q 621 879 690 879 q 474 849 529 879 q 384 740 419 819 q 325 511 349 661 q 304 317 304 383 q 325 212 304 249 q 389 161 346 175 q 506 147 432 147 q 653 179 597 147 q 742 287 708 211 q 799 501 776 363 z "},"Ớ":{"ha":967,"x_min":132,"x_max":1100,"o":"m 1100 1181 q 1038 1017 1083 1078 q 925 939 992 957 q 990 701 990 861 q 969 476 990 604 q 878 174 938 278 q 726 31 819 69 q 478 -8 632 -8 q 290 17 364 -8 q 174 113 215 43 q 132 310 132 183 q 153 536 132 397 q 243 839 183 732 q 399 990 303 946 q 646 1033 494 1033 q 760 1025 707 1033 l 851 1025 q 935 1061 903 1025 q 979 1181 967 1097 l 1100 1181 m 799 501 q 818 700 818 625 q 797 811 818 772 q 733 865 775 850 q 621 879 690 879 q 474 849 529 879 q 384 740 419 819 q 325 511 349 661 q 304 317 304 383 q 325 212 304 249 q 389 161 346 175 q 506 147 432 147 q 653 179 597 147 q 742 287 708 211 q 799 501 776 363 m 714 1292 l 863 1292 l 675 1099 l 567 1099 l 714 1292 z "},"Ợ":{"ha":967,"x_min":132,"x_max":1100,"o":"m 1100 1181 q 1038 1017 1083 1078 q 925 939 992 957 q 990 701 990 861 q 969 476 990 604 q 878 174 938 278 q 726 31 819 69 q 478 -8 632 -8 q 290 17 364 -8 q 174 113 215 43 q 132 310 132 183 q 153 536 132 397 q 243 839 183 732 q 399 990 303 946 q 646 1033 494 1033 q 760 1025 707 1033 l 851 1025 q 935 1061 903 1025 q 979 1181 967 1097 l 1100 1181 m 799 501 q 818 700 818 625 q 797 811 818 772 q 733 865 775 850 q 621 879 690 879 q 474 849 529 879 q 384 740 419 819 q 325 511 349 661 q 304 317 304 383 q 325 212 304 249 q 389 161 346 175 q 506 147 432 147 q 653 179 597 147 q 742 287 708 211 q 799 501 776 363 m 375 -306 q 359 -300 365 -306 q 353 -285 353 -294 l 353 -279 l 372 -154 q 403 -126 376 -126 l 482 -126 q 504 -147 504 -126 l 504 -154 l 485 -279 q 454 -306 481 -306 l 375 -306 z "},"Ờ":{"ha":967,"x_min":132,"x_max":1100,"o":"m 1100 1181 q 1038 1017 1083 1078 q 925 939 992 957 q 990 701 990 861 q 969 476 990 604 q 878 174 938 278 q 726 31 819 69 q 478 -8 632 -8 q 290 17 364 -8 q 174 113 215 43 q 132 310 132 183 q 153 536 132 397 q 243 839 183 732 q 399 990 303 946 q 646 1033 494 1033 q 760 1025 707 1033 l 851 1025 q 935 1061 903 1025 q 979 1181 967 1097 l 1100 1181 m 799 501 q 818 700 818 625 q 797 811 818 772 q 733 865 775 850 q 621 879 690 879 q 474 849 529 879 q 384 740 419 819 q 325 511 349 661 q 304 317 304 383 q 325 212 304 249 q 389 161 346 175 q 506 147 432 147 q 653 179 597 147 q 742 287 708 211 q 799 501 776 363 m 475 1292 l 615 1292 l 710 1099 l 608 1099 l 475 1292 z "},"Ở":{"ha":967,"x_min":132,"x_max":1100,"o":"m 1100 1181 q 1038 1017 1083 1078 q 925 939 992 957 q 990 701 990 861 q 969 476 990 604 q 878 174 938 278 q 726 31 819 69 q 478 -8 632 -8 q 290 17 364 -8 q 174 113 215 43 q 132 310 132 183 q 153 536 132 397 q 243 839 183 732 q 399 990 303 946 q 646 1033 494 1033 q 760 1025 707 1033 l 851 1025 q 935 1061 903 1025 q 979 1181 967 1097 l 1100 1181 m 799 501 q 818 700 818 625 q 797 811 818 772 q 733 865 775 850 q 621 879 690 879 q 474 849 529 879 q 384 740 419 819 q 325 511 349 661 q 304 317 304 383 q 325 212 304 249 q 389 161 346 175 q 506 147 432 147 q 653 179 597 147 q 742 287 708 211 q 799 501 776 363 m 606 1142 q 679 1218 679 1164 q 633 1254 679 1254 q 585 1246 618 1254 l 596 1314 q 668 1325 632 1325 q 774 1233 774 1325 q 593 1065 774 1114 l 606 1142 z "},"Ỡ":{"ha":967,"x_min":132,"x_max":1100,"o":"m 1100 1181 q 1038 1017 1083 1078 q 925 939 992 957 q 990 701 990 861 q 969 476 990 604 q 878 174 938 278 q 726 31 819 69 q 478 -8 632 -8 q 290 17 364 -8 q 174 113 215 43 q 132 310 132 183 q 153 536 132 397 q 243 839 183 732 q 399 990 303 946 q 646 1033 494 1033 q 760 1025 707 1033 l 851 1025 q 935 1061 903 1025 q 979 1181 967 1097 l 1100 1181 m 799 501 q 818 700 818 625 q 797 811 818 772 q 733 865 775 850 q 621 879 690 879 q 474 849 529 879 q 384 740 419 819 q 325 511 349 661 q 304 317 304 383 q 325 212 304 249 q 389 161 346 175 q 506 147 432 147 q 653 179 597 147 q 742 287 708 211 q 799 501 776 363 m 393 1111 q 456 1235 411 1197 q 560 1274 500 1274 q 615 1265 590 1274 q 676 1238 640 1256 q 724 1215 706 1222 q 760 1208 742 1208 q 810 1226 790 1208 q 836 1279 831 1244 l 922 1279 q 863 1153 903 1194 q 758 1113 822 1113 q 706 1122 731 1113 q 640 1149 681 1131 q 592 1171 611 1164 q 556 1178 574 1178 q 506 1160 528 1178 q 479 1111 485 1142 l 393 1111 z "},"Ő":{"ha":963,"x_min":132,"x_max":990,"o":"m 478 -8 q 290 17 364 -8 q 174 113 215 43 q 132 310 132 183 q 153 536 132 397 q 243 839 183 732 q 399 990 303 946 q 646 1033 494 1033 q 831 1006 757 1033 q 948 906 906 978 q 990 701 990 833 q 969 476 990 604 q 878 174 938 278 q 726 31 819 69 q 478 -8 632 -8 m 506 147 q 653 179 597 147 q 742 287 708 211 q 799 501 776 363 q 818 700 818 625 q 797 811 818 772 q 733 865 775 850 q 621 879 690 879 q 474 849 529 879 q 384 740 419 819 q 325 511 349 661 q 304 317 304 383 q 325 212 304 249 q 389 161 346 175 q 506 147 432 147 m 619 1292 l 751 1292 l 572 1099 l 472 1099 l 619 1292 m 840 1292 l 972 1292 l 793 1099 l 693 1099 l 840 1292 z "},"Ȏ":{"ha":963,"x_min":132,"x_max":990,"o":"m 478 -8 q 290 17 364 -8 q 174 113 215 43 q 132 310 132 183 q 153 536 132 397 q 243 839 183 732 q 399 990 303 946 q 646 1033 494 1033 q 831 1006 757 1033 q 948 906 906 978 q 990 701 990 833 q 969 476 990 604 q 878 174 938 278 q 726 31 819 69 q 478 -8 632 -8 m 506 147 q 653 179 597 147 q 742 287 708 211 q 799 501 776 363 q 818 700 818 625 q 797 811 818 772 q 733 865 775 850 q 621 879 690 879 q 474 849 529 879 q 384 740 419 819 q 325 511 349 661 q 304 317 304 383 q 325 212 304 249 q 389 161 346 175 q 506 147 432 147 m 469 1093 q 544 1249 486 1199 q 693 1299 603 1299 q 811 1261 768 1299 q 854 1146 854 1224 q 849 1093 854 1132 l 768 1093 q 771 1126 771 1118 q 746 1197 771 1175 q 681 1219 721 1219 q 597 1190 632 1219 q 551 1093 563 1160 l 469 1093 z "},"Ō":{"ha":963,"x_min":132,"x_max":990,"o":"m 478 -8 q 290 17 364 -8 q 174 113 215 43 q 132 310 132 183 q 153 536 132 397 q 243 839 183 732 q 399 990 303 946 q 646 1033 494 1033 q 831 1006 757 1033 q 948 906 906 978 q 990 701 990 833 q 969 476 990 604 q 878 174 938 278 q 726 31 819 69 q 478 -8 632 -8 m 506 147 q 653 179 597 147 q 742 287 708 211 q 799 501 776 363 q 818 700 818 625 q 797 811 818 772 q 733 865 775 850 q 621 879 690 879 q 474 849 529 879 q 384 740 419 819 q 325 511 349 661 q 304 317 304 383 q 325 212 304 249 q 389 161 346 175 q 506 147 432 147 m 485 1235 l 868 1235 l 851 1133 l 468 1133 l 485 1235 z "},"Ṓ":{"ha":963,"x_min":132,"x_max":990,"o":"m 478 -8 q 290 17 364 -8 q 174 113 215 43 q 132 310 132 183 q 153 536 132 397 q 243 839 183 732 q 399 990 303 946 q 646 1033 494 1033 q 831 1006 757 1033 q 948 906 906 978 q 990 701 990 833 q 969 476 990 604 q 878 174 938 278 q 726 31 819 69 q 478 -8 632 -8 m 506 147 q 653 179 597 147 q 742 287 708 211 q 799 501 776 363 q 818 700 818 625 q 797 811 818 772 q 733 865 775 850 q 621 879 690 879 q 474 849 529 879 q 384 740 419 819 q 325 511 349 661 q 304 317 304 383 q 325 212 304 249 q 389 161 346 175 q 506 147 432 147 m 485 1235 l 868 1235 l 851 1133 l 468 1133 l 485 1235 m 767 1492 l 915 1492 l 728 1299 l 619 1299 l 767 1492 z "},"Ṑ":{"ha":963,"x_min":132,"x_max":990,"o":"m 478 -8 q 290 17 364 -8 q 174 113 215 43 q 132 310 132 183 q 153 536 132 397 q 243 839 183 732 q 399 990 303 946 q 646 1033 494 1033 q 831 1006 757 1033 q 948 906 906 978 q 990 701 990 833 q 969 476 990 604 q 878 174 938 278 q 726 31 819 69 q 478 -8 632 -8 m 506 147 q 653 179 597 147 q 742 287 708 211 q 799 501 776 363 q 818 700 818 625 q 797 811 818 772 q 733 865 775 850 q 621 879 690 879 q 474 849 529 879 q 384 740 419 819 q 325 511 349 661 q 304 317 304 383 q 325 212 304 249 q 389 161 346 175 q 506 147 432 147 m 485 1235 l 868 1235 l 851 1133 l 468 1133 l 485 1235 m 492 1492 l 632 1492 l 726 1299 l 625 1299 l 492 1492 z "},"Ǫ":{"ha":963,"x_min":132,"x_max":990,"o":"m 646 1033 q 831 1006 757 1033 q 948 906 906 978 q 990 701 990 833 q 969 476 990 604 q 898 212 943 311 q 784 64 853 113 q 613 0 715 15 q 544 -57 567 -25 q 521 -114 521 -89 q 542 -161 521 -144 q 603 -178 564 -178 l 614 -178 l 600 -260 q 558 -264 586 -264 q 462 -235 494 -264 q 429 -160 429 -206 q 456 -75 429 -115 q 535 -7 483 -35 q 478 -8 517 -8 q 290 17 364 -8 q 174 113 215 43 q 132 310 132 183 q 153 536 132 397 q 243 839 183 732 q 399 990 303 946 q 646 1033 494 1033 m 799 501 q 818 700 818 625 q 797 811 818 772 q 733 865 775 850 q 621 879 690 879 q 474 849 529 879 q 384 740 419 819 q 325 511 349 661 q 304 317 304 383 q 325 212 304 249 q 389 161 346 175 q 506 147 432 147 q 653 179 597 147 q 742 287 708 211 q 799 501 776 363 z "},"Ø":{"ha":967,"x_min":65,"x_max":1063,"o":"m 951 899 q 990 701 990 824 q 969 476 990 604 q 878 174 938 278 q 726 31 819 69 q 478 -8 632 -8 q 324 7 389 -8 q 217 60 260 22 l 165 0 l 65 0 l 169 119 q 132 310 132 192 q 153 536 132 397 q 243 839 183 732 q 399 990 303 946 q 646 1033 494 1033 q 798 1017 733 1033 q 906 960 863 1000 l 963 1025 l 1063 1025 l 951 899 m 304 317 q 307 275 304 300 l 788 825 q 725 867 765 856 q 621 879 685 879 q 474 849 529 879 q 384 740 419 819 q 325 511 349 661 q 304 317 304 383 m 818 700 q 815 743 818 718 l 336 196 q 400 158 360 169 q 506 147 440 147 q 653 179 597 147 q 742 287 708 211 q 799 501 776 363 q 818 700 818 625 z "},"Ǿ":{"ha":967,"x_min":65,"x_max":1063,"o":"m 951 899 q 990 701 990 824 q 969 476 990 604 q 878 174 938 278 q 726 31 819 69 q 478 -8 632 -8 q 324 7 389 -8 q 217 60 260 22 l 165 0 l 65 0 l 169 119 q 132 310 132 192 q 153 536 132 397 q 243 839 183 732 q 399 990 303 946 q 646 1033 494 1033 q 798 1017 733 1033 q 906 960 863 1000 l 963 1025 l 1063 1025 l 951 899 m 304 317 q 307 275 304 300 l 788 825 q 725 867 765 856 q 621 879 685 879 q 474 849 529 879 q 384 740 419 819 q 325 511 349 661 q 304 317 304 383 m 818 700 q 815 743 818 718 l 336 196 q 400 158 360 169 q 506 147 440 147 q 653 179 597 147 q 742 287 708 211 q 799 501 776 363 q 818 700 818 625 m 724 1292 l 872 1292 l 685 1099 l 576 1099 l 724 1292 z "},"Õ":{"ha":963,"x_min":132,"x_max":990,"o":"m 478 -8 q 290 17 364 -8 q 174 113 215 43 q 132 310 132 183 q 153 536 132 397 q 243 839 183 732 q 399 990 303 946 q 646 1033 494 1033 q 831 1006 757 1033 q 948 906 906 978 q 990 701 990 833 q 969 476 990 604 q 878 174 938 278 q 726 31 819 69 q 478 -8 632 -8 m 506 147 q 653 179 597 147 q 742 287 708 211 q 799 501 776 363 q 818 700 818 625 q 797 811 818 772 q 733 865 775 850 q 621 879 690 879 q 474 849 529 879 q 384 740 419 819 q 325 511 349 661 q 304 317 304 383 q 325 212 304 249 q 389 161 346 175 q 506 147 432 147 m 418 1111 q 481 1235 436 1197 q 585 1274 525 1274 q 640 1265 615 1274 q 701 1238 665 1256 q 749 1215 731 1222 q 785 1208 767 1208 q 835 1226 815 1208 q 861 1279 856 1244 l 947 1279 q 888 1153 928 1194 q 783 1113 847 1113 q 731 1122 756 1113 q 665 1149 706 1131 q 617 1171 636 1164 q 581 1178 599 1178 q 531 1160 553 1178 q 504 1111 510 1142 l 418 1111 z "},"Ṍ":{"ha":963,"x_min":132,"x_max":990,"o":"m 478 -8 q 290 17 364 -8 q 174 113 215 43 q 132 310 132 183 q 153 536 132 397 q 243 839 183 732 q 399 990 303 946 q 646 1033 494 1033 q 831 1006 757 1033 q 948 906 906 978 q 990 701 990 833 q 969 476 990 604 q 878 174 938 278 q 726 31 819 69 q 478 -8 632 -8 m 506 147 q 653 179 597 147 q 742 287 708 211 q 799 501 776 363 q 818 700 818 625 q 797 811 818 772 q 733 865 775 850 q 621 879 690 879 q 474 849 529 879 q 384 740 419 819 q 325 511 349 661 q 304 317 304 383 q 325 212 304 249 q 389 161 346 175 q 506 147 432 147 m 418 1111 q 481 1235 436 1197 q 585 1274 525 1274 q 640 1265 615 1274 q 701 1238 665 1256 q 749 1215 731 1222 q 785 1208 767 1208 q 835 1226 815 1208 q 861 1279 856 1244 l 947 1279 q 888 1153 928 1194 q 783 1113 847 1113 q 731 1122 756 1113 q 665 1149 706 1131 q 617 1171 636 1164 q 581 1178 599 1178 q 531 1160 553 1178 q 504 1111 510 1142 l 418 1111 m 772 1522 l 921 1522 l 733 1329 l 625 1329 l 772 1522 z "},"Ṏ":{"ha":963,"x_min":132,"x_max":990,"o":"m 478 -8 q 290 17 364 -8 q 174 113 215 43 q 132 310 132 183 q 153 536 132 397 q 243 839 183 732 q 399 990 303 946 q 646 1033 494 1033 q 831 1006 757 1033 q 948 906 906 978 q 990 701 990 833 q 969 476 990 604 q 878 174 938 278 q 726 31 819 69 q 478 -8 632 -8 m 506 147 q 653 179 597 147 q 742 287 708 211 q 799 501 776 363 q 818 700 818 625 q 797 811 818 772 q 733 865 775 850 q 621 879 690 879 q 474 849 529 879 q 384 740 419 819 q 325 511 349 661 q 304 317 304 383 q 325 212 304 249 q 389 161 346 175 q 506 147 432 147 m 407 1111 q 469 1235 425 1197 q 574 1274 514 1274 q 629 1265 604 1274 q 690 1238 654 1256 q 738 1215 719 1222 q 774 1208 756 1208 q 824 1226 804 1208 q 850 1279 844 1244 l 936 1279 q 876 1153 917 1194 q 772 1113 836 1113 q 719 1122 744 1113 q 654 1149 694 1131 q 606 1171 625 1164 q 569 1178 588 1178 q 520 1160 542 1178 q 493 1111 499 1142 l 407 1111 m 504 1343 q 488 1349 494 1343 q 482 1364 482 1354 q 503 1494 482 1360 q 533 1522 507 1522 l 613 1522 q 635 1501 635 1522 l 614 1369 q 583 1343 613 1343 l 504 1343 m 785 1343 q 769 1349 775 1343 q 763 1364 763 1354 l 783 1494 q 813 1522 788 1522 l 893 1522 q 915 1501 915 1522 q 894 1369 915 1507 q 864 1343 890 1343 l 785 1343 z "},"Ȭ":{"ha":963,"x_min":132,"x_max":990,"o":"m 478 -8 q 290 17 364 -8 q 174 113 215 43 q 132 310 132 183 q 153 536 132 397 q 243 839 183 732 q 399 990 303 946 q 646 1033 494 1033 q 831 1006 757 1033 q 948 906 906 978 q 990 701 990 833 q 969 476 990 604 q 878 174 938 278 q 726 31 819 69 q 478 -8 632 -8 m 506 147 q 653 179 597 147 q 742 287 708 211 q 799 501 776 363 q 818 700 818 625 q 797 811 818 772 q 733 865 775 850 q 621 879 690 879 q 474 849 529 879 q 384 740 419 819 q 325 511 349 661 q 304 317 304 383 q 325 212 304 249 q 389 161 346 175 q 506 147 432 147 m 507 1449 l 890 1449 l 874 1347 l 490 1347 l 507 1449 m 407 1111 q 469 1235 425 1197 q 574 1274 514 1274 q 629 1265 604 1274 q 690 1238 654 1256 q 738 1215 719 1222 q 774 1208 756 1208 q 824 1226 804 1208 q 850 1279 844 1244 l 936 1279 q 876 1153 917 1194 q 772 1113 836 1113 q 719 1122 744 1113 q 654 1149 694 1131 q 606 1171 625 1164 q 569 1178 588 1178 q 520 1160 542 1178 q 493 1111 499 1142 l 407 1111 z "},"Œ":{"ha":1446,"x_min":132,"x_max":1526,"o":"m 1132 867 q 1051 841 1079 867 q 1013 758 1022 815 l 986 590 l 1393 579 l 1372 444 l 963 435 l 957 407 l 935 257 q 932 228 932 235 q 956 170 932 188 q 1026 153 979 153 l 1393 153 l 1369 10 q 960 -8 1108 -7 q 781 61 829 -8 q 652 8 725 24 q 478 -8 579 -8 q 290 17 364 -8 q 174 113 215 43 q 132 310 132 183 q 153 536 132 397 q 243 839 183 732 q 399 990 303 946 q 646 1033 494 1033 q 804 1015 738 1033 q 914 953 871 997 q 1101 1025 981 1025 q 1526 1010 1258 1025 l 1504 867 l 1132 867 m 506 147 q 653 179 597 147 q 742 287 708 211 q 799 501 776 363 q 818 700 818 625 q 797 811 818 772 q 733 865 775 850 q 621 879 690 879 q 474 849 529 879 q 384 740 419 819 q 325 511 349 661 q 304 317 304 383 q 325 212 304 249 q 389 161 346 175 q 506 147 432 147 z "},"P":{"ha":842,"x_min":90,"x_max":913,"o":"m 253 1025 l 656 1025 q 844 966 775 1025 q 913 765 913 907 q 900 661 913 733 q 785 415 874 489 q 578 340 696 340 q 321 361 458 340 l 263 0 l 90 0 l 253 1025 m 557 494 q 670 540 625 494 q 729 679 715 586 q 738 749 738 729 q 708 842 738 814 q 622 871 679 871 l 400 871 l 340 494 l 557 494 z "},"Ṗ":{"ha":842,"x_min":90,"x_max":913,"o":"m 253 1025 l 656 1025 q 844 966 775 1025 q 913 765 913 907 q 900 661 913 733 q 785 415 874 489 q 578 340 696 340 q 321 361 458 340 l 263 0 l 90 0 l 253 1025 m 557 494 q 670 540 625 494 q 729 679 715 586 q 738 749 738 729 q 708 842 738 814 q 622 871 679 871 l 400 871 l 340 494 l 557 494 m 526 1125 q 510 1131 517 1125 q 504 1146 504 1136 l 504 1151 l 524 1276 q 554 1304 528 1304 l 633 1304 q 656 1283 656 1304 l 656 1276 l 636 1151 q 606 1125 632 1125 l 526 1125 z "},"Þ":{"ha":782,"x_min":90,"x_max":825,"o":"m 556 844 q 753 788 681 844 q 825 597 825 732 q 814 493 825 557 q 700 272 790 339 q 492 206 610 206 q 299 225 418 206 l 263 0 l 90 0 l 253 1025 l 425 1025 l 396 844 l 556 844 m 643 511 q 650 581 650 553 q 618 665 650 639 q 522 690 586 690 l 372 690 l 319 361 l 469 361 q 584 398 538 361 q 643 511 631 435 z "},"Q":{"ha":963,"x_min":132,"x_max":990,"o":"m 478 -8 q 290 17 364 -8 q 174 113 215 43 q 132 310 132 183 q 153 536 132 397 q 243 839 183 732 q 399 990 303 946 q 646 1033 494 1033 q 831 1006 757 1033 q 948 906 906 978 q 990 701 990 833 q 969 476 990 604 q 878 174 938 278 q 726 31 819 69 q 478 -8 632 -8 m 506 147 q 653 179 597 147 q 742 287 708 211 q 799 501 776 363 q 818 700 818 625 q 797 811 818 772 q 733 865 775 850 q 621 879 690 879 q 474 849 529 879 q 384 740 419 819 q 325 511 349 661 q 304 317 304 383 q 325 212 304 249 q 389 161 346 175 q 506 147 432 147 m 685 -260 q 513 -209 578 -260 q 446 -53 449 -158 l 565 -53 q 601 -118 572 -99 q 683 -137 629 -137 q 792 -124 728 -137 l 772 -250 q 685 -260 735 -260 z "},"R":{"ha":872,"x_min":90,"x_max":906,"o":"m 253 1025 l 639 1025 q 906 778 906 1025 q 899 690 906 743 q 818 501 878 557 q 685 422 758 444 l 815 0 l 640 0 l 526 394 l 326 399 l 263 0 l 90 0 l 253 1025 m 551 533 q 668 570 626 533 q 725 703 710 607 q 728 753 728 721 q 604 871 728 871 l 400 871 l 347 533 l 551 533 z "},"Ŕ":{"ha":872,"x_min":90,"x_max":906,"o":"m 253 1025 l 639 1025 q 906 778 906 1025 q 899 690 906 743 q 818 501 878 557 q 685 422 758 444 l 815 0 l 640 0 l 526 394 l 326 399 l 263 0 l 90 0 l 253 1025 m 551 533 q 668 570 626 533 q 725 703 710 607 q 728 753 728 721 q 604 871 728 871 l 400 871 l 347 533 l 551 533 m 650 1292 l 799 1292 l 611 1099 l 503 1099 l 650 1292 z "},"Ř":{"ha":872,"x_min":90,"x_max":906,"o":"m 253 1025 l 639 1025 q 906 778 906 1025 q 899 690 906 743 q 818 501 878 557 q 685 422 758 444 l 815 0 l 640 0 l 526 394 l 326 399 l 263 0 l 90 0 l 253 1025 m 551 533 q 668 570 626 533 q 725 703 710 607 q 728 753 728 721 q 604 871 728 871 l 400 871 l 347 533 l 551 533 m 414 1292 l 514 1292 l 600 1176 l 731 1292 l 832 1292 l 644 1099 l 525 1099 l 414 1292 z "},"Ŗ":{"ha":872,"x_min":90,"x_max":906,"o":"m 253 1025 l 639 1025 q 906 778 906 1025 q 899 690 906 743 q 818 501 878 557 q 685 422 758 444 l 815 0 l 640 0 l 526 394 l 326 399 l 263 0 l 90 0 l 253 1025 m 551 533 q 668 570 626 533 q 725 703 710 607 q 728 753 728 721 q 604 871 728 871 l 400 871 l 347 533 l 551 533 m 239 -222 l 279 -214 q 330 -197 313 -207 q 358 -165 347 -187 q 376 -96 369 -142 l 482 -96 q 424 -249 465 -204 q 292 -293 383 -293 l 226 -293 l 239 -222 z "},"Ȑ":{"ha":872,"x_min":90,"x_max":906,"o":"m 253 1025 l 639 1025 q 906 778 906 1025 q 899 690 906 743 q 818 501 878 557 q 685 422 758 444 l 815 0 l 640 0 l 526 394 l 326 399 l 263 0 l 90 0 l 253 1025 m 551 533 q 668 570 626 533 q 725 703 710 607 q 728 753 728 721 q 604 871 728 871 l 400 871 l 347 533 l 551 533 m 275 1292 l 415 1292 l 510 1099 l 408 1099 l 275 1292 m 507 1292 l 647 1292 l 742 1099 l 640 1099 l 507 1292 z "},"Ṛ":{"ha":872,"x_min":90,"x_max":906,"o":"m 253 1025 l 639 1025 q 906 778 906 1025 q 899 690 906 743 q 818 501 878 557 q 685 422 758 444 l 815 0 l 640 0 l 526 394 l 326 399 l 263 0 l 90 0 l 253 1025 m 551 533 q 668 570 626 533 q 725 703 710 607 q 728 753 728 721 q 604 871 728 871 l 400 871 l 347 533 l 551 533 m 344 -306 q 328 -300 335 -306 q 322 -285 322 -294 l 322 -279 l 342 -154 q 372 -126 346 -126 l 451 -126 q 474 -147 474 -126 l 474 -154 l 454 -279 q 424 -306 450 -306 l 344 -306 z "},"Ȓ":{"ha":872,"x_min":90,"x_max":906,"o":"m 253 1025 l 639 1025 q 906 778 906 1025 q 899 690 906 743 q 818 501 878 557 q 685 422 758 444 l 815 0 l 640 0 l 526 394 l 326 399 l 263 0 l 90 0 l 253 1025 m 551 533 q 668 570 626 533 q 725 703 710 607 q 728 753 728 721 q 604 871 728 871 l 400 871 l 347 533 l 551 533 m 381 1093 q 456 1249 397 1199 q 604 1299 514 1299 q 722 1261 679 1299 q 765 1146 765 1224 q 760 1093 765 1132 l 679 1093 q 682 1126 682 1118 q 657 1197 682 1175 q 592 1219 632 1219 q 508 1190 543 1219 q 463 1093 474 1160 l 381 1093 z "},"Ṟ":{"ha":872,"x_min":90,"x_max":906,"o":"m 253 1025 l 639 1025 q 906 778 906 1025 q 899 690 906 743 q 818 501 878 557 q 685 422 758 444 l 815 0 l 640 0 l 526 394 l 326 399 l 263 0 l 90 0 l 253 1025 m 551 533 q 668 570 626 533 q 725 703 710 607 q 728 753 728 721 q 604 871 728 871 l 400 871 l 347 533 l 551 533 m 213 -182 l 596 -182 l 579 -283 l 196 -283 l 213 -182 z "},"S":{"ha":793,"x_min":90,"x_max":858,"o":"m 422 -8 q 238 0 326 -8 q 90 22 149 8 l 111 157 q 421 146 242 146 q 567 172 519 146 q 626 267 615 197 l 633 314 q 636 346 636 325 q 606 410 636 390 q 510 429 576 429 l 413 429 q 240 483 301 429 q 179 633 179 538 q 183 690 179 661 l 197 775 q 308 975 219 917 q 550 1033 396 1033 q 704 1025 617 1033 q 858 1001 792 1017 l 838 867 q 531 878 711 878 q 411 852 453 878 q 358 757 369 826 l 351 710 q 347 675 347 692 q 372 612 347 631 q 453 593 397 593 l 554 593 q 740 538 676 593 q 804 388 804 483 q 800 332 804 361 l 785 236 q 679 49 765 106 q 422 -8 593 -8 z "},"Ś":{"ha":793,"x_min":90,"x_max":858,"o":"m 422 -8 q 238 0 326 -8 q 90 22 149 8 l 111 157 q 421 146 242 146 q 567 172 519 146 q 626 267 615 197 l 633 314 q 636 346 636 325 q 606 410 636 390 q 510 429 576 429 l 413 429 q 240 483 301 429 q 179 633 179 538 q 183 690 179 661 l 197 775 q 308 975 219 917 q 550 1033 396 1033 q 704 1025 617 1033 q 858 1001 792 1017 l 838 867 q 531 878 711 878 q 411 852 453 878 q 358 757 369 826 l 351 710 q 347 675 347 692 q 372 612 347 631 q 453 593 397 593 l 554 593 q 740 538 676 593 q 804 388 804 483 q 800 332 804 361 l 785 236 q 679 49 765 106 q 422 -8 593 -8 m 647 1292 l 796 1292 l 608 1099 l 500 1099 l 647 1292 z "},"Ṥ":{"ha":793,"x_min":90,"x_max":858,"o":"m 422 -8 q 238 0 326 -8 q 90 22 149 8 l 111 157 q 421 146 242 146 q 567 172 519 146 q 626 267 615 197 l 633 314 q 636 346 636 325 q 606 410 636 390 q 510 429 576 429 l 413 429 q 240 483 301 429 q 179 633 179 538 q 183 690 179 661 l 197 775 q 308 975 219 917 q 550 1033 396 1033 q 704 1025 617 1033 q 858 1001 792 1017 l 838 867 q 531 878 711 878 q 411 852 453 878 q 358 757 369 826 l 351 710 q 347 675 347 692 q 372 612 347 631 q 453 593 397 593 l 554 593 q 740 538 676 593 q 804 388 804 483 q 800 332 804 361 l 785 236 q 679 49 765 106 q 422 -8 593 -8 m 606 1292 l 754 1292 l 567 1099 l 458 1099 l 606 1292 m 604 1340 q 588 1346 594 1340 q 582 1361 582 1351 l 582 1367 l 601 1492 q 632 1519 606 1519 l 711 1519 q 733 1499 733 1519 l 733 1492 l 714 1367 q 683 1340 710 1340 l 604 1340 z "},"Š":{"ha":793,"x_min":90,"x_max":858,"o":"m 422 -8 q 238 0 326 -8 q 90 22 149 8 l 111 157 q 421 146 242 146 q 567 172 519 146 q 626 267 615 197 l 633 314 q 636 346 636 325 q 606 410 636 390 q 510 429 576 429 l 413 429 q 240 483 301 429 q 179 633 179 538 q 183 690 179 661 l 197 775 q 308 975 219 917 q 550 1033 396 1033 q 704 1025 617 1033 q 858 1001 792 1017 l 838 867 q 531 878 711 878 q 411 852 453 878 q 358 757 369 826 l 351 710 q 347 675 347 692 q 372 612 347 631 q 453 593 397 593 l 554 593 q 740 538 676 593 q 804 388 804 483 q 800 332 804 361 l 785 236 q 679 49 765 106 q 422 -8 593 -8 m 411 1292 l 511 1292 l 597 1176 l 728 1292 l 829 1292 l 642 1099 l 522 1099 l 411 1292 z "},"Ṧ":{"ha":793,"x_min":90,"x_max":858,"o":"m 422 -8 q 238 0 326 -8 q 90 22 149 8 l 111 157 q 421 146 242 146 q 567 172 519 146 q 626 267 615 197 l 633 314 q 636 346 636 325 q 606 410 636 390 q 510 429 576 429 l 413 429 q 240 483 301 429 q 179 633 179 538 q 183 690 179 661 l 197 775 q 308 975 219 917 q 550 1033 396 1033 q 704 1025 617 1033 q 858 1001 792 1017 l 838 867 q 531 878 711 878 q 411 852 453 878 q 358 757 369 826 l 351 710 q 347 675 347 692 q 372 612 347 631 q 453 593 397 593 l 554 593 q 740 538 676 593 q 804 388 804 483 q 800 332 804 361 l 785 236 q 679 49 765 106 q 422 -8 593 -8 m 411 1292 l 511 1292 l 597 1176 l 728 1292 l 829 1292 l 642 1099 l 522 1099 l 411 1292 m 576 1346 q 560 1351 567 1346 q 554 1367 554 1357 l 554 1372 l 574 1497 q 604 1525 578 1525 l 683 1525 q 706 1504 706 1525 l 706 1497 l 686 1372 q 656 1346 682 1346 l 576 1346 z "},"Ş":{"ha":793,"x_min":90,"x_max":858,"o":"m 351 710 q 347 675 347 692 q 372 612 347 631 q 453 593 397 593 l 554 593 q 740 538 676 593 q 804 388 804 483 q 800 332 804 361 l 785 236 q 679 49 765 106 q 422 -8 593 -8 l 418 -8 l 361 -79 q 446 -158 446 -86 q 404 -241 446 -206 q 285 -276 363 -276 l 225 -276 l 236 -206 l 264 -203 q 317 -179 299 -199 q 336 -140 336 -160 q 271 -94 336 -101 l 342 -7 q 90 22 186 0 l 111 157 q 421 146 242 146 q 567 172 519 146 q 626 267 615 197 l 633 314 q 636 346 636 325 q 606 410 636 390 q 510 429 576 429 l 413 429 q 240 483 301 429 q 179 633 179 538 q 183 690 179 661 l 197 775 q 308 975 219 917 q 550 1033 396 1033 q 704 1025 617 1033 q 858 1001 792 1017 l 838 867 q 531 878 711 878 q 411 852 453 878 q 358 757 369 826 l 351 710 z "},"Ŝ":{"ha":793,"x_min":90,"x_max":858,"o":"m 422 -8 q 238 0 326 -8 q 90 22 149 8 l 111 157 q 421 146 242 146 q 567 172 519 146 q 626 267 615 197 l 633 314 q 636 346 636 325 q 606 410 636 390 q 510 429 576 429 l 413 429 q 240 483 301 429 q 179 633 179 538 q 183 690 179 661 l 197 775 q 308 975 219 917 q 550 1033 396 1033 q 704 1025 617 1033 q 858 1001 792 1017 l 838 867 q 531 878 711 878 q 411 852 453 878 q 358 757 369 826 l 351 710 q 347 675 347 692 q 372 612 347 631 q 453 593 397 593 l 554 593 q 740 538 676 593 q 804 388 804 483 q 800 332 804 361 l 785 236 q 679 49 765 106 q 422 -8 593 -8 m 529 1292 l 647 1292 l 760 1099 l 658 1099 l 574 1214 l 443 1099 l 342 1099 l 529 1292 z "},"Ș":{"ha":793,"x_min":90,"x_max":858,"o":"m 422 -8 q 238 0 326 -8 q 90 22 149 8 l 111 157 q 421 146 242 146 q 567 172 519 146 q 626 267 615 197 l 633 314 q 636 346 636 325 q 606 410 636 390 q 510 429 576 429 l 413 429 q 240 483 301 429 q 179 633 179 538 q 183 690 179 661 l 197 775 q 308 975 219 917 q 550 1033 396 1033 q 704 1025 617 1033 q 858 1001 792 1017 l 838 867 q 531 878 711 878 q 411 852 453 878 q 358 757 369 826 l 351 710 q 347 675 347 692 q 372 612 347 631 q 453 593 397 593 l 554 593 q 740 538 676 593 q 804 388 804 483 q 800 332 804 361 l 785 236 q 679 49 765 106 q 422 -8 593 -8 m 225 -222 l 265 -214 q 316 -197 299 -207 q 344 -165 333 -187 q 363 -96 356 -142 l 468 -96 q 410 -249 451 -204 q 278 -293 369 -293 l 213 -293 l 225 -222 z "},"Ṡ":{"ha":793,"x_min":90,"x_max":858,"o":"m 422 -8 q 238 0 326 -8 q 90 22 149 8 l 111 157 q 421 146 242 146 q 567 172 519 146 q 626 267 615 197 l 633 314 q 636 346 636 325 q 606 410 636 390 q 510 429 576 429 l 413 429 q 240 483 301 429 q 179 633 179 538 q 183 690 179 661 l 197 775 q 308 975 219 917 q 550 1033 396 1033 q 704 1025 617 1033 q 858 1001 792 1017 l 838 867 q 531 878 711 878 q 411 852 453 878 q 358 757 369 826 l 351 710 q 347 675 347 692 q 372 612 347 631 q 453 593 397 593 l 554 593 q 740 538 676 593 q 804 388 804 483 q 800 332 804 361 l 785 236 q 679 49 765 106 q 422 -8 593 -8 m 526 1125 q 510 1131 517 1125 q 504 1146 504 1136 l 504 1151 l 524 1276 q 554 1304 528 1304 l 633 1304 q 656 1283 656 1304 l 656 1276 l 636 1151 q 606 1125 632 1125 l 526 1125 z "},"Ṣ":{"ha":793,"x_min":90,"x_max":858,"o":"m 422 -8 q 238 0 326 -8 q 90 22 149 8 l 111 157 q 421 146 242 146 q 567 172 519 146 q 626 267 615 197 l 633 314 q 636 346 636 325 q 606 410 636 390 q 510 429 576 429 l 413 429 q 240 483 301 429 q 179 633 179 538 q 183 690 179 661 l 197 775 q 308 975 219 917 q 550 1033 396 1033 q 704 1025 617 1033 q 858 1001 792 1017 l 838 867 q 531 878 711 878 q 411 852 453 878 q 358 757 369 826 l 351 710 q 347 675 347 692 q 372 612 347 631 q 453 593 397 593 l 554 593 q 740 538 676 593 q 804 388 804 483 q 800 332 804 361 l 785 236 q 679 49 765 106 q 422 -8 593 -8 m 294 -306 q 278 -300 285 -306 q 272 -285 272 -294 l 272 -279 l 292 -154 q 322 -126 296 -126 l 401 -126 q 424 -147 424 -126 l 424 -154 l 404 -279 q 374 -306 400 -306 l 294 -306 z "},"Ṩ":{"ha":793,"x_min":90,"x_max":858,"o":"m 422 -8 q 238 0 326 -8 q 90 22 149 8 l 111 157 q 421 146 242 146 q 567 172 519 146 q 626 267 615 197 l 633 314 q 636 346 636 325 q 606 410 636 390 q 510 429 576 429 l 413 429 q 240 483 301 429 q 179 633 179 538 q 183 690 179 661 l 197 775 q 308 975 219 917 q 550 1033 396 1033 q 704 1025 617 1033 q 858 1001 792 1017 l 838 867 q 531 878 711 878 q 411 852 453 878 q 358 757 369 826 l 351 710 q 347 675 347 692 q 372 612 347 631 q 453 593 397 593 l 554 593 q 740 538 676 593 q 804 388 804 483 q 800 332 804 361 l 785 236 q 679 49 765 106 q 422 -8 593 -8 m 294 -306 q 278 -300 285 -306 q 272 -285 272 -294 l 272 -279 l 292 -154 q 322 -126 296 -126 l 401 -126 q 424 -147 424 -126 l 424 -154 l 404 -279 q 374 -306 400 -306 l 294 -306 m 526 1125 q 510 1131 517 1125 q 504 1146 504 1136 l 504 1151 l 524 1276 q 554 1304 528 1304 l 633 1304 q 656 1283 656 1304 l 656 1276 l 636 1151 q 606 1125 632 1125 l 526 1125 z "},"ẞ":{"ha":978,"x_min":96,"x_max":997,"o":"m 817 690 l 693 564 l 725 564 q 903 517 839 564 q 967 374 967 469 q 950 249 967 354 q 831 47 922 101 q 586 -8 740 -8 q 478 -1 542 -8 q 375 15 415 6 l 399 167 q 588 146 500 146 q 719 172 671 146 q 779 267 768 199 q 788 339 788 328 q 760 403 788 382 q 675 425 733 425 l 499 425 l 519 564 l 658 564 l 679 753 l 788 871 l 510 871 q 428 845 458 871 q 389 771 397 819 l 267 0 l 96 0 l 217 768 q 321 963 238 901 q 525 1025 404 1025 q 956 1014 706 1025 l 997 1013 l 986 997 l 996 1003 l 817 690 z "},"Ə":{"ha":864,"x_min":126,"x_max":896,"o":"m 424 -8 q 202 65 278 -8 q 126 299 126 138 q 140 457 126 357 l 158 571 l 713 571 q 724 692 724 649 q 666 840 724 799 q 476 881 608 881 q 356 876 403 881 q 250 865 308 872 l 271 997 q 547 1035 394 1035 q 738 1007 661 1035 q 855 909 814 979 q 896 714 896 839 q 878 514 896 640 q 781 195 844 310 q 629 36 717 81 q 424 -8 542 -8 m 444 146 q 596 208 538 146 q 688 432 654 271 l 311 432 q 300 311 300 369 q 333 185 300 225 q 444 146 367 146 z "},"T":{"ha":844,"x_min":171,"x_max":960,"o":"m 467 871 l 171 871 l 196 1025 l 960 1025 l 935 871 l 639 871 l 501 0 l 329 0 l 467 871 z "},"Ŧ":{"ha":835,"x_min":161,"x_max":960,"o":"m 639 871 l 593 579 l 839 579 l 825 490 l 579 490 l 501 0 l 329 0 l 407 490 l 161 490 l 175 579 l 421 579 l 467 871 l 171 871 l 196 1025 l 960 1025 l 935 871 l 639 871 z "},"Ť":{"ha":844,"x_min":171,"x_max":960,"o":"m 467 871 l 171 871 l 196 1025 l 960 1025 l 935 871 l 639 871 l 501 0 l 329 0 l 467 871 m 431 1292 l 531 1292 l 617 1176 l 747 1292 l 849 1292 l 661 1099 l 542 1099 l 431 1292 z "},"Ţ":{"ha":844,"x_min":171,"x_max":960,"o":"m 960 1025 l 935 871 l 639 871 l 501 0 l 444 0 l 381 -79 q 465 -158 465 -86 q 424 -241 465 -206 q 304 -276 382 -276 l 244 -276 l 256 -206 l 283 -203 q 337 -179 318 -199 q 356 -140 356 -160 q 290 -94 356 -101 l 365 0 l 329 0 l 467 871 l 171 871 l 196 1025 l 960 1025 z "},"Ț":{"ha":844,"x_min":171,"x_max":960,"o":"m 467 871 l 171 871 l 196 1025 l 960 1025 l 935 871 l 639 871 l 501 0 l 329 0 l 467 871 m 244 -222 l 285 -214 q 335 -197 318 -207 q 364 -165 353 -187 q 382 -96 375 -142 l 488 -96 q 430 -249 471 -204 q 297 -293 389 -293 l 232 -293 l 244 -222 z "},"Ṫ":{"ha":844,"x_min":171,"x_max":960,"o":"m 467 871 l 171 871 l 196 1025 l 960 1025 l 935 871 l 639 871 l 501 0 l 329 0 l 467 871 m 546 1125 q 530 1131 536 1125 q 524 1146 524 1136 l 524 1151 l 543 1276 q 574 1304 547 1304 l 653 1304 q 675 1283 675 1304 l 675 1276 l 656 1151 q 625 1125 651 1125 l 546 1125 z "},"Ṭ":{"ha":844,"x_min":171,"x_max":960,"o":"m 467 871 l 171 871 l 196 1025 l 960 1025 l 935 871 l 639 871 l 501 0 l 329 0 l 467 871 m 314 -306 q 298 -300 304 -306 q 292 -285 292 -294 l 292 -279 l 311 -154 q 342 -126 315 -126 l 421 -126 q 443 -147 443 -126 l 443 -154 l 424 -279 q 393 -306 419 -306 l 314 -306 z "},"Ṯ":{"ha":844,"x_min":171,"x_max":960,"o":"m 467 871 l 171 871 l 196 1025 l 960 1025 l 935 871 l 639 871 l 501 0 l 329 0 l 467 871 m 194 -182 l 578 -182 l 561 -283 l 178 -283 l 194 -182 z "},"U":{"ha":950,"x_min":147,"x_max":1022,"o":"m 476 -8 q 228 63 310 -8 q 147 293 147 133 q 165 469 147 365 l 253 1025 l 425 1025 l 333 444 q 319 306 319 342 q 363 183 319 221 q 499 146 406 146 q 624 169 575 146 q 706 258 672 193 q 758 444 739 322 l 850 1025 l 1022 1025 l 926 419 q 840 149 899 242 q 697 24 782 57 q 476 -8 611 -8 z "},"Ú":{"ha":950,"x_min":147,"x_max":1022,"o":"m 476 -8 q 228 63 310 -8 q 147 293 147 133 q 165 469 147 365 l 253 1025 l 425 1025 l 333 444 q 319 306 319 342 q 363 183 319 221 q 499 146 406 146 q 624 169 575 146 q 706 258 672 193 q 758 444 739 322 l 850 1025 l 1022 1025 l 926 419 q 840 149 899 242 q 697 24 782 57 q 476 -8 611 -8 m 719 1292 l 868 1292 l 681 1099 l 572 1099 l 719 1292 z "},"Ŭ":{"ha":950,"x_min":147,"x_max":1022,"o":"m 476 -8 q 228 63 310 -8 q 147 293 147 133 q 165 469 147 365 l 253 1025 l 425 1025 l 333 444 q 319 306 319 342 q 363 183 319 221 q 499 146 406 146 q 624 169 575 146 q 706 258 672 193 q 758 444 739 322 l 850 1025 l 1022 1025 l 926 419 q 840 149 899 242 q 697 24 782 57 q 476 -8 611 -8 m 632 1090 q 514 1128 557 1090 q 471 1243 471 1165 q 476 1296 471 1257 l 557 1296 q 554 1263 554 1271 q 579 1192 554 1215 q 643 1169 604 1169 q 728 1199 693 1169 q 774 1296 763 1229 l 856 1296 q 781 1140 839 1190 q 632 1090 722 1090 z "},"Û":{"ha":950,"x_min":147,"x_max":1022,"o":"m 476 -8 q 228 63 310 -8 q 147 293 147 133 q 165 469 147 365 l 253 1025 l 425 1025 l 333 444 q 319 306 319 342 q 363 183 319 221 q 499 146 406 146 q 624 169 575 146 q 706 258 672 193 q 758 444 739 322 l 850 1025 l 1022 1025 l 926 419 q 840 149 899 242 q 697 24 782 57 q 476 -8 611 -8 m 601 1292 l 719 1292 l 832 1099 l 731 1099 l 646 1214 l 515 1099 l 414 1099 l 601 1292 z "},"Ȕ":{"ha":950,"x_min":147,"x_max":1022,"o":"m 476 -8 q 228 63 310 -8 q 147 293 147 133 q 165 469 147 365 l 253 1025 l 425 1025 l 333 444 q 319 306 319 342 q 363 183 319 221 q 499 146 406 146 q 624 169 575 146 q 706 258 672 193 q 758 444 739 322 l 850 1025 l 1022 1025 l 926 419 q 840 149 899 242 q 697 24 782 57 q 476 -8 611 -8 m 344 1292 l 485 1292 l 579 1099 l 478 1099 l 344 1292 m 576 1292 l 717 1292 l 811 1099 l 710 1099 l 576 1292 z "},"Ü":{"ha":950,"x_min":147,"x_max":1022,"o":"m 476 -8 q 228 63 310 -8 q 147 293 147 133 q 165 469 147 365 l 253 1025 l 425 1025 l 333 444 q 319 306 319 342 q 363 183 319 221 q 499 146 406 146 q 624 169 575 146 q 706 258 672 193 q 758 444 739 322 l 850 1025 l 1022 1025 l 926 419 q 840 149 899 242 q 697 24 782 57 q 476 -8 611 -8 m 446 1115 q 430 1121 436 1115 q 424 1136 424 1126 q 444 1267 424 1132 q 475 1294 449 1294 l 554 1294 q 576 1274 576 1294 l 556 1142 q 525 1115 554 1115 l 446 1115 m 726 1115 q 710 1121 717 1115 q 704 1136 704 1126 l 725 1267 q 754 1294 729 1294 l 835 1294 q 857 1274 857 1294 q 836 1142 857 1279 q 806 1115 832 1115 l 726 1115 z "},"Ụ":{"ha":950,"x_min":147,"x_max":1022,"o":"m 476 -8 q 228 63 310 -8 q 147 293 147 133 q 165 469 147 365 l 253 1025 l 425 1025 l 333 444 q 319 306 319 342 q 363 183 319 221 q 499 146 406 146 q 624 169 575 146 q 706 258 672 193 q 758 444 739 322 l 850 1025 l 1022 1025 l 926 419 q 840 149 899 242 q 697 24 782 57 q 476 -8 611 -8 m 367 -306 q 351 -300 357 -306 q 344 -285 344 -294 l 344 -279 l 364 -154 q 394 -126 368 -126 l 474 -126 q 496 -147 496 -126 l 496 -154 l 476 -279 q 446 -306 472 -306 l 367 -306 z "},"Ù":{"ha":950,"x_min":147,"x_max":1022,"o":"m 476 -8 q 228 63 310 -8 q 147 293 147 133 q 165 469 147 365 l 253 1025 l 425 1025 l 333 444 q 319 306 319 342 q 363 183 319 221 q 499 146 406 146 q 624 169 575 146 q 706 258 672 193 q 758 444 739 322 l 850 1025 l 1022 1025 l 926 419 q 840 149 899 242 q 697 24 782 57 q 476 -8 611 -8 m 481 1292 l 621 1292 l 715 1099 l 614 1099 l 481 1292 z "},"Ủ":{"ha":950,"x_min":147,"x_max":1022,"o":"m 476 -8 q 228 63 310 -8 q 147 293 147 133 q 165 469 147 365 l 253 1025 l 425 1025 l 333 444 q 319 306 319 342 q 363 183 319 221 q 499 146 406 146 q 624 169 575 146 q 706 258 672 193 q 758 444 739 322 l 850 1025 l 1022 1025 l 926 419 q 840 149 899 242 q 697 24 782 57 q 476 -8 611 -8 m 611 1142 q 685 1218 685 1164 q 639 1254 685 1254 q 590 1246 624 1254 l 601 1314 q 674 1325 638 1325 q 779 1233 779 1325 q 599 1065 779 1114 l 611 1142 z "},"Ư":{"ha":947,"x_min":147,"x_max":1171,"o":"m 1171 1181 q 1113 1024 1154 1083 q 1010 944 1071 965 l 926 419 q 840 149 899 242 q 697 24 782 57 q 476 -8 611 -8 q 228 63 310 -8 q 147 293 147 133 q 165 469 147 365 l 253 1025 l 425 1025 l 333 444 q 319 306 319 342 q 363 183 319 221 q 499 146 406 146 q 624 169 575 146 q 706 258 672 193 q 758 444 739 322 l 850 1025 l 922 1025 q 1006 1061 974 1025 q 1050 1181 1038 1097 l 1171 1181 z "},"Ứ":{"ha":947,"x_min":147,"x_max":1171,"o":"m 1171 1181 q 1113 1024 1154 1083 q 1010 944 1071 965 l 926 419 q 840 149 899 242 q 697 24 782 57 q 476 -8 611 -8 q 228 63 310 -8 q 147 293 147 133 q 165 469 147 365 l 253 1025 l 425 1025 l 333 444 q 319 306 319 342 q 363 183 319 221 q 499 146 406 146 q 624 169 575 146 q 706 258 672 193 q 758 444 739 322 l 850 1025 l 922 1025 q 1006 1061 974 1025 q 1050 1181 1038 1097 l 1171 1181 m 708 1292 l 857 1292 l 669 1099 l 561 1099 l 708 1292 z "},"Ự":{"ha":947,"x_min":147,"x_max":1171,"o":"m 1171 1181 q 1113 1024 1154 1083 q 1010 944 1071 965 l 926 419 q 840 149 899 242 q 697 24 782 57 q 476 -8 611 -8 q 228 63 310 -8 q 147 293 147 133 q 165 469 147 365 l 253 1025 l 425 1025 l 333 444 q 319 306 319 342 q 363 183 319 221 q 499 146 406 146 q 624 169 575 146 q 706 258 672 193 q 758 444 739 322 l 850 1025 l 922 1025 q 1006 1061 974 1025 q 1050 1181 1038 1097 l 1171 1181 m 392 -306 q 376 -300 382 -306 q 369 -285 369 -294 l 369 -279 l 389 -154 q 419 -126 393 -126 l 499 -126 q 521 -147 521 -126 l 521 -154 l 501 -279 q 471 -306 497 -306 l 392 -306 z "},"Ừ":{"ha":947,"x_min":147,"x_max":1171,"o":"m 1171 1181 q 1113 1024 1154 1083 q 1010 944 1071 965 l 926 419 q 840 149 899 242 q 697 24 782 57 q 476 -8 611 -8 q 228 63 310 -8 q 147 293 147 133 q 165 469 147 365 l 253 1025 l 425 1025 l 333 444 q 319 306 319 342 q 363 183 319 221 q 499 146 406 146 q 624 169 575 146 q 706 258 672 193 q 758 444 739 322 l 850 1025 l 922 1025 q 1006 1061 974 1025 q 1050 1181 1038 1097 l 1171 1181 m 469 1292 l 610 1292 l 704 1099 l 603 1099 l 469 1292 z "},"Ử":{"ha":947,"x_min":147,"x_max":1171,"o":"m 1171 1181 q 1113 1024 1154 1083 q 1010 944 1071 965 l 926 419 q 840 149 899 242 q 697 24 782 57 q 476 -8 611 -8 q 228 63 310 -8 q 147 293 147 133 q 165 469 147 365 l 253 1025 l 425 1025 l 333 444 q 319 306 319 342 q 363 183 319 221 q 499 146 406 146 q 624 169 575 146 q 706 258 672 193 q 758 444 739 322 l 850 1025 l 922 1025 q 1006 1061 974 1025 q 1050 1181 1038 1097 l 1171 1181 m 600 1142 q 674 1218 674 1164 q 628 1254 674 1254 q 579 1246 613 1254 l 590 1314 q 663 1325 626 1325 q 768 1233 768 1325 q 588 1065 768 1114 l 600 1142 z "},"Ữ":{"ha":947,"x_min":147,"x_max":1171,"o":"m 1171 1181 q 1113 1024 1154 1083 q 1010 944 1071 965 l 926 419 q 840 149 899 242 q 697 24 782 57 q 476 -8 611 -8 q 228 63 310 -8 q 147 293 147 133 q 165 469 147 365 l 253 1025 l 425 1025 l 333 444 q 319 306 319 342 q 363 183 319 221 q 499 146 406 146 q 624 169 575 146 q 706 258 672 193 q 758 444 739 322 l 850 1025 l 922 1025 q 1006 1061 974 1025 q 1050 1181 1038 1097 l 1171 1181 m 388 1111 q 450 1235 406 1197 q 554 1274 494 1274 q 610 1265 585 1274 q 671 1238 635 1256 q 718 1215 700 1222 q 754 1208 736 1208 q 805 1226 785 1208 q 831 1279 825 1244 l 917 1279 q 857 1153 897 1194 q 753 1113 817 1113 q 700 1122 725 1113 q 635 1149 675 1131 q 587 1171 606 1164 q 550 1178 568 1178 q 501 1160 522 1178 q 474 1111 479 1142 l 388 1111 z "},"Ű":{"ha":950,"x_min":147,"x_max":1022,"o":"m 476 -8 q 228 63 310 -8 q 147 293 147 133 q 165 469 147 365 l 253 1025 l 425 1025 l 333 444 q 319 306 319 342 q 363 183 319 221 q 499 146 406 146 q 624 169 575 146 q 706 258 672 193 q 758 444 739 322 l 850 1025 l 1022 1025 l 926 419 q 840 149 899 242 q 697 24 782 57 q 476 -8 611 -8 m 600 1292 l 732 1292 l 553 1099 l 453 1099 l 600 1292 m 821 1292 l 953 1292 l 774 1099 l 674 1099 l 821 1292 z "},"Ȗ":{"ha":950,"x_min":147,"x_max":1022,"o":"m 476 -8 q 228 63 310 -8 q 147 293 147 133 q 165 469 147 365 l 253 1025 l 425 1025 l 333 444 q 319 306 319 342 q 363 183 319 221 q 499 146 406 146 q 624 169 575 146 q 706 258 672 193 q 758 444 739 322 l 850 1025 l 1022 1025 l 926 419 q 840 149 899 242 q 697 24 782 57 q 476 -8 611 -8 m 450 1093 q 525 1249 467 1199 q 674 1299 583 1299 q 792 1261 749 1299 q 835 1146 835 1224 q 829 1093 835 1132 l 749 1093 q 751 1126 751 1118 q 726 1197 751 1175 q 661 1219 701 1219 q 578 1190 613 1219 q 532 1093 543 1160 l 450 1093 z "},"Ū":{"ha":950,"x_min":147,"x_max":1022,"o":"m 476 -8 q 228 63 310 -8 q 147 293 147 133 q 165 469 147 365 l 253 1025 l 425 1025 l 333 444 q 319 306 319 342 q 363 183 319 221 q 499 146 406 146 q 624 169 575 146 q 706 258 672 193 q 758 444 739 322 l 850 1025 l 1022 1025 l 926 419 q 840 149 899 242 q 697 24 782 57 q 476 -8 611 -8 m 465 1235 l 849 1235 l 832 1133 l 449 1133 l 465 1235 z "},"Ṻ":{"ha":950,"x_min":147,"x_max":1022,"o":"m 476 -8 q 228 63 310 -8 q 147 293 147 133 q 165 469 147 365 l 253 1025 l 425 1025 l 333 444 q 319 306 319 342 q 363 183 319 221 q 499 146 406 146 q 624 169 575 146 q 706 258 672 193 q 758 444 739 322 l 850 1025 l 1022 1025 l 926 419 q 840 149 899 242 q 697 24 782 57 q 476 -8 611 -8 m 465 1235 l 849 1235 l 832 1133 l 449 1133 l 465 1235 m 486 1321 q 470 1326 476 1321 q 464 1342 464 1332 q 485 1472 464 1338 q 515 1500 489 1500 l 594 1500 q 617 1479 617 1500 l 596 1347 q 565 1321 594 1321 l 486 1321 m 767 1321 q 751 1326 757 1321 q 744 1342 744 1332 l 765 1472 q 794 1500 769 1500 l 875 1500 q 897 1479 897 1500 q 876 1347 897 1485 q 846 1321 872 1321 l 767 1321 z "},"Ų":{"ha":950,"x_min":147,"x_max":1022,"o":"m 1022 1025 l 926 419 q 860 186 903 274 q 756 56 818 99 q 604 0 693 13 q 535 -57 558 -25 q 513 -114 513 -89 q 534 -161 513 -144 q 594 -178 556 -178 l 606 -178 l 592 -260 q 550 -264 578 -264 q 453 -235 486 -264 q 421 -160 421 -206 q 448 -75 421 -115 q 526 -7 475 -35 q 476 -8 510 -8 q 228 63 310 -8 q 147 293 147 133 q 165 469 147 365 l 253 1025 l 425 1025 l 333 444 q 319 306 319 342 q 363 183 319 221 q 499 146 406 146 q 624 169 575 146 q 706 258 672 193 q 758 444 739 322 l 850 1025 l 1022 1025 z "},"Ů":{"ha":950,"x_min":147,"x_max":1022,"o":"m 476 -8 q 228 63 310 -8 q 147 293 147 133 q 165 469 147 365 l 253 1025 l 425 1025 l 333 444 q 319 306 319 342 q 363 183 319 221 q 499 146 406 146 q 624 169 575 146 q 706 258 672 193 q 758 444 739 322 l 850 1025 l 1022 1025 l 926 419 q 840 149 899 242 q 697 24 782 57 q 476 -8 611 -8 m 639 1067 q 528 1097 567 1067 q 489 1199 489 1128 q 540 1325 489 1274 q 679 1376 590 1376 q 826 1246 826 1376 q 777 1117 826 1168 q 639 1067 728 1067 m 646 1132 q 719 1163 694 1132 q 744 1242 744 1194 q 672 1311 744 1311 q 597 1279 622 1311 q 571 1201 571 1247 q 646 1132 571 1132 z "},"Ũ":{"ha":950,"x_min":147,"x_max":1022,"o":"m 476 -8 q 228 63 310 -8 q 147 293 147 133 q 165 469 147 365 l 253 1025 l 425 1025 l 333 444 q 319 306 319 342 q 363 183 319 221 q 499 146 406 146 q 624 169 575 146 q 706 258 672 193 q 758 444 739 322 l 850 1025 l 1022 1025 l 926 419 q 840 149 899 242 q 697 24 782 57 q 476 -8 611 -8 m 399 1111 q 461 1235 417 1197 q 565 1274 506 1274 q 621 1265 596 1274 q 682 1238 646 1256 q 729 1215 711 1222 q 765 1208 747 1208 q 816 1226 796 1208 q 842 1279 836 1244 l 928 1279 q 868 1153 908 1194 q 764 1113 828 1113 q 711 1122 736 1113 q 646 1149 686 1131 q 598 1171 617 1164 q 561 1178 579 1178 q 512 1160 533 1178 q 485 1111 490 1142 l 399 1111 z "},"Ṹ":{"ha":950,"x_min":147,"x_max":1022,"o":"m 476 -8 q 228 63 310 -8 q 147 293 147 133 q 165 469 147 365 l 253 1025 l 425 1025 l 333 444 q 319 306 319 342 q 363 183 319 221 q 499 146 406 146 q 624 169 575 146 q 706 258 672 193 q 758 444 739 322 l 850 1025 l 1022 1025 l 926 419 q 840 149 899 242 q 697 24 782 57 q 476 -8 611 -8 m 399 1111 q 461 1235 417 1197 q 565 1274 506 1274 q 621 1265 596 1274 q 682 1238 646 1256 q 729 1215 711 1222 q 765 1208 747 1208 q 816 1226 796 1208 q 842 1279 836 1244 l 928 1279 q 868 1153 908 1194 q 764 1113 828 1113 q 711 1122 736 1113 q 646 1149 686 1131 q 598 1171 617 1164 q 561 1178 579 1178 q 512 1160 533 1178 q 485 1111 490 1142 l 399 1111 m 761 1531 l 910 1531 l 722 1338 l 614 1338 l 761 1531 z "},"V":{"ha":957,"x_min":200,"x_max":1083,"o":"m 200 1025 l 378 1025 l 506 188 l 907 1025 l 1083 1025 l 583 0 l 367 0 l 200 1025 z "},"W":{"ha":1418,"x_min":201,"x_max":1511,"o":"m 201 1025 l 379 1025 l 458 251 l 775 1025 l 936 1025 l 1000 253 l 1332 1025 l 1511 1025 l 1069 0 l 892 0 l 815 772 l 488 0 l 310 0 l 201 1025 z "},"Ẃ":{"ha":1418,"x_min":201,"x_max":1511,"o":"m 201 1025 l 379 1025 l 458 251 l 775 1025 l 936 1025 l 1000 253 l 1332 1025 l 1511 1025 l 1069 0 l 892 0 l 815 772 l 488 0 l 310 0 l 201 1025 m 961 1292 l 1110 1292 l 922 1099 l 814 1099 l 961 1292 z "},"Ŵ":{"ha":1418,"x_min":201,"x_max":1511,"o":"m 201 1025 l 379 1025 l 458 251 l 775 1025 l 936 1025 l 1000 253 l 1332 1025 l 1511 1025 l 1069 0 l 892 0 l 815 772 l 488 0 l 310 0 l 201 1025 m 843 1292 l 961 1292 l 1074 1099 l 972 1099 l 888 1214 l 757 1099 l 656 1099 l 843 1292 z "},"Ẅ":{"ha":1418,"x_min":201,"x_max":1511,"o":"m 201 1025 l 379 1025 l 458 251 l 775 1025 l 936 1025 l 1000 253 l 1332 1025 l 1511 1025 l 1069 0 l 892 0 l 815 772 l 488 0 l 310 0 l 201 1025 m 688 1115 q 672 1121 678 1115 q 665 1136 665 1126 q 686 1267 665 1132 q 717 1294 690 1294 l 796 1294 q 818 1274 818 1294 l 797 1142 q 767 1115 796 1115 l 688 1115 m 968 1115 q 952 1121 958 1115 q 946 1136 946 1126 l 967 1267 q 996 1294 971 1294 l 1076 1294 q 1099 1274 1099 1294 q 1078 1142 1099 1279 q 1047 1115 1074 1115 l 968 1115 z "},"Ẁ":{"ha":1418,"x_min":201,"x_max":1511,"o":"m 201 1025 l 379 1025 l 458 251 l 775 1025 l 936 1025 l 1000 253 l 1332 1025 l 1511 1025 l 1069 0 l 892 0 l 815 772 l 488 0 l 310 0 l 201 1025 m 722 1292 l 863 1292 l 957 1099 l 856 1099 l 722 1292 z "},"X":{"ha":890,"x_min":33,"x_max":1032,"o":"m 624 501 l 863 0 l 675 0 l 503 371 l 226 0 l 33 0 l 432 519 l 192 1025 l 381 1025 l 556 647 l 839 1025 l 1032 1025 l 624 501 z "},"Y":{"ha":876,"x_min":188,"x_max":1014,"o":"m 392 313 l 188 1025 l 376 1025 l 506 500 l 818 1025 l 1014 1025 l 564 313 l 514 0 l 342 0 l 392 313 z "},"Ý":{"ha":876,"x_min":188,"x_max":1014,"o":"m 392 313 l 188 1025 l 376 1025 l 506 500 l 818 1025 l 1014 1025 l 564 313 l 514 0 l 342 0 l 392 313 m 685 1292 l 833 1292 l 646 1099 l 538 1099 l 685 1292 z "},"Ŷ":{"ha":876,"x_min":188,"x_max":1014,"o":"m 392 313 l 188 1025 l 376 1025 l 506 500 l 818 1025 l 1014 1025 l 564 313 l 514 0 l 342 0 l 392 313 m 567 1292 l 685 1292 l 797 1099 l 696 1099 l 611 1214 l 481 1099 l 379 1099 l 567 1292 z "},"Ÿ":{"ha":876,"x_min":188,"x_max":1014,"o":"m 392 313 l 188 1025 l 376 1025 l 506 500 l 818 1025 l 1014 1025 l 564 313 l 514 0 l 342 0 l 392 313 m 411 1115 q 395 1121 401 1115 q 389 1136 389 1126 q 410 1267 389 1132 q 440 1294 414 1294 l 519 1294 q 542 1274 542 1294 l 521 1142 q 490 1115 519 1115 l 411 1115 m 692 1115 q 676 1121 682 1115 q 669 1136 669 1126 l 690 1267 q 719 1294 694 1294 l 800 1294 q 822 1274 822 1294 q 801 1142 822 1279 q 771 1115 797 1115 l 692 1115 z "},"Ẏ":{"ha":876,"x_min":188,"x_max":1014,"o":"m 392 313 l 188 1025 l 376 1025 l 506 500 l 818 1025 l 1014 1025 l 564 313 l 514 0 l 342 0 l 392 313 m 332 -306 q 316 -300 322 -306 q 310 -285 310 -294 l 310 -279 l 329 -154 q 360 -126 333 -126 l 439 -126 q 461 -147 461 -126 l 461 -154 l 442 -279 q 411 -306 438 -306 l 332 -306 z "},"Ỵ":{"ha":876,"x_min":188,"x_max":1014,"o":"m 392 313 l 188 1025 l 376 1025 l 506 500 l 818 1025 l 1014 1025 l 564 313 l 514 0 l 342 0 l 392 313 m 332 -306 q 316 -300 322 -306 q 310 -285 310 -294 l 310 -279 l 329 -154 q 360 -126 333 -126 l 439 -126 q 461 -147 461 -126 l 461 -154 l 442 -279 q 411 -306 438 -306 l 332 -306 z "},"Ỳ":{"ha":876,"x_min":188,"x_max":1014,"o":"m 392 313 l 188 1025 l 376 1025 l 506 500 l 818 1025 l 1014 1025 l 564 313 l 514 0 l 342 0 l 392 313 m 446 1292 l 586 1292 l 681 1099 l 579 1099 l 446 1292 z "},"Ỷ":{"ha":876,"x_min":188,"x_max":1014,"o":"m 392 313 l 188 1025 l 376 1025 l 506 500 l 818 1025 l 1014 1025 l 564 313 l 514 0 l 342 0 l 392 313 m 576 1142 q 650 1218 650 1164 q 604 1254 650 1254 q 556 1246 589 1254 l 567 1314 q 639 1325 603 1325 q 744 1233 744 1325 q 564 1065 744 1114 l 576 1142 z "},"Ȳ":{"ha":876,"x_min":188,"x_max":1014,"o":"m 392 313 l 188 1025 l 376 1025 l 506 500 l 818 1025 l 1014 1025 l 564 313 l 514 0 l 342 0 l 392 313 m 431 1235 l 814 1235 l 797 1133 l 414 1133 l 431 1235 z "},"Ỹ":{"ha":876,"x_min":188,"x_max":1014,"o":"m 392 313 l 188 1025 l 376 1025 l 506 500 l 818 1025 l 1014 1025 l 564 313 l 514 0 l 342 0 l 392 313 m 364 1111 q 426 1235 382 1197 q 531 1274 471 1274 q 586 1265 561 1274 q 647 1238 611 1256 q 694 1215 676 1222 q 731 1208 713 1208 q 781 1226 761 1208 q 807 1279 801 1244 l 893 1279 q 833 1153 874 1194 q 729 1113 793 1113 q 676 1122 701 1113 q 611 1149 651 1131 q 563 1171 582 1164 q 526 1178 544 1178 q 477 1160 499 1178 q 450 1111 456 1142 l 364 1111 z "},"Z":{"ha":785,"x_min":50,"x_max":883,"o":"m 74 146 l 661 871 l 188 871 l 213 1025 l 883 1025 l 860 879 l 272 154 l 758 154 l 735 0 l 50 0 l 74 146 z "},"Ź":{"ha":785,"x_min":50,"x_max":883,"o":"m 74 146 l 661 871 l 188 871 l 213 1025 l 883 1025 l 860 879 l 272 154 l 758 154 l 735 0 l 50 0 l 74 146 m 640 1292 l 789 1292 l 601 1099 l 493 1099 l 640 1292 z "},"Ž":{"ha":785,"x_min":50,"x_max":883,"o":"m 74 146 l 661 871 l 188 871 l 213 1025 l 883 1025 l 860 879 l 272 154 l 758 154 l 735 0 l 50 0 l 74 146 m 404 1292 l 504 1292 l 590 1176 l 721 1292 l 822 1292 l 635 1099 l 515 1099 l 404 1292 z "},"Ż":{"ha":785,"x_min":50,"x_max":883,"o":"m 74 146 l 661 871 l 188 871 l 213 1025 l 883 1025 l 860 879 l 272 154 l 758 154 l 735 0 l 50 0 l 74 146 m 519 1125 q 503 1131 510 1125 q 497 1146 497 1136 l 497 1151 l 517 1276 q 547 1304 521 1304 l 626 1304 q 649 1283 649 1304 l 649 1276 l 629 1151 q 599 1125 625 1125 l 519 1125 z "},"Ẓ":{"ha":785,"x_min":50,"x_max":883,"o":"m 74 146 l 661 871 l 188 871 l 213 1025 l 883 1025 l 860 879 l 272 154 l 758 154 l 735 0 l 50 0 l 74 146 m 288 -306 q 272 -300 278 -306 q 265 -285 265 -294 l 265 -279 l 285 -154 q 315 -126 289 -126 l 394 -126 q 417 -147 417 -126 l 417 -154 l 397 -279 q 367 -306 393 -306 l 288 -306 z "},"a":{"ha":789,"x_min":106,"x_max":815,"o":"m 314 -8 q 164 55 222 -8 q 106 246 106 118 q 121 397 106 290 q 242 667 150 581 q 511 753 335 753 q 683 730 600 753 q 815 667 767 707 l 710 0 l 558 0 l 550 76 q 445 19 514 47 q 314 -8 376 -8 m 394 131 q 481 146 442 131 q 567 189 519 161 l 629 585 q 576 605 611 596 q 503 614 542 614 q 356 558 404 614 q 289 383 308 503 q 278 276 278 313 q 308 169 278 208 q 394 131 338 131 z "},"á":{"ha":789,"x_min":106,"x_max":815,"o":"m 314 -8 q 164 55 222 -8 q 106 246 106 118 q 121 397 106 290 q 242 667 150 581 q 511 753 335 753 q 683 730 600 753 q 815 667 767 707 l 710 0 l 558 0 l 550 76 q 445 19 514 47 q 314 -8 376 -8 m 394 131 q 481 146 442 131 q 567 189 519 161 l 629 585 q 576 605 611 596 q 503 614 542 614 q 356 558 404 614 q 289 383 308 503 q 278 276 278 313 q 308 169 278 208 q 394 131 338 131 m 619 1069 l 768 1069 l 581 876 l 472 876 l 619 1069 z "},"ă":{"ha":789,"x_min":106,"x_max":815,"o":"m 314 -8 q 164 55 222 -8 q 106 246 106 118 q 121 397 106 290 q 242 667 150 581 q 511 753 335 753 q 683 730 600 753 q 815 667 767 707 l 710 0 l 558 0 l 550 76 q 445 19 514 47 q 314 -8 376 -8 m 394 131 q 481 146 442 131 q 567 189 519 161 l 629 585 q 576 605 611 596 q 503 614 542 614 q 356 558 404 614 q 289 383 308 503 q 278 276 278 313 q 308 169 278 208 q 394 131 338 131 m 532 868 q 414 906 457 868 q 371 1021 371 943 q 376 1074 371 1035 l 457 1074 q 454 1040 454 1049 q 479 970 454 993 q 543 947 504 947 q 628 977 593 947 q 674 1074 663 1007 l 756 1074 q 681 918 739 968 q 532 868 622 868 z "},"ắ":{"ha":789,"x_min":106,"x_max":815,"o":"m 314 -8 q 164 55 222 -8 q 106 246 106 118 q 121 397 106 290 q 242 667 150 581 q 511 753 335 753 q 683 730 600 753 q 815 667 767 707 l 710 0 l 558 0 l 550 76 q 445 19 514 47 q 314 -8 376 -8 m 394 131 q 481 146 442 131 q 567 189 519 161 l 629 585 q 576 605 611 596 q 503 614 542 614 q 356 558 404 614 q 289 383 308 503 q 278 276 278 313 q 308 169 278 208 q 394 131 338 131 m 619 1233 l 768 1233 l 581 1040 l 472 1040 l 619 1233 m 507 853 q 385 884 429 853 q 340 981 340 915 q 343 1015 340 990 l 424 1015 q 422 997 422 1008 q 449 942 422 960 q 515 924 475 924 q 597 944 561 924 q 642 1015 633 964 l 724 1015 q 654 892 711 932 q 507 853 597 853 z "},"ặ":{"ha":789,"x_min":106,"x_max":815,"o":"m 314 -8 q 164 55 222 -8 q 106 246 106 118 q 121 397 106 290 q 242 667 150 581 q 511 753 335 753 q 683 730 600 753 q 815 667 767 707 l 710 0 l 558 0 l 550 76 q 445 19 514 47 q 314 -8 376 -8 m 394 131 q 481 146 442 131 q 567 189 519 161 l 629 585 q 576 605 611 596 q 503 614 542 614 q 356 558 404 614 q 289 383 308 503 q 278 276 278 313 q 308 169 278 208 q 394 131 338 131 m 532 868 q 414 906 457 868 q 371 1021 371 943 q 376 1074 371 1035 l 457 1074 q 454 1040 454 1049 q 479 970 454 993 q 543 947 504 947 q 628 977 593 947 q 674 1074 663 1007 l 756 1074 q 681 918 739 968 q 532 868 622 868 m 306 -306 q 290 -300 296 -306 q 283 -285 283 -294 l 283 -279 l 303 -154 q 333 -126 307 -126 l 413 -126 q 435 -147 435 -126 l 435 -154 l 415 -279 q 385 -306 411 -306 l 306 -306 z "},"ằ":{"ha":789,"x_min":106,"x_max":815,"o":"m 314 -8 q 164 55 222 -8 q 106 246 106 118 q 121 397 106 290 q 242 667 150 581 q 511 753 335 753 q 683 730 600 753 q 815 667 767 707 l 710 0 l 558 0 l 550 76 q 445 19 514 47 q 314 -8 376 -8 m 394 131 q 481 146 442 131 q 567 189 519 161 l 629 585 q 576 605 611 596 q 503 614 542 614 q 356 558 404 614 q 289 383 308 503 q 278 276 278 313 q 308 169 278 208 q 394 131 338 131 m 364 1233 l 504 1233 l 599 1040 l 497 1040 l 364 1233 m 507 853 q 385 884 429 853 q 340 981 340 915 q 343 1015 340 990 l 424 1015 q 422 997 422 1008 q 449 942 422 960 q 515 924 475 924 q 642 1015 626 924 l 724 1015 q 654 892 711 932 q 507 853 597 853 z "},"ẳ":{"ha":789,"x_min":106,"x_max":815,"o":"m 314 -8 q 164 55 222 -8 q 106 246 106 118 q 121 397 106 290 q 242 667 150 581 q 511 753 335 753 q 683 730 600 753 q 815 667 767 707 l 710 0 l 558 0 l 550 76 q 445 19 514 47 q 314 -8 376 -8 m 394 131 q 481 146 442 131 q 567 189 519 161 l 629 585 q 576 605 611 596 q 503 614 542 614 q 356 558 404 614 q 289 383 308 503 q 278 276 278 313 q 308 169 278 208 q 394 131 338 131 m 506 1057 q 579 1133 579 1079 q 533 1169 579 1169 q 485 1161 518 1169 l 496 1229 q 568 1240 532 1240 q 674 1149 674 1240 q 493 981 674 1029 l 506 1057 m 507 853 q 385 884 429 853 q 340 981 340 915 q 343 1015 340 990 l 424 1015 q 422 997 422 1008 q 449 942 422 960 q 515 924 475 924 q 642 1015 626 924 l 724 1015 q 654 892 711 932 q 507 853 597 853 z "},"ẵ":{"ha":789,"x_min":106,"x_max":815,"o":"m 314 -8 q 164 55 222 -8 q 106 246 106 118 q 121 397 106 290 q 242 667 150 581 q 511 753 335 753 q 683 730 600 753 q 815 667 767 707 l 710 0 l 558 0 l 550 76 q 445 19 514 47 q 314 -8 376 -8 m 394 131 q 481 146 442 131 q 567 189 519 161 l 629 585 q 576 605 611 596 q 503 614 542 614 q 356 558 404 614 q 289 383 308 503 q 278 276 278 313 q 308 169 278 208 q 394 131 338 131 m 319 1065 q 376 1169 336 1140 q 475 1197 417 1197 q 520 1191 500 1197 q 572 1172 540 1185 q 612 1156 596 1161 q 644 1151 628 1151 q 692 1165 674 1151 q 714 1203 711 1178 l 800 1203 q 746 1099 783 1129 q 644 1068 708 1068 q 547 1093 606 1068 q 475 1114 500 1114 q 430 1101 449 1114 q 406 1065 411 1088 l 319 1065 m 513 853 q 390 884 435 853 q 346 979 346 915 q 350 1015 346 997 l 431 1015 q 429 996 429 1008 q 456 941 429 958 q 522 924 482 924 q 647 1015 632 924 l 731 1015 q 660 892 717 932 q 513 853 603 853 z "},"â":{"ha":789,"x_min":106,"x_max":815,"o":"m 314 -8 q 164 55 222 -8 q 106 246 106 118 q 121 397 106 290 q 242 667 150 581 q 511 753 335 753 q 683 730 600 753 q 815 667 767 707 l 710 0 l 558 0 l 550 76 q 445 19 514 47 q 314 -8 376 -8 m 394 131 q 481 146 442 131 q 567 189 519 161 l 629 585 q 576 605 611 596 q 503 614 542 614 q 356 558 404 614 q 289 383 308 503 q 278 276 278 313 q 308 169 278 208 q 394 131 338 131 m 507 1069 l 625 1069 l 738 876 l 636 876 l 551 992 l 421 876 l 319 876 l 507 1069 z "},"ấ":{"ha":789,"x_min":106,"x_max":914,"o":"m 314 -8 q 164 55 222 -8 q 106 246 106 118 q 121 397 106 290 q 242 667 150 581 q 511 753 335 753 q 683 730 600 753 q 815 667 767 707 l 710 0 l 558 0 l 550 76 q 445 19 514 47 q 314 -8 376 -8 m 394 131 q 481 146 442 131 q 567 189 519 161 l 629 585 q 576 605 611 596 q 503 614 542 614 q 356 558 404 614 q 289 383 308 503 q 278 276 278 313 q 308 169 278 208 q 394 131 338 131 m 781 1167 l 914 1167 l 761 990 l 668 990 l 781 1167 m 490 1022 l 608 1022 l 729 876 l 628 876 l 535 944 l 411 876 l 310 876 l 490 1022 z "},"ậ":{"ha":789,"x_min":106,"x_max":815,"o":"m 314 -8 q 164 55 222 -8 q 106 246 106 118 q 121 397 106 290 q 242 667 150 581 q 511 753 335 753 q 683 730 600 753 q 815 667 767 707 l 710 0 l 558 0 l 550 76 q 445 19 514 47 q 314 -8 376 -8 m 394 131 q 481 146 442 131 q 567 189 519 161 l 629 585 q 576 605 611 596 q 503 614 542 614 q 356 558 404 614 q 289 383 308 503 q 278 276 278 313 q 308 169 278 208 q 394 131 338 131 m 507 1069 l 625 1069 l 738 876 l 636 876 l 551 992 l 421 876 l 319 876 l 507 1069 m 306 -306 q 290 -300 296 -306 q 283 -285 283 -294 l 283 -279 l 303 -154 q 333 -126 307 -126 l 413 -126 q 435 -147 435 -126 l 435 -154 l 415 -279 q 385 -306 411 -306 l 306 -306 z "},"ầ":{"ha":789,"x_min":106,"x_max":815,"o":"m 314 -8 q 164 55 222 -8 q 106 246 106 118 q 121 397 106 290 q 242 667 150 581 q 511 753 335 753 q 683 730 600 753 q 815 667 767 707 l 710 0 l 558 0 l 550 76 q 445 19 514 47 q 314 -8 376 -8 m 394 131 q 481 146 442 131 q 567 189 519 161 l 629 585 q 576 605 611 596 q 503 614 542 614 q 356 558 404 614 q 289 383 308 503 q 278 276 278 313 q 308 169 278 208 q 394 131 338 131 m 226 1167 l 360 1167 l 415 990 l 322 990 l 226 1167 m 485 1022 l 604 1022 l 724 876 l 624 876 l 531 944 l 407 876 l 306 876 l 485 1022 z "},"ẩ":{"ha":789,"x_min":106,"x_max":856,"o":"m 314 -8 q 164 55 222 -8 q 106 246 106 118 q 121 397 106 290 q 242 667 150 581 q 511 753 335 753 q 683 730 600 753 q 815 667 767 707 l 710 0 l 558 0 l 550 76 q 445 19 514 47 q 314 -8 376 -8 m 394 131 q 481 146 442 131 q 567 189 519 161 l 629 585 q 576 605 611 596 q 503 614 542 614 q 356 558 404 614 q 289 383 308 503 q 278 276 278 313 q 308 169 278 208 q 394 131 338 131 m 707 1019 q 769 1085 769 1043 q 732 1113 769 1113 q 683 1104 707 1113 l 694 1174 q 764 1183 725 1183 q 856 1106 856 1183 q 696 951 856 994 l 707 1019 m 493 1022 l 611 1022 l 732 876 l 631 876 l 538 944 l 415 876 l 314 876 l 493 1022 z "},"ẫ":{"ha":789,"x_min":106,"x_max":815,"o":"m 314 -8 q 164 55 222 -8 q 106 246 106 118 q 121 397 106 290 q 242 667 150 581 q 511 753 335 753 q 683 730 600 753 q 815 667 767 707 l 710 0 l 558 0 l 550 76 q 445 19 514 47 q 314 -8 376 -8 m 394 131 q 481 146 442 131 q 567 189 519 161 l 629 585 q 576 605 611 596 q 503 614 542 614 q 356 558 404 614 q 289 383 308 503 q 278 276 278 313 q 308 169 278 208 q 394 131 338 131 m 322 1082 q 378 1185 339 1157 q 478 1213 418 1213 q 523 1206 503 1213 q 575 1188 543 1200 q 615 1172 599 1176 q 647 1167 631 1167 q 694 1181 675 1167 q 717 1219 713 1194 l 803 1219 q 749 1115 786 1146 q 647 1083 711 1083 q 603 1090 624 1083 q 549 1108 582 1096 q 476 1129 501 1129 q 431 1117 450 1129 q 408 1082 413 1104 l 322 1082 m 494 1022 l 613 1022 l 732 876 l 631 876 l 538 944 l 414 876 l 313 876 l 494 1022 z "},"ȁ":{"ha":789,"x_min":106,"x_max":815,"o":"m 314 -8 q 164 55 222 -8 q 106 246 106 118 q 121 397 106 290 q 242 667 150 581 q 511 753 335 753 q 683 730 600 753 q 815 667 767 707 l 710 0 l 558 0 l 550 76 q 445 19 514 47 q 314 -8 376 -8 m 394 131 q 481 146 442 131 q 567 189 519 161 l 629 585 q 576 605 611 596 q 503 614 542 614 q 356 558 404 614 q 289 383 308 503 q 278 276 278 313 q 308 169 278 208 q 394 131 338 131 m 249 1069 l 389 1069 l 483 876 l 382 876 l 249 1069 m 481 1069 l 621 1069 l 715 876 l 614 876 l 481 1069 z "},"ä":{"ha":789,"x_min":106,"x_max":815,"o":"m 314 -8 q 164 55 222 -8 q 106 246 106 118 q 121 397 106 290 q 242 667 150 581 q 511 753 335 753 q 683 730 600 753 q 815 667 767 707 l 710 0 l 558 0 l 550 76 q 445 19 514 47 q 314 -8 376 -8 m 394 131 q 481 146 442 131 q 567 189 519 161 l 629 585 q 576 605 611 596 q 503 614 542 614 q 356 558 404 614 q 289 383 308 503 q 278 276 278 313 q 308 169 278 208 q 394 131 338 131 m 344 893 q 328 899 335 893 q 322 914 322 904 q 343 1044 322 910 q 374 1072 347 1072 l 453 1072 q 475 1051 475 1072 l 454 919 q 424 893 453 893 l 344 893 m 625 893 q 609 899 615 893 q 603 914 603 904 l 624 1044 q 653 1072 628 1072 l 733 1072 q 756 1051 756 1072 q 735 919 756 1057 q 704 893 731 893 l 625 893 z "},"ạ":{"ha":789,"x_min":106,"x_max":815,"o":"m 314 -8 q 164 55 222 -8 q 106 246 106 118 q 121 397 106 290 q 242 667 150 581 q 511 753 335 753 q 683 730 600 753 q 815 667 767 707 l 710 0 l 558 0 l 550 76 q 445 19 514 47 q 314 -8 376 -8 m 394 131 q 481 146 442 131 q 567 189 519 161 l 629 585 q 576 605 611 596 q 503 614 542 614 q 356 558 404 614 q 289 383 308 503 q 278 276 278 313 q 308 169 278 208 q 394 131 338 131 m 306 -306 q 290 -300 296 -306 q 283 -285 283 -294 l 283 -279 l 303 -154 q 333 -126 307 -126 l 413 -126 q 435 -147 435 -126 l 435 -154 l 415 -279 q 385 -306 411 -306 l 306 -306 z "},"à":{"ha":789,"x_min":106,"x_max":815,"o":"m 314 -8 q 164 55 222 -8 q 106 246 106 118 q 121 397 106 290 q 242 667 150 581 q 511 753 335 753 q 683 730 600 753 q 815 667 767 707 l 710 0 l 558 0 l 550 76 q 445 19 514 47 q 314 -8 376 -8 m 394 131 q 481 146 442 131 q 567 189 519 161 l 629 585 q 576 605 611 596 q 503 614 542 614 q 356 558 404 614 q 289 383 308 503 q 278 276 278 313 q 308 169 278 208 q 394 131 338 131 m 372 1069 l 513 1069 l 607 876 l 506 876 l 372 1069 z "},"ả":{"ha":789,"x_min":106,"x_max":815,"o":"m 314 -8 q 164 55 222 -8 q 106 246 106 118 q 121 397 106 290 q 242 667 150 581 q 511 753 335 753 q 683 730 600 753 q 815 667 767 707 l 710 0 l 558 0 l 550 76 q 445 19 514 47 q 314 -8 376 -8 m 394 131 q 481 146 442 131 q 567 189 519 161 l 629 585 q 576 605 611 596 q 503 614 542 614 q 356 558 404 614 q 289 383 308 503 q 278 276 278 313 q 308 169 278 208 q 394 131 338 131 m 496 906 q 569 982 569 928 q 524 1018 569 1018 q 475 1010 508 1018 l 486 1078 q 558 1089 522 1089 q 664 997 664 1089 q 483 829 664 878 l 496 906 z "},"ȃ":{"ha":789,"x_min":106,"x_max":815,"o":"m 314 -8 q 164 55 222 -8 q 106 246 106 118 q 121 397 106 290 q 242 667 150 581 q 511 753 335 753 q 683 730 600 753 q 815 667 767 707 l 710 0 l 558 0 l 550 76 q 445 19 514 47 q 314 -8 376 -8 m 394 131 q 481 146 442 131 q 567 189 519 161 l 629 585 q 576 605 611 596 q 503 614 542 614 q 356 558 404 614 q 289 383 308 503 q 278 276 278 313 q 308 169 278 208 q 394 131 338 131 m 336 871 q 411 1026 353 976 q 560 1076 469 1076 q 678 1039 635 1076 q 721 924 721 1001 q 715 871 721 910 l 635 871 q 638 904 638 896 q 613 975 638 953 q 547 997 588 997 q 464 967 499 997 q 418 871 429 938 l 336 871 z "},"ā":{"ha":789,"x_min":106,"x_max":815,"o":"m 314 -8 q 164 55 222 -8 q 106 246 106 118 q 121 397 106 290 q 242 667 150 581 q 511 753 335 753 q 683 730 600 753 q 815 667 767 707 l 710 0 l 558 0 l 550 76 q 445 19 514 47 q 314 -8 376 -8 m 394 131 q 481 146 442 131 q 567 189 519 161 l 629 585 q 576 605 611 596 q 503 614 542 614 q 356 558 404 614 q 289 383 308 503 q 278 276 278 313 q 308 169 278 208 q 394 131 338 131 m 365 1013 l 749 1013 l 732 911 l 349 911 l 365 1013 z "},"ą":{"ha":789,"x_min":106,"x_max":815,"o":"m 618 -114 q 640 -161 618 -144 q 700 -178 661 -178 l 711 -178 l 697 -260 q 656 -264 683 -264 q 559 -235 592 -264 q 526 -160 526 -206 q 557 -69 526 -111 q 646 0 588 -28 l 558 0 l 550 76 q 445 19 514 47 q 314 -8 376 -8 q 164 55 222 -8 q 106 246 106 118 q 121 397 106 290 q 242 667 150 581 q 511 753 335 753 q 683 730 600 753 q 815 667 767 707 l 710 0 q 641 -57 664 -25 q 618 -114 618 -89 m 629 585 q 576 605 611 596 q 503 614 542 614 q 356 558 404 614 q 289 383 308 503 q 278 276 278 313 q 308 169 278 208 q 394 131 338 131 q 481 146 442 131 q 567 189 519 161 l 629 585 z "},"å":{"ha":789,"x_min":106,"x_max":815,"o":"m 314 -8 q 164 55 222 -8 q 106 246 106 118 q 121 397 106 290 q 242 667 150 581 q 511 753 335 753 q 683 730 600 753 q 815 667 767 707 l 710 0 l 558 0 l 550 76 q 445 19 514 47 q 314 -8 376 -8 m 394 131 q 481 146 442 131 q 567 189 519 161 l 629 585 q 576 605 611 596 q 503 614 542 614 q 356 558 404 614 q 289 383 308 503 q 278 276 278 313 q 308 169 278 208 q 394 131 338 131 m 539 817 q 428 847 467 817 q 389 949 389 878 q 440 1075 389 1024 q 579 1126 490 1126 q 726 996 726 1126 q 677 867 726 918 q 539 817 628 817 m 546 882 q 619 913 594 882 q 644 992 644 944 q 572 1061 644 1061 q 497 1029 522 1061 q 471 951 471 997 q 546 882 471 882 z "},"ǻ":{"ha":789,"x_min":106,"x_max":829,"o":"m 314 -8 q 164 55 222 -8 q 106 246 106 118 q 121 397 106 290 q 242 667 150 581 q 511 753 335 753 q 683 730 600 753 q 815 667 767 707 l 710 0 l 558 0 l 550 76 q 445 19 514 47 q 314 -8 376 -8 m 394 131 q 481 146 442 131 q 567 189 519 161 l 629 585 q 576 605 611 596 q 503 614 542 614 q 356 558 404 614 q 289 383 308 503 q 278 276 278 313 q 308 169 278 208 q 394 131 338 131 m 539 817 q 428 847 467 817 q 389 949 389 878 q 440 1075 389 1024 q 579 1126 490 1126 q 726 996 726 1126 q 677 867 726 918 q 539 817 628 817 m 546 882 q 619 913 594 882 q 644 992 644 944 q 572 1061 644 1061 q 497 1029 522 1061 q 471 951 471 997 q 546 882 471 882 m 681 1347 l 829 1347 l 642 1154 l 533 1154 l 681 1347 z "},"ã":{"ha":789,"x_min":106,"x_max":815,"o":"m 314 -8 q 164 55 222 -8 q 106 246 106 118 q 121 397 106 290 q 242 667 150 581 q 511 753 335 753 q 683 730 600 753 q 815 667 767 707 l 710 0 l 558 0 l 550 76 q 445 19 514 47 q 314 -8 376 -8 m 394 131 q 481 146 442 131 q 567 189 519 161 l 629 585 q 576 605 611 596 q 503 614 542 614 q 356 558 404 614 q 289 383 308 503 q 278 276 278 313 q 308 169 278 208 q 394 131 338 131 m 285 889 q 347 1013 303 975 q 451 1051 392 1051 q 507 1042 482 1051 q 568 1015 532 1033 q 615 993 597 1000 q 651 986 633 986 q 702 1004 682 986 q 728 1057 722 1022 l 814 1057 q 754 931 794 972 q 650 890 714 890 q 597 899 622 890 q 532 926 572 908 q 484 949 503 942 q 447 956 465 956 q 398 938 419 956 q 371 889 376 919 l 285 889 z "},"æ":{"ha":1226,"x_min":110,"x_max":1250,"o":"m 315 -8 q 165 53 221 -8 q 110 244 110 114 q 213 624 110 496 q 503 753 317 753 q 629 738 563 753 q 743 694 696 724 q 844 738 776 722 q 963 754 911 754 q 1178 699 1107 754 q 1250 529 1250 644 q 1170 353 1250 415 q 933 290 1090 290 q 819 296 878 290 q 744 308 761 301 q 742 247 742 281 q 776 151 742 182 q 903 119 811 119 l 1171 119 l 1154 18 q 1007 -1 1094 6 q 836 -8 919 -8 q 692 22 754 -8 q 608 104 631 53 q 315 -8 453 -8 m 890 389 q 1039 421 989 389 q 1089 511 1089 453 q 1058 594 1089 565 q 968 622 1026 622 q 854 597 896 622 q 792 524 813 571 q 757 399 771 476 q 806 392 765 396 q 890 389 846 389 m 386 132 q 491 159 438 132 q 576 219 544 186 q 574 272 574 235 q 592 438 574 354 q 646 582 610 521 q 586 603 622 593 q 517 614 550 614 q 335 519 390 614 q 281 276 281 425 q 386 132 281 132 z "},"ǽ":{"ha":1226,"x_min":110,"x_max":1250,"o":"m 315 -8 q 165 53 221 -8 q 110 244 110 114 q 213 624 110 496 q 503 753 317 753 q 629 738 563 753 q 743 694 696 724 q 844 738 776 722 q 963 754 911 754 q 1178 699 1107 754 q 1250 529 1250 644 q 1170 353 1250 415 q 933 290 1090 290 q 819 296 878 290 q 744 308 761 301 q 742 247 742 281 q 776 151 742 182 q 903 119 811 119 l 1171 119 l 1154 18 q 1007 -1 1094 6 q 836 -8 919 -8 q 692 22 754 -8 q 608 104 631 53 q 315 -8 453 -8 m 890 389 q 1039 421 989 389 q 1089 511 1089 453 q 1058 594 1089 565 q 968 622 1026 622 q 854 597 896 622 q 792 524 813 571 q 757 399 771 476 q 806 392 765 396 q 890 389 846 389 m 386 132 q 491 159 438 132 q 576 219 544 186 q 574 272 574 235 q 592 438 574 354 q 646 582 610 521 q 586 603 622 593 q 517 614 550 614 q 335 519 390 614 q 281 276 281 425 q 386 132 281 132 m 842 1069 l 990 1069 l 803 876 l 694 876 l 842 1069 z "},"b":{"ha":801,"x_min":82,"x_max":811,"o":"m 497 -8 q 371 15 433 -8 q 267 72 308 38 l 233 0 l 82 0 l 250 1060 l 422 1060 l 364 690 q 476 735 415 718 q 581 753 536 753 q 749 686 688 753 q 811 496 811 619 q 794 328 811 440 q 693 81 771 169 q 497 -8 615 -8 m 447 131 q 568 188 524 131 q 631 372 613 246 q 640 469 640 438 q 609 580 640 546 q 525 614 578 614 q 435 601 482 614 q 344 567 388 589 l 283 182 q 356 144 318 157 q 447 131 394 131 z "},"ḃ":{"ha":801,"x_min":82,"x_max":811,"o":"m 497 -8 q 371 15 433 -8 q 267 72 308 38 l 233 0 l 82 0 l 250 1060 l 422 1060 l 364 690 q 476 735 415 718 q 581 753 536 753 q 749 686 688 753 q 811 496 811 619 q 794 328 811 440 q 693 81 771 169 q 497 -8 615 -8 m 447 131 q 568 188 524 131 q 631 372 613 246 q 640 469 640 438 q 609 580 640 546 q 525 614 578 614 q 435 601 482 614 q 344 567 388 589 l 283 182 q 356 144 318 157 q 447 131 394 131 m 321 1181 q 305 1186 311 1181 q 299 1201 299 1192 l 299 1207 l 318 1332 q 349 1360 322 1360 l 428 1360 q 450 1339 450 1360 l 450 1332 l 431 1207 q 400 1181 426 1181 l 321 1181 z "},"c":{"ha":663,"x_min":110,"x_max":719,"o":"m 378 -8 q 178 54 247 -8 q 110 269 110 117 q 122 401 110 324 q 468 753 178 753 q 719 719 571 753 l 703 619 l 506 619 q 363 561 414 619 q 290 371 313 503 q 281 285 281 314 q 318 159 281 196 q 432 122 356 122 l 638 122 l 622 25 q 378 -8 515 -8 z "},"ć":{"ha":663,"x_min":110,"x_max":735,"o":"m 378 -8 q 178 54 247 -8 q 110 269 110 117 q 122 401 110 324 q 468 753 178 753 q 719 719 571 753 l 703 619 l 506 619 q 363 561 414 619 q 290 371 313 503 q 281 285 281 314 q 318 159 281 196 q 432 122 356 122 l 638 122 l 622 25 q 378 -8 515 -8 m 586 1069 l 735 1069 l 547 876 l 439 876 l 586 1069 z "},"č":{"ha":663,"x_min":110,"x_max":754,"o":"m 378 -8 q 178 54 247 -8 q 110 269 110 117 q 122 401 110 324 q 468 753 178 753 q 719 719 571 753 l 703 619 l 506 619 q 363 561 414 619 q 290 371 313 503 q 281 285 281 314 q 318 159 281 196 q 432 122 356 122 l 638 122 l 622 25 q 378 -8 515 -8 m 336 1069 l 436 1069 l 522 954 l 653 1069 l 754 1069 l 567 876 l 447 876 l 336 1069 z "},"ç":{"ha":663,"x_min":110,"x_max":719,"o":"m 506 619 q 363 561 414 619 q 290 371 313 503 q 281 285 281 314 q 318 159 281 196 q 432 122 356 122 l 638 122 l 622 25 q 382 -8 518 -8 l 325 -79 q 410 -158 410 -86 q 368 -241 410 -206 q 249 -276 326 -276 l 189 -276 l 200 -206 l 228 -203 q 281 -179 263 -199 q 300 -140 300 -160 q 235 -94 300 -101 l 307 -4 q 160 74 211 10 q 110 269 110 139 q 122 401 110 324 q 468 753 178 753 q 719 719 571 753 l 703 619 l 506 619 z "},"ḉ":{"ha":663,"x_min":110,"x_max":735,"o":"m 547 876 l 439 876 l 586 1069 l 735 1069 l 547 876 m 122 401 q 468 753 178 753 q 719 719 571 753 l 703 619 l 506 619 q 363 561 414 619 q 290 371 313 503 q 281 285 281 314 q 318 159 281 196 q 432 122 356 122 l 638 122 l 622 25 q 382 -8 518 -8 l 325 -79 q 410 -158 410 -86 q 368 -241 410 -206 q 249 -276 326 -276 l 189 -276 l 200 -206 l 228 -203 q 281 -179 263 -199 q 300 -140 300 -160 q 235 -94 300 -101 l 307 -4 q 160 74 211 10 q 110 269 110 139 q 122 401 110 324 z "},"ĉ":{"ha":663,"x_min":110,"x_max":719,"o":"m 378 -8 q 178 54 247 -8 q 110 269 110 117 q 122 401 110 324 q 468 753 178 753 q 719 719 571 753 l 703 619 l 506 619 q 363 561 414 619 q 290 371 313 503 q 281 285 281 314 q 318 159 281 196 q 432 122 356 122 l 638 122 l 622 25 q 378 -8 515 -8 m 474 1069 l 592 1069 l 704 876 l 603 876 l 518 992 l 388 876 l 286 876 l 474 1069 z "},"ċ":{"ha":663,"x_min":110,"x_max":719,"o":"m 378 -8 q 178 54 247 -8 q 110 269 110 117 q 122 401 110 324 q 468 753 178 753 q 719 719 571 753 l 703 619 l 506 619 q 363 561 414 619 q 290 371 313 503 q 281 285 281 314 q 318 159 281 196 q 432 122 356 122 l 638 122 l 622 25 q 378 -8 515 -8 m 461 903 q 445 908 451 903 q 439 924 439 914 l 439 929 l 458 1054 q 489 1082 463 1082 l 568 1082 q 590 1061 590 1082 l 590 1054 l 571 929 q 540 903 567 903 l 461 903 z "},"d":{"ha":794,"x_min":108,"x_max":879,"o":"m 321 -8 q 165 58 221 -8 q 108 246 108 125 q 124 403 108 318 q 185 596 146 521 q 299 712 224 671 q 497 753 374 753 q 656 726 589 753 l 707 1060 l 879 1060 l 711 0 l 560 0 l 551 76 q 443 16 504 40 q 321 -8 382 -8 m 393 131 q 481 146 440 131 q 569 189 522 161 l 632 585 q 504 614 578 614 q 401 592 442 614 q 333 517 360 569 q 290 372 307 465 q 281 275 281 322 q 312 165 281 199 q 393 131 343 131 z "},"ð":{"ha":793,"x_min":110,"x_max":860,"o":"m 710 939 q 814 621 814 835 q 789 344 814 501 q 721 129 768 206 q 597 22 674 53 q 396 -8 519 -8 q 110 249 110 -8 q 118 371 110 311 q 185 597 142 518 q 297 706 228 676 q 474 736 365 736 q 588 717 536 736 q 672 661 639 697 q 643 797 668 742 q 571 885 618 851 l 351 797 l 335 854 l 500 919 q 303 946 422 946 l 322 1060 q 658 981 540 1060 l 846 1054 l 860 999 l 710 939 m 617 365 q 628 482 628 436 q 595 573 628 546 q 489 600 563 600 q 386 579 424 600 q 326 505 349 558 q 286 346 303 451 q 279 256 279 286 q 313 157 279 183 q 415 131 346 131 q 517 149 479 131 q 578 218 554 168 q 617 365 601 268 z "},"ď":{"ha":794,"x_min":108,"x_max":1113,"o":"m 321 -8 q 165 58 221 -8 q 108 246 108 125 q 124 403 108 318 q 185 596 146 521 q 299 712 224 671 q 497 753 374 753 q 656 726 589 753 l 707 1060 l 879 1060 l 711 0 l 560 0 l 551 76 q 443 16 504 40 q 321 -8 382 -8 m 393 131 q 481 146 440 131 q 569 189 522 161 l 632 585 q 504 614 578 614 q 401 592 442 614 q 333 517 360 569 q 290 372 307 465 q 281 275 281 322 q 312 165 281 199 q 393 131 343 131 m 940 999 l 956 1092 l 1113 1092 l 1099 999 l 1056 799 l 924 799 l 940 999 z "},"đ":{"ha":799,"x_min":108,"x_max":946,"o":"m 935 861 l 847 861 l 711 0 l 560 0 l 551 76 q 443 16 504 40 q 321 -8 382 -8 q 165 58 221 -8 q 108 246 108 125 q 124 403 108 318 q 185 596 146 521 q 299 712 224 671 q 497 753 374 753 q 656 726 589 753 l 676 861 l 503 861 l 514 931 l 688 931 l 707 1060 l 879 1060 l 858 931 l 946 931 l 935 861 m 632 585 q 504 614 578 614 q 401 592 442 614 q 333 517 360 569 q 290 372 307 465 q 281 275 281 322 q 312 165 281 199 q 393 131 343 131 q 481 146 440 131 q 569 189 522 161 l 632 585 z "},"ḋ":{"ha":794,"x_min":108,"x_max":907,"o":"m 321 -8 q 165 58 221 -8 q 108 246 108 125 q 124 403 108 318 q 185 596 146 521 q 299 712 224 671 q 497 753 374 753 q 656 726 589 753 l 707 1060 l 879 1060 l 711 0 l 560 0 l 551 76 q 443 16 504 40 q 321 -8 382 -8 m 393 131 q 481 146 440 131 q 569 189 522 161 l 632 585 q 504 614 578 614 q 401 592 442 614 q 333 517 360 569 q 290 372 307 465 q 281 275 281 322 q 312 165 281 199 q 393 131 343 131 m 778 1181 q 762 1186 768 1181 q 756 1201 756 1192 l 756 1207 l 775 1332 q 806 1360 779 1360 l 885 1360 q 907 1339 907 1360 l 907 1332 l 888 1207 q 857 1181 883 1181 l 778 1181 z "},"ḍ":{"ha":794,"x_min":108,"x_max":879,"o":"m 321 -8 q 165 58 221 -8 q 108 246 108 125 q 124 403 108 318 q 185 596 146 521 q 299 712 224 671 q 497 753 374 753 q 656 726 589 753 l 707 1060 l 879 1060 l 711 0 l 560 0 l 551 76 q 443 16 504 40 q 321 -8 382 -8 m 393 131 q 481 146 440 131 q 569 189 522 161 l 632 585 q 504 614 578 614 q 401 592 442 614 q 333 517 360 569 q 290 372 307 465 q 281 275 281 322 q 312 165 281 199 q 393 131 343 131 m 317 -306 q 301 -300 307 -306 q 294 -285 294 -294 l 294 -279 l 314 -154 q 344 -126 318 -126 l 424 -126 q 446 -147 446 -126 l 446 -154 l 426 -279 q 396 -306 422 -306 l 317 -306 z "},"ḏ":{"ha":794,"x_min":108,"x_max":879,"o":"m 321 -8 q 165 58 221 -8 q 108 246 108 125 q 124 403 108 318 q 185 596 146 521 q 299 712 224 671 q 497 753 374 753 q 656 726 589 753 l 707 1060 l 879 1060 l 711 0 l 560 0 l 551 76 q 443 16 504 40 q 321 -8 382 -8 m 393 131 q 481 146 440 131 q 569 189 522 161 l 632 585 q 504 614 578 614 q 401 592 442 614 q 333 517 360 569 q 290 372 307 465 q 281 275 281 322 q 312 165 281 199 q 393 131 343 131 m 196 -182 l 579 -182 l 563 -283 l 179 -283 l 196 -182 z "},"e":{"ha":761,"x_min":110,"x_max":786,"o":"m 407 -8 q 180 60 250 -8 q 110 264 110 128 q 124 411 110 319 q 245 671 150 588 q 508 754 340 754 q 711 706 636 754 q 786 539 786 658 q 697 344 786 397 q 456 290 608 290 q 283 307 350 290 q 279 244 279 276 q 325 149 279 179 q 474 119 371 119 l 707 119 l 690 18 q 407 -8 561 -8 m 408 389 q 573 419 519 389 q 626 521 626 449 q 594 598 626 574 q 497 622 563 622 q 358 567 404 622 q 294 399 313 511 q 408 389 349 389 z "},"é":{"ha":761,"x_min":110,"x_max":786,"o":"m 407 -8 q 180 60 250 -8 q 110 264 110 128 q 124 411 110 319 q 245 671 150 588 q 508 754 340 754 q 711 706 636 754 q 786 539 786 658 q 697 344 786 397 q 456 290 608 290 q 283 307 350 290 q 279 244 279 276 q 325 149 279 179 q 474 119 371 119 l 707 119 l 690 18 q 407 -8 561 -8 m 408 389 q 573 419 519 389 q 626 521 626 449 q 594 598 626 574 q 497 622 563 622 q 358 567 404 622 q 294 399 313 511 q 408 389 349 389 m 618 1069 l 767 1069 l 579 876 l 471 876 l 618 1069 z "},"ĕ":{"ha":761,"x_min":110,"x_max":786,"o":"m 407 -8 q 180 60 250 -8 q 110 264 110 128 q 124 411 110 319 q 245 671 150 588 q 508 754 340 754 q 711 706 636 754 q 786 539 786 658 q 697 344 786 397 q 456 290 608 290 q 283 307 350 290 q 279 244 279 276 q 325 149 279 179 q 474 119 371 119 l 707 119 l 690 18 q 407 -8 561 -8 m 408 389 q 573 419 519 389 q 626 521 626 449 q 594 598 626 574 q 497 622 563 622 q 358 567 404 622 q 294 399 313 511 q 408 389 349 389 m 531 868 q 413 906 456 868 q 369 1021 369 943 q 375 1074 369 1035 l 456 1074 q 453 1040 453 1049 q 478 970 453 993 q 542 947 503 947 q 626 977 592 947 q 672 1074 661 1007 l 754 1074 q 679 918 738 968 q 531 868 621 868 z "},"ě":{"ha":761,"x_min":110,"x_max":786,"o":"m 407 -8 q 180 60 250 -8 q 110 264 110 128 q 124 411 110 319 q 245 671 150 588 q 508 754 340 754 q 711 706 636 754 q 786 539 786 658 q 697 344 786 397 q 456 290 608 290 q 283 307 350 290 q 279 244 279 276 q 325 149 279 179 q 474 119 371 119 l 707 119 l 690 18 q 407 -8 561 -8 m 408 389 q 573 419 519 389 q 626 521 626 449 q 594 598 626 574 q 497 622 563 622 q 358 567 404 622 q 294 399 313 511 q 408 389 349 389 m 368 1069 l 468 1069 l 554 954 l 685 1069 l 786 1069 l 599 876 l 479 876 l 368 1069 z "},"ḝ":{"ha":761,"x_min":110,"x_max":786,"o":"m 531 868 q 413 906 456 868 q 369 1021 369 943 q 375 1074 369 1035 l 456 1074 q 453 1040 453 1049 q 478 970 453 993 q 542 947 503 947 q 626 977 592 947 q 672 1074 661 1007 l 754 1074 q 679 918 738 968 q 531 868 621 868 m 456 290 q 283 307 350 290 q 279 244 279 276 q 325 149 279 179 q 474 119 371 119 l 707 119 l 690 18 q 443 -8 581 -4 l 385 -79 q 469 -158 469 -86 q 428 -241 469 -206 q 308 -276 386 -276 l 249 -276 l 260 -206 l 288 -203 q 341 -179 322 -199 q 360 -140 360 -160 q 294 -94 360 -101 l 364 -7 q 170 70 231 3 q 110 264 110 138 q 124 411 110 319 q 245 671 150 588 q 508 754 340 754 q 711 706 636 754 q 786 539 786 658 q 697 344 786 397 q 456 290 608 290 m 497 622 q 358 567 404 622 q 294 399 313 511 q 408 389 349 389 q 573 419 519 389 q 626 521 626 449 q 594 598 626 574 q 497 622 563 622 z "},"ê":{"ha":761,"x_min":110,"x_max":786,"o":"m 407 -8 q 180 60 250 -8 q 110 264 110 128 q 124 411 110 319 q 245 671 150 588 q 508 754 340 754 q 711 706 636 754 q 786 539 786 658 q 697 344 786 397 q 456 290 608 290 q 283 307 350 290 q 279 244 279 276 q 325 149 279 179 q 474 119 371 119 l 707 119 l 690 18 q 407 -8 561 -8 m 408 389 q 573 419 519 389 q 626 521 626 449 q 594 598 626 574 q 497 622 563 622 q 358 567 404 622 q 294 399 313 511 q 408 389 349 389 m 506 1069 l 624 1069 l 736 876 l 635 876 l 550 992 l 419 876 l 318 876 l 506 1069 z "},"ế":{"ha":761,"x_min":110,"x_max":913,"o":"m 407 -8 q 180 60 250 -8 q 110 264 110 128 q 124 411 110 319 q 245 671 150 588 q 508 754 340 754 q 711 706 636 754 q 786 539 786 658 q 697 344 786 397 q 456 290 608 290 q 283 307 350 290 q 279 244 279 276 q 325 149 279 179 q 474 119 371 119 l 707 119 l 690 18 q 407 -8 561 -8 m 408 389 q 573 419 519 389 q 626 521 626 449 q 594 598 626 574 q 497 622 563 622 q 358 567 404 622 q 294 399 313 511 q 408 389 349 389 m 779 1167 l 913 1167 l 760 990 l 667 990 l 779 1167 m 489 1022 l 607 1022 l 728 876 l 626 876 l 533 944 l 410 876 l 308 876 l 489 1022 z "},"ệ":{"ha":761,"x_min":110,"x_max":786,"o":"m 407 -8 q 180 60 250 -8 q 110 264 110 128 q 124 411 110 319 q 245 671 150 588 q 508 754 340 754 q 711 706 636 754 q 786 539 786 658 q 697 344 786 397 q 456 290 608 290 q 283 307 350 290 q 279 244 279 276 q 325 149 279 179 q 474 119 371 119 l 707 119 l 690 18 q 407 -8 561 -8 m 408 389 q 573 419 519 389 q 626 521 626 449 q 594 598 626 574 q 497 622 563 622 q 358 567 404 622 q 294 399 313 511 q 408 389 349 389 m 506 1069 l 624 1069 l 736 876 l 635 876 l 550 992 l 419 876 l 318 876 l 506 1069 m 332 -306 q 316 -300 322 -306 q 310 -285 310 -294 l 310 -279 l 329 -154 q 360 -126 333 -126 l 439 -126 q 461 -147 461 -126 l 461 -154 l 442 -279 q 411 -306 438 -306 l 332 -306 z "},"ề":{"ha":761,"x_min":110,"x_max":786,"o":"m 407 -8 q 180 60 250 -8 q 110 264 110 128 q 124 411 110 319 q 245 671 150 588 q 508 754 340 754 q 711 706 636 754 q 786 539 786 658 q 697 344 786 397 q 456 290 608 290 q 283 307 350 290 q 279 244 279 276 q 325 149 279 179 q 474 119 371 119 l 707 119 l 690 18 q 407 -8 561 -8 m 408 389 q 573 419 519 389 q 626 521 626 449 q 594 598 626 574 q 497 622 563 622 q 358 567 404 622 q 294 399 313 511 q 408 389 349 389 m 225 1167 l 358 1167 l 414 990 l 321 990 l 225 1167 m 483 1022 l 603 1022 l 722 876 l 622 876 l 529 944 l 406 876 l 304 876 l 483 1022 z "},"ể":{"ha":761,"x_min":110,"x_max":853,"o":"m 407 -8 q 180 60 250 -8 q 110 264 110 128 q 124 411 110 319 q 245 671 150 588 q 508 754 340 754 q 711 706 636 754 q 786 539 786 658 q 697 344 786 397 q 456 290 608 290 q 283 307 350 290 q 279 244 279 276 q 325 149 279 179 q 474 119 371 119 l 707 119 l 690 18 q 407 -8 561 -8 m 408 389 q 573 419 519 389 q 626 521 626 449 q 594 598 626 574 q 497 622 563 622 q 358 567 404 622 q 294 399 313 511 q 408 389 349 389 m 704 1019 q 767 1085 767 1043 q 729 1113 767 1113 q 681 1104 704 1113 l 692 1174 q 761 1183 722 1183 q 853 1106 853 1183 q 693 951 853 994 l 704 1019 m 490 1022 l 608 1022 l 729 876 l 628 876 l 535 944 l 413 876 l 311 876 l 490 1022 z "},"ễ":{"ha":761,"x_min":110,"x_max":800,"o":"m 407 -8 q 180 60 250 -8 q 110 264 110 128 q 124 411 110 319 q 245 671 150 588 q 508 754 340 754 q 711 706 636 754 q 786 539 786 658 q 697 344 786 397 q 456 290 608 290 q 283 307 350 290 q 279 244 279 276 q 325 149 279 179 q 474 119 371 119 l 707 119 l 690 18 q 407 -8 561 -8 m 408 389 q 573 419 519 389 q 626 521 626 449 q 594 598 626 574 q 497 622 563 622 q 358 567 404 622 q 294 399 313 511 q 408 389 349 389 m 319 1082 q 376 1185 336 1157 q 475 1213 415 1213 q 520 1206 500 1213 q 572 1188 540 1200 q 612 1172 596 1176 q 644 1167 628 1167 q 691 1181 672 1167 q 714 1219 710 1194 l 800 1219 q 746 1115 783 1146 q 644 1083 708 1083 q 600 1090 621 1083 q 546 1108 579 1096 q 474 1129 499 1129 q 428 1117 447 1129 q 406 1082 410 1104 l 319 1082 m 492 1022 l 610 1022 l 729 876 l 628 876 l 535 944 l 411 876 l 310 876 l 492 1022 z "},"ȅ":{"ha":761,"x_min":110,"x_max":786,"o":"m 407 -8 q 180 60 250 -8 q 110 264 110 128 q 124 411 110 319 q 245 671 150 588 q 508 754 340 754 q 711 706 636 754 q 786 539 786 658 q 697 344 786 397 q 456 290 608 290 q 283 307 350 290 q 279 244 279 276 q 325 149 279 179 q 474 119 371 119 l 707 119 l 690 18 q 407 -8 561 -8 m 408 389 q 573 419 519 389 q 626 521 626 449 q 594 598 626 574 q 497 622 563 622 q 358 567 404 622 q 294 399 313 511 q 408 389 349 389 m 247 1069 l 388 1069 l 482 876 l 381 876 l 247 1069 m 479 1069 l 619 1069 l 714 876 l 613 876 l 479 1069 z "},"ë":{"ha":761,"x_min":110,"x_max":786,"o":"m 407 -8 q 180 60 250 -8 q 110 264 110 128 q 124 411 110 319 q 245 671 150 588 q 508 754 340 754 q 711 706 636 754 q 786 539 786 658 q 697 344 786 397 q 456 290 608 290 q 283 307 350 290 q 279 244 279 276 q 325 149 279 179 q 474 119 371 119 l 707 119 l 690 18 q 407 -8 561 -8 m 408 389 q 573 419 519 389 q 626 521 626 449 q 594 598 626 574 q 497 622 563 622 q 358 567 404 622 q 294 399 313 511 q 408 389 349 389 m 343 893 q 327 899 333 893 q 321 914 321 904 q 342 1044 321 910 q 372 1072 346 1072 l 451 1072 q 474 1051 474 1072 l 453 919 q 422 893 451 893 l 343 893 m 624 893 q 608 899 614 893 q 601 914 601 904 l 622 1044 q 651 1072 626 1072 l 732 1072 q 754 1051 754 1072 q 733 919 754 1057 q 703 893 729 893 l 624 893 z "},"ė":{"ha":761,"x_min":110,"x_max":786,"o":"m 407 -8 q 180 60 250 -8 q 110 264 110 128 q 124 411 110 319 q 245 671 150 588 q 508 754 340 754 q 711 706 636 754 q 786 539 786 658 q 697 344 786 397 q 456 290 608 290 q 283 307 350 290 q 279 244 279 276 q 325 149 279 179 q 474 119 371 119 l 707 119 l 690 18 q 407 -8 561 -8 m 408 389 q 573 419 519 389 q 626 521 626 449 q 594 598 626 574 q 497 622 563 622 q 358 567 404 622 q 294 399 313 511 q 408 389 349 389 m 493 903 q 477 908 483 903 q 471 924 471 914 l 471 929 l 490 1054 q 521 1082 494 1082 l 600 1082 q 622 1061 622 1082 l 622 1054 l 603 929 q 572 903 599 903 l 493 903 z "},"ẹ":{"ha":761,"x_min":110,"x_max":786,"o":"m 407 -8 q 180 60 250 -8 q 110 264 110 128 q 124 411 110 319 q 245 671 150 588 q 508 754 340 754 q 711 706 636 754 q 786 539 786 658 q 697 344 786 397 q 456 290 608 290 q 283 307 350 290 q 279 244 279 276 q 325 149 279 179 q 474 119 371 119 l 707 119 l 690 18 q 407 -8 561 -8 m 408 389 q 573 419 519 389 q 626 521 626 449 q 594 598 626 574 q 497 622 563 622 q 358 567 404 622 q 294 399 313 511 q 408 389 349 389 m 332 -306 q 316 -300 322 -306 q 310 -285 310 -294 l 310 -279 l 329 -154 q 360 -126 333 -126 l 439 -126 q 461 -147 461 -126 l 461 -154 l 442 -279 q 411 -306 438 -306 l 332 -306 z "},"è":{"ha":761,"x_min":110,"x_max":786,"o":"m 407 -8 q 180 60 250 -8 q 110 264 110 128 q 124 411 110 319 q 245 671 150 588 q 508 754 340 754 q 711 706 636 754 q 786 539 786 658 q 697 344 786 397 q 456 290 608 290 q 283 307 350 290 q 279 244 279 276 q 325 149 279 179 q 474 119 371 119 l 707 119 l 690 18 q 407 -8 561 -8 m 408 389 q 573 419 519 389 q 626 521 626 449 q 594 598 626 574 q 497 622 563 622 q 358 567 404 622 q 294 399 313 511 q 408 389 349 389 m 371 1069 l 511 1069 l 606 876 l 504 876 l 371 1069 z "},"ẻ":{"ha":761,"x_min":110,"x_max":786,"o":"m 407 -8 q 180 60 250 -8 q 110 264 110 128 q 124 411 110 319 q 245 671 150 588 q 508 754 340 754 q 711 706 636 754 q 786 539 786 658 q 697 344 786 397 q 456 290 608 290 q 283 307 350 290 q 279 244 279 276 q 325 149 279 179 q 474 119 371 119 l 707 119 l 690 18 q 407 -8 561 -8 m 408 389 q 573 419 519 389 q 626 521 626 449 q 594 598 626 574 q 497 622 563 622 q 358 567 404 622 q 294 399 313 511 q 408 389 349 389 m 494 906 q 568 982 568 928 q 522 1018 568 1018 q 474 1010 507 1018 l 485 1078 q 557 1089 521 1089 q 663 997 663 1089 q 482 829 663 878 l 494 906 z "},"ȇ":{"ha":761,"x_min":110,"x_max":786,"o":"m 407 -8 q 180 60 250 -8 q 110 264 110 128 q 124 411 110 319 q 245 671 150 588 q 508 754 340 754 q 711 706 636 754 q 786 539 786 658 q 697 344 786 397 q 456 290 608 290 q 283 307 350 290 q 279 244 279 276 q 325 149 279 179 q 474 119 371 119 l 707 119 l 690 18 q 407 -8 561 -8 m 408 389 q 573 419 519 389 q 626 521 626 449 q 594 598 626 574 q 497 622 563 622 q 358 567 404 622 q 294 399 313 511 q 408 389 349 389 m 335 871 q 410 1026 351 976 q 558 1076 468 1076 q 676 1039 633 1076 q 719 924 719 1001 q 714 871 719 910 l 633 871 q 636 904 636 896 q 611 975 636 953 q 546 997 586 997 q 463 967 497 997 q 417 871 428 938 l 335 871 z "},"ē":{"ha":761,"x_min":110,"x_max":786,"o":"m 407 -8 q 180 60 250 -8 q 110 264 110 128 q 124 411 110 319 q 245 671 150 588 q 508 754 340 754 q 711 706 636 754 q 786 539 786 658 q 697 344 786 397 q 456 290 608 290 q 283 307 350 290 q 279 244 279 276 q 325 149 279 179 q 474 119 371 119 l 707 119 l 690 18 q 407 -8 561 -8 m 408 389 q 573 419 519 389 q 626 521 626 449 q 594 598 626 574 q 497 622 563 622 q 358 567 404 622 q 294 399 313 511 q 408 389 349 389 m 364 1013 l 747 1013 l 731 911 l 347 911 l 364 1013 z "},"ḗ":{"ha":761,"x_min":110,"x_max":794,"o":"m 407 -8 q 180 60 250 -8 q 110 264 110 128 q 124 411 110 319 q 245 671 150 588 q 508 754 340 754 q 711 706 636 754 q 786 539 786 658 q 697 344 786 397 q 456 290 608 290 q 283 307 350 290 q 279 244 279 276 q 325 149 279 179 q 474 119 371 119 l 707 119 l 690 18 q 407 -8 561 -8 m 408 389 q 573 419 519 389 q 626 521 626 449 q 594 598 626 574 q 497 622 563 622 q 358 567 404 622 q 294 399 313 511 q 408 389 349 389 m 364 1013 l 747 1013 l 731 911 l 347 911 l 364 1013 m 646 1269 l 794 1269 l 607 1076 l 499 1076 l 646 1269 z "},"ḕ":{"ha":761,"x_min":110,"x_max":786,"o":"m 407 -8 q 180 60 250 -8 q 110 264 110 128 q 124 411 110 319 q 245 671 150 588 q 508 754 340 754 q 711 706 636 754 q 786 539 786 658 q 697 344 786 397 q 456 290 608 290 q 283 307 350 290 q 279 244 279 276 q 325 149 279 179 q 474 119 371 119 l 707 119 l 690 18 q 407 -8 561 -8 m 408 389 q 573 419 519 389 q 626 521 626 449 q 594 598 626 574 q 497 622 563 622 q 358 567 404 622 q 294 399 313 511 q 408 389 349 389 m 364 1013 l 747 1013 l 731 911 l 347 911 l 364 1013 m 371 1269 l 511 1269 l 606 1076 l 504 1076 l 371 1269 z "},"ę":{"ha":761,"x_min":110,"x_max":786,"o":"m 456 290 q 283 307 350 290 q 279 244 279 276 q 325 149 279 179 q 474 119 371 119 l 707 119 l 690 18 l 692 18 q 623 -39 646 -7 q 600 -96 600 -71 q 622 -143 600 -126 q 682 -160 643 -160 l 693 -160 l 679 -242 q 638 -246 664 -246 q 541 -217 574 -246 q 508 -142 508 -187 q 532 -62 508 -100 q 601 4 556 -24 q 407 -8 499 -8 q 180 60 250 -8 q 110 264 110 128 q 124 411 110 319 q 245 671 150 588 q 508 754 340 754 q 711 706 636 754 q 786 539 786 658 q 697 344 786 397 q 456 290 608 290 m 497 622 q 358 567 404 622 q 294 399 313 511 q 408 389 349 389 q 573 419 519 389 q 626 521 626 449 q 594 598 626 574 q 497 622 563 622 z "},"ẽ":{"ha":761,"x_min":110,"x_max":813,"o":"m 407 -8 q 180 60 250 -8 q 110 264 110 128 q 124 411 110 319 q 245 671 150 588 q 508 754 340 754 q 711 706 636 754 q 786 539 786 658 q 697 344 786 397 q 456 290 608 290 q 283 307 350 290 q 279 244 279 276 q 325 149 279 179 q 474 119 371 119 l 707 119 l 690 18 q 407 -8 561 -8 m 408 389 q 573 419 519 389 q 626 521 626 449 q 594 598 626 574 q 497 622 563 622 q 358 567 404 622 q 294 399 313 511 q 408 389 349 389 m 283 889 q 346 1013 301 975 q 450 1051 390 1051 q 506 1042 481 1051 q 567 1015 531 1033 q 614 993 596 1000 q 650 986 632 986 q 701 1004 681 986 q 726 1057 721 1022 l 813 1057 q 753 931 793 972 q 649 890 713 890 q 596 899 621 890 q 531 926 571 908 q 483 949 501 942 q 446 956 464 956 q 397 938 418 956 q 369 889 375 919 l 283 889 z "},"ə":{"ha":763,"x_min":99,"x_max":775,"o":"m 478 754 q 705 686 635 754 q 775 482 775 618 q 761 335 775 426 q 640 75 735 158 q 376 -8 544 -8 q 174 40 249 -8 q 99 207 99 88 q 188 402 99 349 q 429 456 276 456 q 601 439 535 456 q 606 501 606 471 q 560 597 606 567 q 411 626 514 626 l 178 626 l 194 728 q 478 754 324 754 m 476 357 q 312 327 365 357 q 258 225 258 297 q 290 148 258 172 q 388 124 322 124 q 526 179 481 124 q 590 347 572 235 q 476 357 536 357 z "},"f":{"ha":533,"x_min":122,"x_max":692,"o":"m 229 604 l 122 604 l 140 715 l 251 744 l 271 856 q 346 1014 288 960 q 525 1068 404 1068 q 692 1056 614 1068 l 672 931 l 554 931 q 468 902 494 931 q 433 810 442 874 l 424 744 l 621 744 l 599 604 l 401 604 l 306 0 l 135 0 l 229 604 z "},"ḟ":{"ha":533,"x_min":122,"x_max":692,"o":"m 229 604 l 122 604 l 140 715 l 251 744 l 271 856 q 346 1014 288 960 q 525 1068 404 1068 q 692 1056 614 1068 l 672 931 l 554 931 q 468 902 494 931 q 433 810 442 874 l 424 744 l 621 744 l 599 604 l 401 604 l 306 0 l 135 0 l 229 604 m 467 1181 q 451 1186 457 1181 q 444 1201 444 1192 l 444 1207 l 464 1332 q 494 1360 468 1360 l 574 1360 q 596 1339 596 1360 l 596 1332 l 576 1207 q 546 1181 572 1181 l 467 1181 z "},"g":{"ha":796,"x_min":57,"x_max":824,"o":"m 57 -314 l 76 -194 l 307 -194 q 529 -57 507 -194 l 551 76 q 434 15 503 39 q 306 -8 365 -8 q 161 62 214 -8 q 108 243 108 132 q 125 413 108 304 q 251 674 154 594 q 513 753 349 753 q 686 741 606 753 q 824 713 767 729 l 697 -83 q 332 -329 658 -329 q 249 -325 292 -329 l 57 -314 m 390 131 q 477 145 436 131 q 568 189 518 160 l 633 604 q 578 610 621 606 q 497 614 535 614 q 363 561 413 614 q 293 393 313 508 q 279 272 279 311 q 309 166 279 201 q 390 131 339 131 z "},"ğ":{"ha":796,"x_min":57,"x_max":824,"o":"m 57 -314 l 76 -194 l 307 -194 q 529 -57 507 -194 l 551 76 q 434 15 503 39 q 306 -8 365 -8 q 161 62 214 -8 q 108 243 108 132 q 125 413 108 304 q 251 674 154 594 q 513 753 349 753 q 686 741 606 753 q 824 713 767 729 l 697 -83 q 332 -329 658 -329 q 249 -325 292 -329 l 57 -314 m 390 131 q 477 145 436 131 q 568 189 518 160 l 633 604 q 578 610 621 606 q 497 614 535 614 q 363 561 413 614 q 293 393 313 508 q 279 272 279 311 q 309 166 279 201 q 390 131 339 131 m 532 868 q 414 906 457 868 q 371 1021 371 943 q 376 1074 371 1035 l 457 1074 q 454 1040 454 1049 q 479 970 454 993 q 543 947 504 947 q 628 977 593 947 q 674 1074 663 1007 l 756 1074 q 681 918 739 968 q 532 868 622 868 z "},"ǧ":{"ha":796,"x_min":57,"x_max":824,"o":"m 57 -314 l 76 -194 l 307 -194 q 529 -57 507 -194 l 551 76 q 434 15 503 39 q 306 -8 365 -8 q 161 62 214 -8 q 108 243 108 132 q 125 413 108 304 q 251 674 154 594 q 513 753 349 753 q 686 741 606 753 q 824 713 767 729 l 697 -83 q 332 -329 658 -329 q 249 -325 292 -329 l 57 -314 m 390 131 q 477 145 436 131 q 568 189 518 160 l 633 604 q 578 610 621 606 q 497 614 535 614 q 363 561 413 614 q 293 393 313 508 q 279 272 279 311 q 309 166 279 201 q 390 131 339 131 m 369 1069 l 469 1069 l 556 954 l 686 1069 l 788 1069 l 600 876 l 481 876 l 369 1069 z "},"ĝ":{"ha":796,"x_min":57,"x_max":824,"o":"m 57 -314 l 76 -194 l 307 -194 q 529 -57 507 -194 l 551 76 q 434 15 503 39 q 306 -8 365 -8 q 161 62 214 -8 q 108 243 108 132 q 125 413 108 304 q 251 674 154 594 q 513 753 349 753 q 686 741 606 753 q 824 713 767 729 l 697 -83 q 332 -329 658 -329 q 249 -325 292 -329 l 57 -314 m 390 131 q 477 145 436 131 q 568 189 518 160 l 633 604 q 578 610 621 606 q 497 614 535 614 q 363 561 413 614 q 293 393 313 508 q 279 272 279 311 q 309 166 279 201 q 390 131 339 131 m 507 1069 l 625 1069 l 738 876 l 636 876 l 551 992 l 421 876 l 319 876 l 507 1069 z "},"ģ":{"ha":796,"x_min":57,"x_max":824,"o":"m 57 -314 l 76 -194 l 307 -194 q 529 -57 507 -194 l 551 76 q 434 15 503 39 q 306 -8 365 -8 q 161 62 214 -8 q 108 243 108 132 q 125 413 108 304 q 251 674 154 594 q 513 753 349 753 q 686 741 606 753 q 824 713 767 729 l 697 -83 q 332 -329 658 -329 q 249 -325 292 -329 l 57 -314 m 390 131 q 477 145 436 131 q 568 189 518 160 l 633 604 q 578 610 621 606 q 497 614 535 614 q 363 561 413 614 q 293 393 313 508 q 279 272 279 311 q 309 166 279 201 q 390 131 339 131 m 436 867 q 494 1019 453 975 q 626 1064 535 1064 l 692 1064 l 679 994 l 639 985 q 589 969 607 979 q 559 935 571 958 q 542 867 547 913 l 436 867 z "},"ġ":{"ha":796,"x_min":57,"x_max":824,"o":"m 57 -314 l 76 -194 l 307 -194 q 529 -57 507 -194 l 551 76 q 434 15 503 39 q 306 -8 365 -8 q 161 62 214 -8 q 108 243 108 132 q 125 413 108 304 q 251 674 154 594 q 513 753 349 753 q 686 741 606 753 q 824 713 767 729 l 697 -83 q 332 -329 658 -329 q 249 -325 292 -329 l 57 -314 m 390 131 q 477 145 436 131 q 568 189 518 160 l 633 604 q 578 610 621 606 q 497 614 535 614 q 363 561 413 614 q 293 393 313 508 q 279 272 279 311 q 309 166 279 201 q 390 131 339 131 m 494 903 q 478 908 485 903 q 472 924 472 914 l 472 929 l 492 1054 q 522 1082 496 1082 l 601 1082 q 624 1061 624 1082 l 624 1054 l 604 929 q 574 903 600 903 l 494 903 z "},"ḡ":{"ha":796,"x_min":57,"x_max":824,"o":"m 57 -314 l 76 -194 l 307 -194 q 529 -57 507 -194 l 551 76 q 434 15 503 39 q 306 -8 365 -8 q 161 62 214 -8 q 108 243 108 132 q 125 413 108 304 q 251 674 154 594 q 513 753 349 753 q 686 741 606 753 q 824 713 767 729 l 697 -83 q 332 -329 658 -329 q 249 -325 292 -329 l 57 -314 m 390 131 q 477 145 436 131 q 568 189 518 160 l 633 604 q 578 610 621 606 q 497 614 535 614 q 363 561 413 614 q 293 393 313 508 q 279 272 279 311 q 309 166 279 201 q 390 131 339 131 m 365 1013 l 749 1013 l 732 911 l 349 911 l 365 1013 z "},"h":{"ha":813,"x_min":82,"x_max":817,"o":"m 250 1060 l 422 1060 l 358 667 q 482 730 413 706 q 631 754 551 754 q 817 569 817 754 q 811 489 817 529 l 732 0 l 561 0 l 633 468 q 638 506 638 489 q 611 578 638 556 q 536 600 585 600 q 434 583 479 600 q 339 532 389 567 l 254 0 l 82 0 l 250 1060 z "},"ħ":{"ha":814,"x_min":82,"x_max":817,"o":"m 631 754 q 817 569 817 754 q 811 489 817 529 l 732 0 l 561 0 l 633 468 q 638 506 638 489 q 611 578 638 556 q 536 600 585 600 q 434 583 479 600 q 339 532 389 567 l 254 0 l 82 0 l 218 861 l 136 861 l 147 931 l 229 931 l 250 1060 l 422 1060 l 401 931 l 579 931 l 568 861 l 390 861 l 358 667 q 482 730 413 706 q 631 754 551 754 z "},"ḫ":{"ha":813,"x_min":82,"x_max":817,"o":"m 250 1060 l 422 1060 l 358 667 q 482 730 413 706 q 631 754 551 754 q 817 569 817 754 q 811 489 817 529 l 732 0 l 561 0 l 633 468 q 638 506 638 489 q 611 578 638 556 q 536 600 585 600 q 434 583 479 600 q 339 532 389 567 l 254 0 l 82 0 l 250 1060 m 357 -312 q 238 -275 281 -312 q 196 -160 196 -237 q 197 -131 196 -144 q 200 -107 199 -118 l 281 -107 q 278 -140 278 -132 q 303 -211 278 -189 q 368 -233 328 -233 q 499 -107 478 -233 l 581 -107 q 506 -262 564 -212 q 357 -312 447 -312 z "},"ĥ":{"ha":813,"x_min":82,"x_max":817,"o":"m 250 1060 l 422 1060 l 358 667 q 482 730 413 706 q 631 754 551 754 q 817 569 817 754 q 811 489 817 529 l 732 0 l 561 0 l 633 468 q 638 506 638 489 q 611 578 638 556 q 536 600 585 600 q 434 583 479 600 q 339 532 389 567 l 254 0 l 82 0 l 250 1060 m 433 1347 l 551 1347 l 664 1154 l 563 1154 l 478 1269 l 347 1154 l 246 1154 l 433 1347 z "},"ḥ":{"ha":813,"x_min":82,"x_max":817,"o":"m 250 1060 l 422 1060 l 358 667 q 482 730 413 706 q 631 754 551 754 q 817 569 817 754 q 811 489 817 529 l 732 0 l 561 0 l 633 468 q 638 506 638 489 q 611 578 638 556 q 536 600 585 600 q 434 583 479 600 q 339 532 389 567 l 254 0 l 82 0 l 250 1060 m 315 -306 q 299 -300 306 -306 q 293 -285 293 -294 l 293 -279 l 313 -154 q 343 -126 317 -126 l 422 -126 q 444 -147 444 -126 l 444 -154 l 425 -279 q 394 -306 421 -306 l 315 -306 z "},"i":{"ha":333,"x_min":81,"x_max":421,"o":"m 240 863 q 223 869 229 863 q 218 888 217 876 l 238 1014 q 268 1042 242 1042 l 399 1042 q 416 1034 411 1042 q 418 1014 421 1026 l 399 888 q 371 863 394 863 l 240 863 m 199 744 l 371 744 l 253 0 l 81 0 l 199 744 z "},"ı":{"ha":335,"x_min":82,"x_max":372,"o":"m 200 744 l 372 744 l 254 0 l 82 0 l 200 744 z "},"í":{"ha":335,"x_min":82,"x_max":549,"o":"m 200 744 l 372 744 l 254 0 l 82 0 l 200 744 m 400 1069 l 549 1069 l 361 876 l 253 876 l 400 1069 z "},"ĭ":{"ha":335,"x_min":82,"x_max":536,"o":"m 200 744 l 372 744 l 254 0 l 82 0 l 200 744 m 313 868 q 194 906 238 868 q 151 1021 151 943 q 157 1074 151 1035 l 238 1074 q 235 1040 235 1049 q 260 970 235 993 q 324 947 285 947 q 408 977 374 947 q 454 1074 443 1007 l 536 1074 q 461 918 519 968 q 313 868 403 868 z "},"î":{"ha":335,"x_min":82,"x_max":518,"o":"m 200 744 l 372 744 l 254 0 l 82 0 l 200 744 m 288 1069 l 406 1069 l 518 876 l 417 876 l 332 992 l 201 876 l 100 876 l 288 1069 z "},"ȉ":{"ha":335,"x_min":29,"x_max":496,"o":"m 200 744 l 372 744 l 254 0 l 82 0 l 200 744 m 29 1069 l 169 1069 l 264 876 l 163 876 l 29 1069 m 261 1069 l 401 1069 l 496 876 l 394 876 l 261 1069 z "},"ï":{"ha":335,"x_min":82,"x_max":536,"o":"m 200 744 l 372 744 l 254 0 l 82 0 l 200 744 m 125 893 q 109 899 115 893 q 103 914 103 904 q 124 1044 103 910 q 154 1072 128 1072 l 233 1072 q 256 1051 256 1072 l 235 919 q 204 893 233 893 l 125 893 m 406 893 q 390 899 396 893 q 383 914 383 904 l 404 1044 q 433 1072 408 1072 l 514 1072 q 536 1051 536 1072 q 515 919 536 1057 q 485 893 511 893 l 406 893 z "},"ḯ":{"ha":335,"x_min":82,"x_max":571,"o":"m 200 744 l 372 744 l 254 0 l 82 0 l 200 744 m 125 893 q 109 899 115 893 q 103 914 103 904 q 124 1044 103 910 q 154 1072 128 1072 l 233 1072 q 256 1051 256 1072 l 235 919 q 204 893 233 893 l 125 893 m 406 893 q 390 899 396 893 q 383 914 383 904 l 404 1044 q 433 1072 408 1072 l 514 1072 q 536 1051 536 1072 q 515 919 536 1057 q 485 893 511 893 l 406 893 m 422 1325 l 571 1325 l 383 1132 l 275 1132 l 422 1325 z "},"ị":{"ha":333,"x_min":75,"x_max":418,"o":"m 240 863 q 223 869 229 863 q 218 888 217 876 l 238 1014 q 268 1042 242 1042 l 399 1042 q 416 1034 411 1042 q 418 1014 421 1026 l 399 888 q 371 863 394 863 l 240 863 m 199 744 l 371 744 l 253 0 l 81 0 l 199 744 m 97 -306 q 81 -300 88 -306 q 75 -285 75 -294 l 75 -279 l 94 -154 q 125 -126 99 -126 l 204 -126 q 226 -147 226 -126 l 226 -154 l 207 -279 q 176 -306 203 -306 l 97 -306 z "},"ì":{"ha":335,"x_min":82,"x_max":388,"o":"m 200 744 l 372 744 l 254 0 l 82 0 l 200 744 m 153 1069 l 293 1069 l 388 876 l 286 876 l 153 1069 z "},"ỉ":{"ha":335,"x_min":82,"x_max":444,"o":"m 200 744 l 372 744 l 254 0 l 82 0 l 200 744 m 276 906 q 350 982 350 928 q 304 1018 350 1018 q 256 1010 289 1018 l 267 1078 q 339 1089 303 1089 q 444 997 444 1089 q 264 829 444 878 l 276 906 z "},"ȋ":{"ha":335,"x_min":82,"x_max":501,"o":"m 200 744 l 372 744 l 254 0 l 82 0 l 200 744 m 117 871 q 192 1026 133 976 q 340 1076 250 1076 q 458 1039 415 1076 q 501 924 501 1001 q 496 871 501 910 l 415 871 q 418 904 418 896 q 393 975 418 953 q 328 997 368 997 q 244 967 279 997 q 199 871 210 938 l 117 871 z "},"ī":{"ha":335,"x_min":82,"x_max":529,"o":"m 200 744 l 372 744 l 254 0 l 82 0 l 200 744 m 146 1013 l 529 1013 l 513 911 l 129 911 l 146 1013 z "},"į":{"ha":333,"x_min":71,"x_max":418,"o":"m 240 863 q 223 869 229 863 q 218 888 217 876 l 238 1014 q 268 1042 242 1042 l 399 1042 q 416 1034 411 1042 q 418 1014 421 1026 l 399 888 q 371 863 394 863 l 240 863 m 199 744 l 371 744 l 253 0 l 81 0 l 199 744 m 200 -264 q 103 -235 136 -264 q 71 -160 71 -206 q 101 -69 71 -111 q 190 0 132 -28 l 254 0 q 185 -57 208 -25 q 163 -114 163 -89 q 184 -161 163 -144 q 244 -178 206 -178 l 256 -178 l 242 -260 q 200 -264 226 -264 z "},"ĩ":{"ha":335,"x_min":65,"x_max":594,"o":"m 200 744 l 372 744 l 254 0 l 82 0 l 200 744 m 65 889 q 128 1013 83 975 q 232 1051 172 1051 q 288 1042 263 1051 q 349 1015 313 1033 q 396 993 378 1000 q 432 986 414 986 q 483 1004 463 986 q 508 1057 503 1022 l 594 1057 q 535 931 575 972 q 431 890 494 890 q 378 899 403 890 q 313 926 353 908 q 265 949 283 942 q 228 956 246 956 q 178 938 200 956 q 151 889 157 919 l 65 889 z "},"j":{"ha":333,"x_min":28,"x_max":421,"o":"m 240 863 q 223 869 229 863 q 218 888 217 876 l 238 1014 q 268 1042 242 1042 l 399 1042 q 416 1034 411 1042 q 418 1014 421 1026 l 399 888 q 371 863 394 863 l 240 863 m 199 744 l 371 744 l 251 -6 q 156 -329 232 -139 l 28 -329 l 199 744 z "},"ȷ":{"ha":335,"x_min":29,"x_max":372,"o":"m 200 744 l 372 744 l 253 -6 q 157 -329 233 -139 l 29 -329 l 200 744 z "},"ĵ":{"ha":335,"x_min":29,"x_max":518,"o":"m 200 744 l 372 744 l 253 -6 q 157 -329 233 -139 l 29 -329 l 200 744 m 288 1069 l 406 1069 l 518 876 l 417 876 l 332 992 l 201 876 l 100 876 l 288 1069 z "},"k":{"ha":764,"x_min":82,"x_max":796,"o":"m 250 1060 l 422 1060 l 328 469 q 514 548 439 482 q 625 744 589 614 l 796 744 q 553 406 725 492 l 756 0 l 578 0 l 407 353 q 356 343 385 347 q 307 339 328 339 l 254 0 l 82 0 l 250 1060 z "},"ķ":{"ha":764,"x_min":82,"x_max":796,"o":"m 250 1060 l 422 1060 l 328 469 q 514 548 439 482 q 625 744 589 614 l 796 744 q 553 406 725 492 l 756 0 l 578 0 l 407 353 q 356 343 385 347 q 307 339 328 339 l 254 0 l 82 0 l 250 1060 m 243 -222 l 283 -214 q 334 -197 317 -207 q 363 -165 351 -187 q 381 -96 374 -142 l 486 -96 q 428 -249 469 -204 q 296 -293 388 -293 l 231 -293 l 243 -222 z "},"ĸ":{"ha":764,"x_min":81,"x_max":796,"o":"m 199 744 l 371 744 l 325 457 q 512 540 438 471 q 624 744 586 608 l 796 744 q 692 517 756 600 q 550 393 629 435 l 754 0 l 576 0 l 404 340 q 304 328 358 328 l 253 0 l 81 0 l 199 744 z "},"l":{"ha":433,"x_min":115,"x_max":428,"o":"m 321 0 q 168 42 221 0 q 115 160 115 85 q 122 257 115 208 l 250 1060 l 422 1060 l 303 313 q 297 269 301 304 q 292 210 292 233 q 310 153 292 171 q 368 132 329 136 l 428 124 l 407 0 l 321 0 z "},"ĺ":{"ha":433,"x_min":115,"x_max":594,"o":"m 321 0 q 168 42 221 0 q 115 160 115 85 q 122 257 115 208 l 250 1060 l 422 1060 l 303 313 q 297 269 301 304 q 292 210 292 233 q 310 153 292 171 q 368 132 329 136 l 428 124 l 407 0 l 321 0 m 446 1347 l 594 1347 l 407 1154 l 299 1154 l 446 1347 z "},"ľ":{"ha":433,"x_min":115,"x_max":656,"o":"m 321 0 q 168 42 221 0 q 115 160 115 85 q 122 257 115 208 l 250 1060 l 422 1060 l 303 313 q 297 269 301 304 q 292 210 292 233 q 310 153 292 171 q 368 132 329 136 l 428 124 l 407 0 l 321 0 m 483 999 l 499 1092 l 656 1092 l 642 999 l 599 799 l 467 799 l 483 999 z "},"ļ":{"ha":433,"x_min":85,"x_max":428,"o":"m 321 0 q 168 42 221 0 q 115 160 115 85 q 122 257 115 208 l 250 1060 l 422 1060 l 303 313 q 297 269 301 304 q 292 210 292 233 q 310 153 292 171 q 368 132 329 136 l 428 124 l 407 0 l 321 0 m 97 -222 l 138 -214 q 188 -197 171 -207 q 217 -165 206 -187 q 235 -96 228 -142 l 340 -96 q 283 -249 324 -204 q 150 -293 242 -293 l 85 -293 l 97 -222 z "},"ŀ":{"ha":478,"x_min":115,"x_max":593,"o":"m 321 0 q 168 42 221 0 q 115 160 115 85 q 122 257 115 208 l 250 1060 l 422 1060 l 303 313 q 297 269 301 304 q 292 210 292 233 q 310 153 292 171 q 368 132 329 136 l 428 124 l 407 0 l 321 0 m 447 486 q 430 494 436 486 q 425 513 424 501 l 440 614 q 472 642 444 642 l 571 642 q 593 614 597 642 l 576 513 q 546 486 572 486 l 447 486 z "},"ḷ":{"ha":433,"x_min":115,"x_max":428,"o":"m 321 0 q 168 42 221 0 q 115 160 115 85 q 122 257 115 208 l 250 1060 l 422 1060 l 303 313 q 297 269 301 304 q 292 210 292 233 q 310 153 292 171 q 368 132 329 136 l 428 124 l 407 0 l 321 0 m 168 -306 q 152 -300 158 -306 q 146 -285 146 -294 l 146 -279 l 165 -154 q 196 -126 169 -126 l 275 -126 q 297 -147 297 -126 l 297 -154 l 278 -279 q 247 -306 274 -306 l 168 -306 z "},"ḻ":{"ha":433,"x_min":31,"x_max":431,"o":"m 321 0 q 168 42 221 0 q 115 160 115 85 q 122 257 115 208 l 250 1060 l 422 1060 l 303 313 q 297 269 301 304 q 292 210 292 233 q 310 153 292 171 q 368 132 329 136 l 428 124 l 407 0 l 321 0 m 47 -182 l 431 -182 l 414 -283 l 31 -283 l 47 -182 z "},"ł":{"ha":433,"x_min":69,"x_max":497,"o":"m 303 313 q 297 269 301 304 q 292 210 292 233 q 310 153 292 171 q 368 132 329 136 l 428 124 l 407 0 l 321 0 q 168 42 221 0 q 115 160 115 85 q 122 257 115 208 l 163 513 l 69 479 l 85 574 l 178 607 l 250 1060 l 422 1060 l 358 664 l 497 713 l 482 618 l 344 569 l 303 313 z "},"m":{"ha":1292,"x_min":82,"x_max":1294,"o":"m 199 744 l 340 744 l 358 667 q 631 754 489 754 q 743 727 700 754 q 811 643 786 700 q 949 726 872 697 q 1097 754 1025 754 q 1294 575 1294 754 q 1286 475 1294 521 l 1211 0 l 1039 0 l 1114 471 q 1117 504 1117 490 q 1010 600 1117 600 q 910 581 957 600 q 810 526 863 563 q 806 463 811 501 l 732 0 l 561 0 l 633 464 q 638 506 638 492 q 532 600 638 600 q 436 583 478 600 q 339 532 394 567 l 254 0 l 82 0 l 199 744 z "},"ṁ":{"ha":1292,"x_min":82,"x_max":1294,"o":"m 199 744 l 340 744 l 358 667 q 631 754 489 754 q 743 727 700 754 q 811 643 786 700 q 949 726 872 697 q 1097 754 1025 754 q 1294 575 1294 754 q 1286 475 1294 521 l 1211 0 l 1039 0 l 1114 471 q 1117 504 1117 490 q 1010 600 1117 600 q 910 581 957 600 q 810 526 863 563 q 806 463 811 501 l 732 0 l 561 0 l 633 464 q 638 506 638 492 q 532 600 638 600 q 436 583 478 600 q 339 532 394 567 l 254 0 l 82 0 l 199 744 m 754 903 q 738 908 744 903 q 732 924 732 914 l 732 929 l 751 1054 q 782 1082 756 1082 l 861 1082 q 883 1061 883 1082 l 883 1054 l 864 929 q 833 903 860 903 l 754 903 z "},"ṃ":{"ha":1292,"x_min":82,"x_max":1294,"o":"m 199 744 l 340 744 l 358 667 q 631 754 489 754 q 743 727 700 754 q 811 643 786 700 q 949 726 872 697 q 1097 754 1025 754 q 1294 575 1294 754 q 1286 475 1294 521 l 1211 0 l 1039 0 l 1114 471 q 1117 504 1117 490 q 1010 600 1117 600 q 910 581 957 600 q 810 526 863 563 q 806 463 811 501 l 732 0 l 561 0 l 633 464 q 638 506 638 492 q 532 600 638 600 q 436 583 478 600 q 339 532 394 567 l 254 0 l 82 0 l 199 744 m 565 -306 q 549 -300 556 -306 q 543 -285 543 -294 l 543 -279 l 563 -154 q 593 -126 567 -126 l 672 -126 q 694 -147 694 -126 l 694 -154 l 675 -279 q 644 -306 671 -306 l 565 -306 z "},"n":{"ha":813,"x_min":82,"x_max":817,"o":"m 199 744 l 340 744 l 358 667 q 628 754 486 754 q 769 708 721 754 q 817 583 817 661 q 803 439 817 528 l 732 0 l 561 0 l 629 433 q 638 507 638 486 q 532 600 638 600 q 434 583 479 600 q 339 532 389 565 l 254 0 l 82 0 l 199 744 z "},"ń":{"ha":813,"x_min":82,"x_max":817,"o":"m 199 744 l 340 744 l 358 667 q 628 754 486 754 q 769 708 721 754 q 817 583 817 661 q 803 439 817 528 l 732 0 l 561 0 l 629 433 q 638 507 638 486 q 532 600 638 600 q 434 583 479 600 q 339 532 389 565 l 254 0 l 82 0 l 199 744 m 631 1069 l 779 1069 l 592 876 l 483 876 l 631 1069 z "},"ň":{"ha":813,"x_min":82,"x_max":817,"o":"m 199 744 l 340 744 l 358 667 q 628 754 486 754 q 769 708 721 754 q 817 583 817 661 q 803 439 817 528 l 732 0 l 561 0 l 629 433 q 638 507 638 486 q 532 600 638 600 q 434 583 479 600 q 339 532 389 565 l 254 0 l 82 0 l 199 744 m 381 1069 l 481 1069 l 567 954 l 697 1069 l 799 1069 l 611 876 l 492 876 l 381 1069 z "},"ņ":{"ha":813,"x_min":82,"x_max":817,"o":"m 199 744 l 340 744 l 358 667 q 628 754 486 754 q 769 708 721 754 q 817 583 817 661 q 803 439 817 528 l 732 0 l 561 0 l 629 433 q 638 507 638 486 q 532 600 638 600 q 434 583 479 600 q 339 532 389 565 l 254 0 l 82 0 l 199 744 m 246 -222 l 286 -214 q 337 -197 319 -207 q 365 -165 354 -187 q 383 -96 376 -142 l 489 -96 q 431 -249 472 -204 q 299 -293 390 -293 l 233 -293 l 246 -222 z "},"ṅ":{"ha":813,"x_min":82,"x_max":817,"o":"m 199 744 l 340 744 l 358 667 q 628 754 486 754 q 769 708 721 754 q 817 583 817 661 q 803 439 817 528 l 732 0 l 561 0 l 629 433 q 638 507 638 486 q 532 600 638 600 q 434 583 479 600 q 339 532 389 565 l 254 0 l 82 0 l 199 744 m 317 -306 q 301 -300 307 -306 q 294 -285 294 -294 l 294 -279 l 314 -154 q 344 -126 318 -126 l 424 -126 q 446 -147 446 -126 l 446 -154 l 426 -279 q 396 -306 422 -306 l 317 -306 z "},"ṇ":{"ha":813,"x_min":82,"x_max":817,"o":"m 199 744 l 340 744 l 358 667 q 628 754 486 754 q 769 708 721 754 q 817 583 817 661 q 803 439 817 528 l 732 0 l 561 0 l 629 433 q 638 507 638 486 q 532 600 638 600 q 434 583 479 600 q 339 532 389 565 l 254 0 l 82 0 l 199 744 m 317 -306 q 301 -300 307 -306 q 294 -285 294 -294 l 294 -279 l 314 -154 q 344 -126 318 -126 l 424 -126 q 446 -147 446 -126 l 446 -154 l 426 -279 q 396 -306 422 -306 l 317 -306 z "},"ŋ":{"ha":813,"x_min":82,"x_max":817,"o":"m 817 583 q 803 439 817 528 l 736 25 l 726 -36 q 653 -221 710 -146 q 515 -329 596 -296 l 376 -329 q 490 -218 444 -287 q 554 -40 536 -149 l 564 25 l 565 25 l 629 433 q 638 507 638 486 q 532 600 638 600 q 434 583 479 600 q 339 532 389 565 l 254 0 l 82 0 l 199 744 l 340 744 l 358 667 q 628 754 486 754 q 769 708 721 754 q 817 583 817 661 z "},"ṉ":{"ha":813,"x_min":82,"x_max":817,"o":"m 199 744 l 340 744 l 358 667 q 628 754 486 754 q 769 708 721 754 q 817 583 817 661 q 803 439 817 528 l 732 0 l 561 0 l 629 433 q 638 507 638 486 q 532 600 638 600 q 434 583 479 600 q 339 532 389 565 l 254 0 l 82 0 l 199 744 m 196 -182 l 579 -182 l 563 -283 l 179 -283 l 196 -182 z "},"ñ":{"ha":813,"x_min":82,"x_max":825,"o":"m 199 744 l 340 744 l 358 667 q 628 754 486 754 q 769 708 721 754 q 817 583 817 661 q 803 439 817 528 l 732 0 l 561 0 l 629 433 q 638 507 638 486 q 532 600 638 600 q 434 583 479 600 q 339 532 389 565 l 254 0 l 82 0 l 199 744 m 296 889 q 358 1013 314 975 q 463 1051 403 1051 q 518 1042 493 1051 q 579 1015 543 1033 q 626 993 608 1000 q 663 986 644 986 q 713 1004 693 986 q 739 1057 733 1022 l 825 1057 q 765 931 806 972 q 661 890 725 890 q 608 899 633 890 q 543 926 583 908 q 495 949 514 942 q 458 956 476 956 q 409 938 431 956 q 382 889 388 919 l 296 889 z "},"o":{"ha":793,"x_min":110,"x_max":800,"o":"m 396 -8 q 110 249 110 -8 q 121 388 110 317 q 191 614 144 535 q 314 723 238 693 q 515 753 390 753 q 688 724 626 753 q 775 637 750 694 q 800 485 800 579 q 788 336 800 418 q 720 126 767 200 q 597 22 674 51 q 396 -8 519 -8 m 415 131 q 517 149 479 131 q 578 216 554 167 q 617 361 601 265 q 629 492 629 456 q 598 588 629 560 q 492 617 567 617 q 389 596 426 617 q 328 521 351 575 q 289 361 306 467 q 279 256 279 289 q 313 157 279 183 q 415 131 346 131 z "},"ó":{"ha":793,"x_min":110,"x_max":800,"o":"m 396 -8 q 110 249 110 -8 q 121 388 110 317 q 191 614 144 535 q 314 723 238 693 q 515 753 390 753 q 688 724 626 753 q 775 637 750 694 q 800 485 800 579 q 788 336 800 418 q 720 126 767 200 q 597 22 674 51 q 396 -8 519 -8 m 415 131 q 517 149 479 131 q 578 216 554 167 q 617 361 601 265 q 629 492 629 456 q 598 588 629 560 q 492 617 567 617 q 389 596 426 617 q 328 521 351 575 q 289 361 306 467 q 279 256 279 289 q 313 157 279 183 q 415 131 346 131 m 615 1069 l 764 1069 l 576 876 l 468 876 l 615 1069 z "},"ŏ":{"ha":793,"x_min":110,"x_max":800,"o":"m 396 -8 q 110 249 110 -8 q 121 388 110 317 q 191 614 144 535 q 314 723 238 693 q 515 753 390 753 q 688 724 626 753 q 775 637 750 694 q 800 485 800 579 q 788 336 800 418 q 720 126 767 200 q 597 22 674 51 q 396 -8 519 -8 m 415 131 q 517 149 479 131 q 578 216 554 167 q 617 361 601 265 q 629 492 629 456 q 598 588 629 560 q 492 617 567 617 q 389 596 426 617 q 328 521 351 575 q 289 361 306 467 q 279 256 279 289 q 313 157 279 183 q 415 131 346 131 m 528 868 q 410 906 453 868 q 367 1021 367 943 q 372 1074 367 1035 l 453 1074 q 450 1040 450 1049 q 475 970 450 993 q 539 947 500 947 q 624 977 589 947 q 669 1074 658 1007 l 751 1074 q 676 918 735 968 q 528 868 618 868 z "},"ô":{"ha":793,"x_min":110,"x_max":800,"o":"m 396 -8 q 110 249 110 -8 q 121 388 110 317 q 191 614 144 535 q 314 723 238 693 q 515 753 390 753 q 688 724 626 753 q 775 637 750 694 q 800 485 800 579 q 788 336 800 418 q 720 126 767 200 q 597 22 674 51 q 396 -8 519 -8 m 415 131 q 517 149 479 131 q 578 216 554 167 q 617 361 601 265 q 629 492 629 456 q 598 588 629 560 q 492 617 567 617 q 389 596 426 617 q 328 521 351 575 q 289 361 306 467 q 279 256 279 289 q 313 157 279 183 q 415 131 346 131 m 503 1069 l 621 1069 l 733 876 l 632 876 l 547 992 l 417 876 l 315 876 l 503 1069 z "},"ố":{"ha":793,"x_min":110,"x_max":910,"o":"m 396 -8 q 110 249 110 -8 q 121 388 110 317 q 191 614 144 535 q 314 723 238 693 q 515 753 390 753 q 688 724 626 753 q 775 637 750 694 q 800 485 800 579 q 788 336 800 418 q 720 126 767 200 q 597 22 674 51 q 396 -8 519 -8 m 415 131 q 517 149 479 131 q 578 216 554 167 q 617 361 601 265 q 629 492 629 456 q 598 588 629 560 q 492 617 567 617 q 389 596 426 617 q 328 521 351 575 q 289 361 306 467 q 279 256 279 289 q 313 157 279 183 q 415 131 346 131 m 776 1167 l 910 1167 l 757 990 l 664 990 l 776 1167 m 486 1022 l 604 1022 l 725 876 l 624 876 l 531 944 l 407 876 l 306 876 l 486 1022 z "},"ộ":{"ha":793,"x_min":110,"x_max":800,"o":"m 396 -8 q 110 249 110 -8 q 121 388 110 317 q 191 614 144 535 q 314 723 238 693 q 515 753 390 753 q 688 724 626 753 q 775 637 750 694 q 800 485 800 579 q 788 336 800 418 q 720 126 767 200 q 597 22 674 51 q 396 -8 519 -8 m 415 131 q 517 149 479 131 q 578 216 554 167 q 617 361 601 265 q 629 492 629 456 q 598 588 629 560 q 492 617 567 617 q 389 596 426 617 q 328 521 351 575 q 289 361 306 467 q 279 256 279 289 q 313 157 279 183 q 415 131 346 131 m 503 1069 l 621 1069 l 733 876 l 632 876 l 547 992 l 417 876 l 315 876 l 503 1069 m 301 -306 q 285 -300 292 -306 q 279 -285 279 -294 l 279 -279 l 299 -154 q 329 -126 303 -126 l 408 -126 q 431 -147 431 -126 l 431 -154 l 411 -279 q 381 -306 407 -306 l 301 -306 z "},"ồ":{"ha":793,"x_min":110,"x_max":800,"o":"m 396 -8 q 110 249 110 -8 q 121 388 110 317 q 191 614 144 535 q 314 723 238 693 q 515 753 390 753 q 688 724 626 753 q 775 637 750 694 q 800 485 800 579 q 788 336 800 418 q 720 126 767 200 q 597 22 674 51 q 396 -8 519 -8 m 415 131 q 517 149 479 131 q 578 216 554 167 q 617 361 601 265 q 629 492 629 456 q 598 588 629 560 q 492 617 567 617 q 389 596 426 617 q 328 521 351 575 q 289 361 306 467 q 279 256 279 289 q 313 157 279 183 q 415 131 346 131 m 222 1167 l 356 1167 l 411 990 l 318 990 l 222 1167 m 481 1022 l 600 1022 l 719 876 l 619 876 l 526 944 l 403 876 l 301 876 l 481 1022 z "},"ổ":{"ha":793,"x_min":110,"x_max":851,"o":"m 396 -8 q 110 249 110 -8 q 121 388 110 317 q 191 614 144 535 q 314 723 238 693 q 515 753 390 753 q 688 724 626 753 q 775 637 750 694 q 800 485 800 579 q 788 336 800 418 q 720 126 767 200 q 597 22 674 51 q 396 -8 519 -8 m 415 131 q 517 149 479 131 q 578 216 554 167 q 617 361 601 265 q 629 492 629 456 q 598 588 629 560 q 492 617 567 617 q 389 596 426 617 q 328 521 351 575 q 289 361 306 467 q 279 256 279 289 q 313 157 279 183 q 415 131 346 131 m 703 1019 q 765 1085 765 1043 q 728 1113 765 1113 q 679 1104 703 1113 l 690 1174 q 760 1183 721 1183 q 851 1106 851 1183 q 692 951 851 994 l 703 1019 m 489 1022 l 607 1022 l 728 876 l 626 876 l 533 944 l 411 876 l 310 876 l 489 1022 z "},"ỗ":{"ha":793,"x_min":110,"x_max":800,"o":"m 396 -8 q 110 249 110 -8 q 121 388 110 317 q 191 614 144 535 q 314 723 238 693 q 515 753 390 753 q 688 724 626 753 q 775 637 750 694 q 800 485 800 579 q 788 336 800 418 q 720 126 767 200 q 597 22 674 51 q 396 -8 519 -8 m 415 131 q 517 149 479 131 q 578 216 554 167 q 617 361 601 265 q 629 492 629 456 q 598 588 629 560 q 492 617 567 617 q 389 596 426 617 q 328 521 351 575 q 289 361 306 467 q 279 256 279 289 q 313 157 279 183 q 415 131 346 131 m 318 1082 q 374 1185 335 1157 q 474 1213 414 1213 q 519 1206 499 1213 q 571 1188 539 1200 q 610 1172 594 1176 q 643 1167 626 1167 q 690 1181 671 1167 q 713 1219 708 1194 l 799 1219 q 744 1115 782 1146 q 643 1083 707 1083 q 599 1090 619 1083 q 544 1108 578 1096 q 472 1129 497 1129 q 427 1117 446 1129 q 404 1082 408 1104 l 318 1082 m 490 1022 l 608 1022 l 728 876 l 626 876 l 533 944 l 410 876 l 308 876 l 490 1022 z "},"ȍ":{"ha":793,"x_min":110,"x_max":800,"o":"m 396 -8 q 110 249 110 -8 q 121 388 110 317 q 191 614 144 535 q 314 723 238 693 q 515 753 390 753 q 688 724 626 753 q 775 637 750 694 q 800 485 800 579 q 788 336 800 418 q 720 126 767 200 q 597 22 674 51 q 396 -8 519 -8 m 415 131 q 517 149 479 131 q 578 216 554 167 q 617 361 601 265 q 629 492 629 456 q 598 588 629 560 q 492 617 567 617 q 389 596 426 617 q 328 521 351 575 q 289 361 306 467 q 279 256 279 289 q 313 157 279 183 q 415 131 346 131 m 244 1069 l 385 1069 l 479 876 l 378 876 l 244 1069 m 476 1069 l 617 1069 l 711 876 l 610 876 l 476 1069 z "},"ö":{"ha":793,"x_min":110,"x_max":800,"o":"m 396 -8 q 110 249 110 -8 q 121 388 110 317 q 191 614 144 535 q 314 723 238 693 q 515 753 390 753 q 688 724 626 753 q 775 637 750 694 q 800 485 800 579 q 788 336 800 418 q 720 126 767 200 q 597 22 674 51 q 396 -8 519 -8 m 415 131 q 517 149 479 131 q 578 216 554 167 q 617 361 601 265 q 629 492 629 456 q 598 588 629 560 q 492 617 567 617 q 389 596 426 617 q 328 521 351 575 q 289 361 306 467 q 279 256 279 289 q 313 157 279 183 q 415 131 346 131 m 340 893 q 324 899 331 893 q 318 914 318 904 q 339 1044 318 910 q 369 1072 343 1072 l 449 1072 q 471 1051 471 1072 l 450 919 q 419 893 449 893 l 340 893 m 621 893 q 605 899 611 893 q 599 914 599 904 l 619 1044 q 649 1072 624 1072 l 729 1072 q 751 1051 751 1072 q 731 919 751 1057 q 700 893 726 893 l 621 893 z "},"ȫ":{"ha":793,"x_min":110,"x_max":800,"o":"m 396 -8 q 110 249 110 -8 q 121 388 110 317 q 191 614 144 535 q 314 723 238 693 q 515 753 390 753 q 688 724 626 753 q 775 637 750 694 q 800 485 800 579 q 788 336 800 418 q 720 126 767 200 q 597 22 674 51 q 396 -8 519 -8 m 415 131 q 517 149 479 131 q 578 216 554 167 q 617 361 601 265 q 629 492 629 456 q 598 588 629 560 q 492 617 567 617 q 389 596 426 617 q 328 521 351 575 q 289 361 306 467 q 279 256 279 289 q 313 157 279 183 q 415 131 346 131 m 338 876 q 322 882 328 876 q 315 897 315 888 q 336 1028 315 893 q 367 1056 340 1056 l 446 1056 q 468 1035 468 1056 l 447 903 q 417 876 446 876 l 338 876 m 618 876 q 602 882 608 876 q 596 897 596 888 l 617 1028 q 646 1056 621 1056 l 726 1056 q 749 1035 749 1056 q 728 903 749 1040 q 697 876 724 876 l 618 876 m 379 1232 l 763 1232 l 746 1131 l 363 1131 l 379 1232 z "},"ȱ":{"ha":793,"x_min":110,"x_max":800,"o":"m 396 -8 q 110 249 110 -8 q 121 388 110 317 q 191 614 144 535 q 314 723 238 693 q 515 753 390 753 q 688 724 626 753 q 775 637 750 694 q 800 485 800 579 q 788 336 800 418 q 720 126 767 200 q 597 22 674 51 q 396 -8 519 -8 m 415 131 q 517 149 479 131 q 578 216 554 167 q 617 361 601 265 q 629 492 629 456 q 598 588 629 560 q 492 617 567 617 q 389 596 426 617 q 328 521 351 575 q 289 361 306 467 q 279 256 279 289 q 313 157 279 183 q 415 131 346 131 m 486 878 q 470 883 476 878 q 464 899 464 889 l 464 904 l 483 1029 q 514 1057 488 1057 l 593 1057 q 615 1036 615 1057 l 615 1029 l 596 904 q 565 878 592 878 l 486 878 m 383 1232 l 767 1232 l 750 1131 l 367 1131 l 383 1232 z "},"ọ":{"ha":793,"x_min":110,"x_max":800,"o":"m 396 -8 q 110 249 110 -8 q 121 388 110 317 q 191 614 144 535 q 314 723 238 693 q 515 753 390 753 q 688 724 626 753 q 775 637 750 694 q 800 485 800 579 q 788 336 800 418 q 720 126 767 200 q 597 22 674 51 q 396 -8 519 -8 m 415 131 q 517 149 479 131 q 578 216 554 167 q 617 361 601 265 q 629 492 629 456 q 598 588 629 560 q 492 617 567 617 q 389 596 426 617 q 328 521 351 575 q 289 361 306 467 q 279 256 279 289 q 313 157 279 183 q 415 131 346 131 m 301 -306 q 285 -300 292 -306 q 279 -285 279 -294 l 279 -279 l 299 -154 q 329 -126 303 -126 l 408 -126 q 431 -147 431 -126 l 431 -154 l 411 -279 q 381 -306 407 -306 l 301 -306 z "},"ò":{"ha":793,"x_min":110,"x_max":800,"o":"m 396 -8 q 110 249 110 -8 q 121 388 110 317 q 191 614 144 535 q 314 723 238 693 q 515 753 390 753 q 688 724 626 753 q 775 637 750 694 q 800 485 800 579 q 788 336 800 418 q 720 126 767 200 q 597 22 674 51 q 396 -8 519 -8 m 415 131 q 517 149 479 131 q 578 216 554 167 q 617 361 601 265 q 629 492 629 456 q 598 588 629 560 q 492 617 567 617 q 389 596 426 617 q 328 521 351 575 q 289 361 306 467 q 279 256 279 289 q 313 157 279 183 q 415 131 346 131 m 368 1069 l 508 1069 l 603 876 l 501 876 l 368 1069 z "},"ỏ":{"ha":793,"x_min":110,"x_max":800,"o":"m 396 -8 q 110 249 110 -8 q 121 388 110 317 q 191 614 144 535 q 314 723 238 693 q 515 753 390 753 q 688 724 626 753 q 775 637 750 694 q 800 485 800 579 q 788 336 800 418 q 720 126 767 200 q 597 22 674 51 q 396 -8 519 -8 m 415 131 q 517 149 479 131 q 578 216 554 167 q 617 361 601 265 q 629 492 629 456 q 598 588 629 560 q 492 617 567 617 q 389 596 426 617 q 328 521 351 575 q 289 361 306 467 q 279 256 279 289 q 313 157 279 183 q 415 131 346 131 m 492 906 q 565 982 565 928 q 519 1018 565 1018 q 471 1010 504 1018 l 482 1078 q 554 1089 518 1089 q 660 997 660 1089 q 479 829 660 878 l 492 906 z "},"ơ":{"ha":804,"x_min":110,"x_max":911,"o":"m 911 899 q 857 747 897 806 q 760 665 817 688 q 800 485 800 604 q 788 336 800 418 q 720 126 767 200 q 597 22 674 51 q 396 -8 519 -8 q 110 249 110 -8 q 121 388 110 317 q 191 614 144 535 q 314 723 238 693 q 515 753 390 753 q 621 744 575 753 l 664 744 q 747 780 714 744 q 792 899 779 815 l 911 899 m 617 361 q 629 492 629 456 q 598 588 629 560 q 492 617 567 617 q 389 596 426 617 q 328 521 351 575 q 289 361 306 467 q 279 256 279 289 q 313 157 279 183 q 415 131 346 131 q 517 149 479 131 q 578 216 554 167 q 617 361 601 265 z "},"ớ":{"ha":804,"x_min":110,"x_max":911,"o":"m 911 899 q 857 747 897 806 q 760 665 817 688 q 800 485 800 604 q 788 336 800 418 q 720 126 767 200 q 597 22 674 51 q 396 -8 519 -8 q 110 249 110 -8 q 121 388 110 317 q 191 614 144 535 q 314 723 238 693 q 515 753 390 753 q 621 744 575 753 l 664 744 q 747 780 714 744 q 792 899 779 815 l 911 899 m 617 361 q 629 492 629 456 q 598 588 629 560 q 492 617 567 617 q 389 596 426 617 q 328 521 351 575 q 289 361 306 467 q 279 256 279 289 q 313 157 279 183 q 415 131 346 131 q 517 149 479 131 q 578 216 554 167 q 617 361 601 265 m 590 1069 l 739 1069 l 551 876 l 443 876 l 590 1069 z "},"ợ":{"ha":804,"x_min":110,"x_max":911,"o":"m 911 899 q 857 747 897 806 q 760 665 817 688 q 800 485 800 604 q 788 336 800 418 q 720 126 767 200 q 597 22 674 51 q 396 -8 519 -8 q 110 249 110 -8 q 121 388 110 317 q 191 614 144 535 q 314 723 238 693 q 515 753 390 753 q 621 744 575 753 l 664 744 q 747 780 714 744 q 792 899 779 815 l 911 899 m 617 361 q 629 492 629 456 q 598 588 629 560 q 492 617 567 617 q 389 596 426 617 q 328 521 351 575 q 289 361 306 467 q 279 256 279 289 q 313 157 279 183 q 415 131 346 131 q 517 149 479 131 q 578 216 554 167 q 617 361 601 265 m 317 -306 q 301 -300 307 -306 q 294 -285 294 -294 l 294 -279 l 314 -154 q 344 -126 318 -126 l 424 -126 q 446 -147 446 -126 l 446 -154 l 426 -279 q 396 -306 422 -306 l 317 -306 z "},"ờ":{"ha":804,"x_min":110,"x_max":911,"o":"m 911 899 q 857 747 897 806 q 760 665 817 688 q 800 485 800 604 q 788 336 800 418 q 720 126 767 200 q 597 22 674 51 q 396 -8 519 -8 q 110 249 110 -8 q 121 388 110 317 q 191 614 144 535 q 314 723 238 693 q 515 753 390 753 q 621 744 575 753 l 664 744 q 747 780 714 744 q 792 899 779 815 l 911 899 m 617 361 q 629 492 629 456 q 598 588 629 560 q 492 617 567 617 q 389 596 426 617 q 328 521 351 575 q 289 361 306 467 q 279 256 279 289 q 313 157 279 183 q 415 131 346 131 q 517 149 479 131 q 578 216 554 167 q 617 361 601 265 m 343 1069 l 483 1069 l 578 876 l 476 876 l 343 1069 z "},"ở":{"ha":804,"x_min":110,"x_max":911,"o":"m 911 899 q 857 747 897 806 q 760 665 817 688 q 800 485 800 604 q 788 336 800 418 q 720 126 767 200 q 597 22 674 51 q 396 -8 519 -8 q 110 249 110 -8 q 121 388 110 317 q 191 614 144 535 q 314 723 238 693 q 515 753 390 753 q 621 744 575 753 l 664 744 q 747 780 714 744 q 792 899 779 815 l 911 899 m 617 361 q 629 492 629 456 q 598 588 629 560 q 492 617 567 617 q 389 596 426 617 q 328 521 351 575 q 289 361 306 467 q 279 256 279 289 q 313 157 279 183 q 415 131 346 131 q 517 149 479 131 q 578 216 554 167 q 617 361 601 265 m 467 906 q 540 982 540 928 q 494 1018 540 1018 q 446 1010 479 1018 l 457 1078 q 529 1089 493 1089 q 635 997 635 1089 q 454 829 635 878 l 467 906 z "},"ỡ":{"ha":804,"x_min":110,"x_max":911,"o":"m 911 899 q 857 747 897 806 q 760 665 817 688 q 800 485 800 604 q 788 336 800 418 q 720 126 767 200 q 597 22 674 51 q 396 -8 519 -8 q 110 249 110 -8 q 121 388 110 317 q 191 614 144 535 q 314 723 238 693 q 515 753 390 753 q 621 744 575 753 l 664 744 q 747 780 714 744 q 792 899 779 815 l 911 899 m 617 361 q 629 492 629 456 q 598 588 629 560 q 492 617 567 617 q 389 596 426 617 q 328 521 351 575 q 289 361 306 467 q 279 256 279 289 q 313 157 279 183 q 415 131 346 131 q 517 149 479 131 q 578 216 554 167 q 617 361 601 265 m 256 889 q 318 1013 274 975 q 422 1051 363 1051 q 478 1042 453 1051 q 539 1015 503 1033 q 586 993 568 1000 q 622 986 604 986 q 673 1004 653 986 q 699 1057 693 1022 l 785 1057 q 725 931 765 972 q 621 890 685 890 q 568 899 593 890 q 503 926 543 908 q 455 949 474 942 q 418 956 436 956 q 369 938 390 956 q 342 889 347 919 l 256 889 z "},"ő":{"ha":793,"x_min":110,"x_max":849,"o":"m 396 -8 q 110 249 110 -8 q 121 388 110 317 q 191 614 144 535 q 314 723 238 693 q 515 753 390 753 q 688 724 626 753 q 775 637 750 694 q 800 485 800 579 q 788 336 800 418 q 720 126 767 200 q 597 22 674 51 q 396 -8 519 -8 m 415 131 q 517 149 479 131 q 578 216 554 167 q 617 361 601 265 q 629 492 629 456 q 598 588 629 560 q 492 617 567 617 q 389 596 426 617 q 328 521 351 575 q 289 361 306 467 q 279 256 279 289 q 313 157 279 183 q 415 131 346 131 m 496 1069 l 628 1069 l 449 876 l 349 876 l 496 1069 m 717 1069 l 849 1069 l 669 876 l 569 876 l 717 1069 z "},"ȏ":{"ha":793,"x_min":110,"x_max":800,"o":"m 396 -8 q 110 249 110 -8 q 121 388 110 317 q 191 614 144 535 q 314 723 238 693 q 515 753 390 753 q 688 724 626 753 q 775 637 750 694 q 800 485 800 579 q 788 336 800 418 q 720 126 767 200 q 597 22 674 51 q 396 -8 519 -8 m 415 131 q 517 149 479 131 q 578 216 554 167 q 617 361 601 265 q 629 492 629 456 q 598 588 629 560 q 492 617 567 617 q 389 596 426 617 q 328 521 351 575 q 289 361 306 467 q 279 256 279 289 q 313 157 279 183 q 415 131 346 131 m 332 871 q 407 1026 349 976 q 556 1076 465 1076 q 674 1039 631 1076 q 717 924 717 1001 q 711 871 717 910 l 631 871 q 633 904 633 896 q 608 975 633 953 q 543 997 583 997 q 460 967 494 997 q 414 871 425 938 l 332 871 z "},"ō":{"ha":793,"x_min":110,"x_max":800,"o":"m 396 -8 q 110 249 110 -8 q 121 388 110 317 q 191 614 144 535 q 314 723 238 693 q 515 753 390 753 q 688 724 626 753 q 775 637 750 694 q 800 485 800 579 q 788 336 800 418 q 720 126 767 200 q 597 22 674 51 q 396 -8 519 -8 m 415 131 q 517 149 479 131 q 578 216 554 167 q 617 361 601 265 q 629 492 629 456 q 598 588 629 560 q 492 617 567 617 q 389 596 426 617 q 328 521 351 575 q 289 361 306 467 q 279 256 279 289 q 313 157 279 183 q 415 131 346 131 m 361 1013 l 744 1013 l 728 911 l 344 911 l 361 1013 z "},"ṓ":{"ha":793,"x_min":110,"x_max":800,"o":"m 396 -8 q 110 249 110 -8 q 121 388 110 317 q 191 614 144 535 q 314 723 238 693 q 515 753 390 753 q 688 724 626 753 q 775 637 750 694 q 800 485 800 579 q 788 336 800 418 q 720 126 767 200 q 597 22 674 51 q 396 -8 519 -8 m 415 131 q 517 149 479 131 q 578 216 554 167 q 617 361 601 265 q 629 492 629 456 q 598 588 629 560 q 492 617 567 617 q 389 596 426 617 q 328 521 351 575 q 289 361 306 467 q 279 256 279 289 q 313 157 279 183 q 415 131 346 131 m 361 1013 l 744 1013 l 728 911 l 344 911 l 361 1013 m 651 1269 l 800 1269 l 613 1076 l 504 1076 l 651 1269 z "},"ṑ":{"ha":793,"x_min":110,"x_max":800,"o":"m 396 -8 q 110 249 110 -8 q 121 388 110 317 q 191 614 144 535 q 314 723 238 693 q 515 753 390 753 q 688 724 626 753 q 775 637 750 694 q 800 485 800 579 q 788 336 800 418 q 720 126 767 200 q 597 22 674 51 q 396 -8 519 -8 m 415 131 q 517 149 479 131 q 578 216 554 167 q 617 361 601 265 q 629 492 629 456 q 598 588 629 560 q 492 617 567 617 q 389 596 426 617 q 328 521 351 575 q 289 361 306 467 q 279 256 279 289 q 313 157 279 183 q 415 131 346 131 m 361 1013 l 744 1013 l 728 911 l 344 911 l 361 1013 m 368 1269 l 508 1269 l 603 1076 l 501 1076 l 368 1269 z "},"ǫ":{"ha":793,"x_min":110,"x_max":800,"o":"m 515 753 q 688 724 626 753 q 775 637 750 694 q 800 485 800 579 q 788 336 800 418 q 699 96 763 172 q 515 0 635 19 l 517 0 q 448 -57 471 -25 q 425 -114 425 -89 q 447 -161 425 -144 q 507 -178 468 -178 l 518 -178 l 504 -260 q 463 -264 490 -264 q 366 -235 399 -264 q 333 -160 333 -206 q 360 -76 333 -115 q 438 -7 386 -36 q 396 -8 425 -8 q 110 249 110 -8 q 121 388 110 317 q 191 614 144 535 q 314 723 238 693 q 515 753 390 753 m 617 361 q 629 492 629 456 q 598 588 629 560 q 492 617 567 617 q 389 596 426 617 q 328 521 351 575 q 289 361 306 467 q 279 256 279 289 q 313 157 279 183 q 415 131 346 131 q 517 149 479 131 q 578 216 554 167 q 617 361 601 265 z "},"ø":{"ha":789,"x_min":53,"x_max":854,"o":"m 767 654 q 800 485 800 593 q 788 336 800 418 q 720 126 767 200 q 597 22 674 51 q 396 -8 519 -8 q 185 53 256 -8 l 135 0 l 53 0 l 147 97 q 110 249 110 156 q 121 388 110 317 q 191 614 144 535 q 314 723 238 693 q 515 753 390 753 q 728 699 664 753 l 772 744 l 854 744 l 767 654 m 279 256 q 281 235 279 242 l 608 575 q 492 617 581 617 q 389 596 426 617 q 328 521 351 575 q 289 361 306 467 q 279 256 279 289 m 629 511 l 300 171 q 415 131 329 131 q 517 149 479 131 q 578 216 554 167 q 617 361 601 265 q 629 492 629 456 l 629 511 z "},"ǿ":{"ha":789,"x_min":53,"x_max":854,"o":"m 767 654 q 800 485 800 593 q 788 336 800 418 q 720 126 767 200 q 597 22 674 51 q 396 -8 519 -8 q 185 53 256 -8 l 135 0 l 53 0 l 147 97 q 110 249 110 156 q 121 388 110 317 q 191 614 144 535 q 314 723 238 693 q 515 753 390 753 q 728 699 664 753 l 772 744 l 854 744 l 767 654 m 279 256 q 281 235 279 242 l 608 575 q 492 617 581 617 q 389 596 426 617 q 328 521 351 575 q 289 361 306 467 q 279 256 279 289 m 629 511 l 300 171 q 415 131 329 131 q 517 149 479 131 q 578 216 554 167 q 617 361 601 265 q 629 492 629 456 l 629 511 m 572 1069 l 721 1069 l 533 876 l 425 876 l 572 1069 z "},"õ":{"ha":793,"x_min":110,"x_max":810,"o":"m 396 -8 q 110 249 110 -8 q 121 388 110 317 q 191 614 144 535 q 314 723 238 693 q 515 753 390 753 q 688 724 626 753 q 775 637 750 694 q 800 485 800 579 q 788 336 800 418 q 720 126 767 200 q 597 22 674 51 q 396 -8 519 -8 m 415 131 q 517 149 479 131 q 578 216 554 167 q 617 361 601 265 q 629 492 629 456 q 598 588 629 560 q 492 617 567 617 q 389 596 426 617 q 328 521 351 575 q 289 361 306 467 q 279 256 279 289 q 313 157 279 183 q 415 131 346 131 m 281 889 q 343 1013 299 975 q 447 1051 388 1051 q 503 1042 478 1051 q 564 1015 528 1033 q 611 993 593 1000 q 647 986 629 986 q 698 1004 678 986 q 724 1057 718 1022 l 810 1057 q 750 931 790 972 q 646 890 710 890 q 593 899 618 890 q 528 926 568 908 q 480 949 499 942 q 443 956 461 956 q 394 938 415 956 q 367 889 372 919 l 281 889 z "},"ṍ":{"ha":793,"x_min":110,"x_max":810,"o":"m 396 -8 q 110 249 110 -8 q 121 388 110 317 q 191 614 144 535 q 314 723 238 693 q 515 753 390 753 q 688 724 626 753 q 775 637 750 694 q 800 485 800 579 q 788 336 800 418 q 720 126 767 200 q 597 22 674 51 q 396 -8 519 -8 m 415 131 q 517 149 479 131 q 578 216 554 167 q 617 361 601 265 q 629 492 629 456 q 598 588 629 560 q 492 617 567 617 q 389 596 426 617 q 328 521 351 575 q 289 361 306 467 q 279 256 279 289 q 313 157 279 183 q 415 131 346 131 m 281 889 q 343 1013 299 975 q 447 1051 388 1051 q 503 1042 478 1051 q 564 1015 528 1033 q 611 993 593 1000 q 647 986 629 986 q 698 1004 678 986 q 724 1057 718 1022 l 810 1057 q 750 931 790 972 q 646 890 710 890 q 593 899 618 890 q 528 926 568 908 q 480 949 499 942 q 443 956 461 956 q 394 938 415 956 q 367 889 372 919 l 281 889 m 635 1292 l 783 1292 l 596 1099 l 488 1099 l 635 1292 z "},"ṏ":{"ha":793,"x_min":110,"x_max":810,"o":"m 396 -8 q 110 249 110 -8 q 121 388 110 317 q 191 614 144 535 q 314 723 238 693 q 515 753 390 753 q 688 724 626 753 q 775 637 750 694 q 800 485 800 579 q 788 336 800 418 q 720 126 767 200 q 597 22 674 51 q 396 -8 519 -8 m 415 131 q 517 149 479 131 q 578 216 554 167 q 617 361 601 265 q 629 492 629 456 q 598 588 629 560 q 492 617 567 617 q 389 596 426 617 q 328 521 351 575 q 289 361 306 467 q 279 256 279 289 q 313 157 279 183 q 415 131 346 131 m 281 889 q 343 1013 299 975 q 447 1051 388 1051 q 503 1042 478 1051 q 564 1015 528 1033 q 611 993 593 1000 q 647 986 629 986 q 698 1004 678 986 q 724 1057 718 1022 l 810 1057 q 750 931 790 972 q 646 890 710 890 q 593 899 618 890 q 528 926 568 908 q 480 949 499 942 q 443 956 461 956 q 394 938 415 956 q 367 889 372 919 l 281 889 m 374 1121 q 358 1126 364 1121 q 351 1142 351 1132 q 372 1272 351 1138 q 403 1300 376 1300 l 482 1300 q 504 1279 504 1300 l 483 1147 q 453 1121 482 1121 l 374 1121 m 654 1121 q 638 1126 644 1121 q 632 1142 632 1132 l 653 1272 q 682 1300 657 1300 l 763 1300 q 785 1279 785 1300 q 764 1147 785 1285 q 733 1121 760 1121 l 654 1121 z "},"ȭ":{"ha":793,"x_min":110,"x_max":800,"o":"m 396 -8 q 110 249 110 -8 q 121 388 110 317 q 191 614 144 535 q 314 723 238 693 q 515 753 390 753 q 688 724 626 753 q 775 637 750 694 q 800 485 800 579 q 788 336 800 418 q 720 126 767 200 q 597 22 674 51 q 396 -8 519 -8 m 415 131 q 517 149 479 131 q 578 216 554 167 q 617 361 601 265 q 629 492 629 456 q 598 588 629 560 q 492 617 567 617 q 389 596 426 617 q 328 521 351 575 q 289 361 306 467 q 279 256 279 289 q 313 157 279 183 q 415 131 346 131 m 369 1215 l 753 1215 l 736 1114 l 353 1114 l 369 1215 m 264 872 q 326 997 282 958 q 431 1035 371 1035 q 486 1026 461 1035 q 547 999 511 1017 q 594 976 576 983 q 631 969 613 969 q 681 988 661 969 q 707 1040 701 1006 l 793 1040 q 733 915 774 956 q 629 874 693 874 q 576 883 601 874 q 511 910 551 892 q 463 932 482 925 q 426 939 444 939 q 377 921 399 939 q 350 872 356 903 l 264 872 z "}}}
